<?xml version="1.0" encoding="UTF-8" standalone="no"?><svg xmlns="http://www.w3.org/2000/svg" xmlns:xlink="http://www.w3.org/1999/xlink" contentScriptType="application/ecmascript" contentStyleType="text/css" height="609px" preserveAspectRatio="none" style="width:1926px;height:609px;" version="1.1" viewBox="0 0 1926 609" width="1926px" zoomAndPan="magnify"><defs><filter height="300%" id="f9epbk8oxk5sk" width="300%" x="-1" y="-1"><feGaussianBlur result="blurOut" stdDeviation="2.0"/><feColorMatrix in="blurOut" result="blurOut2" type="matrix" values="0 0 0 0 0 0 0 0 0 0 0 0 0 0 0 0 0 0 .4 0"/><feOffset dx="4.0" dy="4.0" in="blurOut2" result="blurOut3"/><feBlend in="SourceGraphic" in2="blurOut3" mode="normal"/></filter></defs><g><!--MD5=[18fb3b8b891fcc2cffdb0edb6f0580a1]
class AIBoat--><rect codeLine="1" fill="#FEFECE" filter="url(#f9epbk8oxk5sk)" height="48" id="AIBoat" style="stroke:#A80036;stroke-width:1.5;" width="72" x="1457" y="439"/><ellipse cx="1472" cy="455" fill="#ADD1B2" rx="11" ry="11" style="stroke:#A80036;stroke-width:1.0;"/><path d="M1474.9688,460.6406 Q1474.3906,460.9375 1473.75,461.0781 Q1473.1094,461.2344 1472.4063,461.2344 Q1469.9063,461.2344 1468.5781,459.5938 Q1467.2656,457.9375 1467.2656,454.8125 Q1467.2656,451.6875 1468.5781,450.0313 Q1469.9063,448.375 1472.4063,448.375 Q1473.1094,448.375 1473.75,448.5313 Q1474.4063,448.6875 1474.9688,448.9844 L1474.9688,451.7031 Q1474.3438,451.125 1473.75,450.8594 Q1473.1563,450.5781 1472.5313,450.5781 Q1471.1875,450.5781 1470.5,451.6563 Q1469.8125,452.7188 1469.8125,454.8125 Q1469.8125,456.9063 1470.5,457.9844 Q1471.1875,459.0469 1472.5313,459.0469 Q1473.1563,459.0469 1473.75,458.7813 Q1474.3438,458.5 1474.9688,457.9219 L1474.9688,460.6406 Z " fill="#000000"/><text fill="#000000" font-family="sans-serif" font-size="12" lengthAdjust="spacing" textLength="40" x="1486" y="459.1543">AIBoat</text><line style="stroke:#A80036;stroke-width:1.5;" x1="1458" x2="1528" y1="471" y2="471"/><line style="stroke:#A80036;stroke-width:1.5;" x1="1458" x2="1528" y1="479" y2="479"/><!--MD5=[d7378ac8501ce6417ec16634b4f30c76]
class Boat--><rect codeLine="2" fill="#FEFECE" filter="url(#f9epbk8oxk5sk)" height="48" id="Boat" style="stroke:#A80036;stroke-width:1.5;" width="61" x="1181.5" y="331"/><ellipse cx="1196.5" cy="347" fill="#A9DCDF" rx="11" ry="11" style="stroke:#A80036;stroke-width:1.0;"/><path d="M1196.6094,342.3438 L1195.4531,347.4219 L1197.7813,347.4219 L1196.6094,342.3438 Z M1195.125,340.1094 L1198.1094,340.1094 L1201.4688,352.5 L1199.0156,352.5 L1198.25,349.4375 L1194.9688,349.4375 L1194.2188,352.5 L1191.7813,352.5 L1195.125,340.1094 Z " fill="#000000"/><text fill="#000000" font-family="sans-serif" font-size="12" font-style="italic" lengthAdjust="spacing" textLength="29" x="1210.5" y="351.1543">Boat</text><line style="stroke:#A80036;stroke-width:1.5;" x1="1182.5" x2="1241.5" y1="363" y2="363"/><line style="stroke:#A80036;stroke-width:1.5;" x1="1182.5" x2="1241.5" y1="371" y2="371"/><!--MD5=[48e88c162c5505361c629eb6ff3812a8]
class GameState--><rect codeLine="34" fill="#FEFECE" filter="url(#f9epbk8oxk5sk)" height="48" id="GameState" style="stroke:#A80036;stroke-width:1.5;" width="102" x="109" y="223"/><ellipse cx="124" cy="239" fill="#ADD1B2" rx="11" ry="11" style="stroke:#A80036;stroke-width:1.0;"/><path d="M126.9688,244.6406 Q126.3906,244.9375 125.75,245.0781 Q125.1094,245.2344 124.4063,245.2344 Q121.9063,245.2344 120.5781,243.5938 Q119.2656,241.9375 119.2656,238.8125 Q119.2656,235.6875 120.5781,234.0313 Q121.9063,232.375 124.4063,232.375 Q125.1094,232.375 125.75,232.5313 Q126.4063,232.6875 126.9688,232.9844 L126.9688,235.7031 Q126.3438,235.125 125.75,234.8594 Q125.1563,234.5781 124.5313,234.5781 Q123.1875,234.5781 122.5,235.6563 Q121.8125,236.7188 121.8125,238.8125 Q121.8125,240.9063 122.5,241.9844 Q123.1875,243.0469 124.5313,243.0469 Q125.1563,243.0469 125.75,242.7813 Q126.3438,242.5 126.9688,241.9219 L126.9688,244.6406 Z " fill="#000000"/><text fill="#000000" font-family="sans-serif" font-size="12" lengthAdjust="spacing" textLength="70" x="138" y="243.1543">GameState</text><line style="stroke:#A80036;stroke-width:1.5;" x1="110" x2="210" y1="255" y2="255"/><line style="stroke:#A80036;stroke-width:1.5;" x1="110" x2="210" y1="263" y2="263"/><!--MD5=[7ad87d4687b1c74665962eea80f8b40b]
class BoatRace--><rect codeLine="4" fill="#FEFECE" filter="url(#f9epbk8oxk5sk)" height="48" id="BoatRace" style="stroke:#A80036;stroke-width:1.5;" width="92" x="620" y="223"/><ellipse cx="635" cy="239" fill="#ADD1B2" rx="11" ry="11" style="stroke:#A80036;stroke-width:1.0;"/><path d="M637.9688,244.6406 Q637.3906,244.9375 636.75,245.0781 Q636.1094,245.2344 635.4063,245.2344 Q632.9063,245.2344 631.5781,243.5938 Q630.2656,241.9375 630.2656,238.8125 Q630.2656,235.6875 631.5781,234.0313 Q632.9063,232.375 635.4063,232.375 Q636.1094,232.375 636.75,232.5313 Q637.4063,232.6875 637.9688,232.9844 L637.9688,235.7031 Q637.3438,235.125 636.75,234.8594 Q636.1563,234.5781 635.5313,234.5781 Q634.1875,234.5781 633.5,235.6563 Q632.8125,236.7188 632.8125,238.8125 Q632.8125,240.9063 633.5,241.9844 Q634.1875,243.0469 635.5313,243.0469 Q636.1563,243.0469 636.75,242.7813 Q637.3438,242.5 637.9688,241.9219 L637.9688,244.6406 Z " fill="#000000"/><text fill="#000000" font-family="sans-serif" font-size="12" lengthAdjust="spacing" textLength="60" x="649" y="243.1543">BoatRace</text><line style="stroke:#A80036;stroke-width:1.5;" x1="621" x2="711" y1="255" y2="255"/><line style="stroke:#A80036;stroke-width:1.5;" x1="621" x2="711" y1="263" y2="263"/><!--MD5=[dad577432b370c149ed719f544827710]
class CollisionBounds--><rect codeLine="5" fill="#FEFECE" filter="url(#f9epbk8oxk5sk)" height="48" id="CollisionBounds" style="stroke:#A80036;stroke-width:1.5;" width="130" x="908" y="331"/><ellipse cx="923" cy="347" fill="#ADD1B2" rx="11" ry="11" style="stroke:#A80036;stroke-width:1.0;"/><path d="M925.9688,352.6406 Q925.3906,352.9375 924.75,353.0781 Q924.1094,353.2344 923.4063,353.2344 Q920.9063,353.2344 919.5781,351.5938 Q918.2656,349.9375 918.2656,346.8125 Q918.2656,343.6875 919.5781,342.0313 Q920.9063,340.375 923.4063,340.375 Q924.1094,340.375 924.75,340.5313 Q925.4063,340.6875 925.9688,340.9844 L925.9688,343.7031 Q925.3438,343.125 924.75,342.8594 Q924.1563,342.5781 923.5313,342.5781 Q922.1875,342.5781 921.5,343.6563 Q920.8125,344.7188 920.8125,346.8125 Q920.8125,348.9063 921.5,349.9844 Q922.1875,351.0469 923.5313,351.0469 Q924.1563,351.0469 924.75,350.7813 Q925.3438,350.5 925.9688,349.9219 L925.9688,352.6406 Z " fill="#000000"/><text fill="#000000" font-family="sans-serif" font-size="12" lengthAdjust="spacing" textLength="98" x="937" y="351.1543">CollisionBounds</text><line style="stroke:#A80036;stroke-width:1.5;" x1="909" x2="1037" y1="363" y2="363"/><line style="stroke:#A80036;stroke-width:1.5;" x1="909" x2="1037" y1="371" y2="371"/><!--MD5=[aacfa9e8a43f0443332ec4be3ea5f7a8]
class CollisionObject--><rect codeLine="6" fill="#FEFECE" filter="url(#f9epbk8oxk5sk)" height="48" id="CollisionObject" style="stroke:#A80036;stroke-width:1.5;" width="121" x="912.5" y="223"/><ellipse cx="927.5" cy="239" fill="#B4A7E5" rx="11" ry="11" style="stroke:#A80036;stroke-width:1.0;"/><path d="M923.4219,234.7656 L923.4219,232.6094 L930.8125,232.6094 L930.8125,234.7656 L928.3438,234.7656 L928.3438,242.8438 L930.8125,242.8438 L930.8125,245 L923.4219,245 L923.4219,242.8438 L925.8906,242.8438 L925.8906,234.7656 L923.4219,234.7656 Z " fill="#000000"/><text fill="#000000" font-family="sans-serif" font-size="12" font-style="italic" lengthAdjust="spacing" textLength="89" x="941.5" y="243.1543">CollisionObject</text><line style="stroke:#A80036;stroke-width:1.5;" x1="913.5" x2="1032.5" y1="255" y2="255"/><line style="stroke:#A80036;stroke-width:1.5;" x1="913.5" x2="1032.5" y1="263" y2="263"/><!--MD5=[064f7a74fee85463ec1a30143664ee17]
class GameObject--><rect codeLine="7" fill="#FEFECE" filter="url(#f9epbk8oxk5sk)" height="48" id="GameObject" style="stroke:#A80036;stroke-width:1.5;" width="107" x="486.5" y="115"/><ellipse cx="501.5" cy="131" fill="#A9DCDF" rx="11" ry="11" style="stroke:#A80036;stroke-width:1.0;"/><path d="M501.6094,126.3438 L500.4531,131.4219 L502.7813,131.4219 L501.6094,126.3438 Z M500.125,124.1094 L503.1094,124.1094 L506.4688,136.5 L504.0156,136.5 L503.25,133.4375 L499.9688,133.4375 L499.2188,136.5 L496.7813,136.5 L500.125,124.1094 Z " fill="#000000"/><text fill="#000000" font-family="sans-serif" font-size="12" font-style="italic" lengthAdjust="spacing" textLength="75" x="515.5" y="135.1543">GameObject</text><line style="stroke:#A80036;stroke-width:1.5;" x1="487.5" x2="592.5" y1="147" y2="147"/><line style="stroke:#A80036;stroke-width:1.5;" x1="487.5" x2="592.5" y1="155" y2="155"/><!--MD5=[fe88339b2988a1ef1c95b68c104d7624]
class MoveableObject--><rect codeLine="8" fill="#FEFECE" filter="url(#f9epbk8oxk5sk)" height="48" id="MoveableObject" style="stroke:#A80036;stroke-width:1.5;" width="130" x="747" y="223"/><ellipse cx="762" cy="239" fill="#A9DCDF" rx="11" ry="11" style="stroke:#A80036;stroke-width:1.0;"/><path d="M762.1094,234.3438 L760.9531,239.4219 L763.2813,239.4219 L762.1094,234.3438 Z M760.625,232.1094 L763.6094,232.1094 L766.9688,244.5 L764.5156,244.5 L763.75,241.4375 L760.4688,241.4375 L759.7188,244.5 L757.2813,244.5 L760.625,232.1094 Z " fill="#000000"/><text fill="#000000" font-family="sans-serif" font-size="12" font-style="italic" lengthAdjust="spacing" textLength="98" x="776" y="243.1543">MoveableObject</text><line style="stroke:#A80036;stroke-width:1.5;" x1="748" x2="876" y1="255" y2="255"/><line style="stroke:#A80036;stroke-width:1.5;" x1="748" x2="876" y1="263" y2="263"/><!--MD5=[23868d926b4091f874f65c50fc3e197e]
class Obstacle--><rect codeLine="9" fill="#FEFECE" filter="url(#f9epbk8oxk5sk)" height="48" id="Obstacle" style="stroke:#A80036;stroke-width:1.5;" width="85" x="449.5" y="331"/><ellipse cx="464.5" cy="347" fill="#A9DCDF" rx="11" ry="11" style="stroke:#A80036;stroke-width:1.0;"/><path d="M464.6094,342.3438 L463.4531,347.4219 L465.7813,347.4219 L464.6094,342.3438 Z M463.125,340.1094 L466.1094,340.1094 L469.4688,352.5 L467.0156,352.5 L466.25,349.4375 L462.9688,349.4375 L462.2188,352.5 L459.7813,352.5 L463.125,340.1094 Z " fill="#000000"/><text fill="#000000" font-family="sans-serif" font-size="12" font-style="italic" lengthAdjust="spacing" textLength="53" x="478.5" y="351.1543">Obstacle</text><line style="stroke:#A80036;stroke-width:1.5;" x1="450.5" x2="533.5" y1="363" y2="363"/><line style="stroke:#A80036;stroke-width:1.5;" x1="450.5" x2="533.5" y1="371" y2="371"/><!--MD5=[6e59e257303d1e16cb6f7f17f2110772]
class PowerUp--><rect codeLine="10" fill="#FEFECE" filter="url(#f9epbk8oxk5sk)" height="48" id="PowerUp" style="stroke:#A80036;stroke-width:1.5;" width="87" x="777.5" y="331"/><ellipse cx="792.5" cy="347" fill="#A9DCDF" rx="11" ry="11" style="stroke:#A80036;stroke-width:1.0;"/><path d="M792.6094,342.3438 L791.4531,347.4219 L793.7813,347.4219 L792.6094,342.3438 Z M791.125,340.1094 L794.1094,340.1094 L797.4688,352.5 L795.0156,352.5 L794.25,349.4375 L790.9688,349.4375 L790.2188,352.5 L787.7813,352.5 L791.125,340.1094 Z " fill="#000000"/><text fill="#000000" font-family="sans-serif" font-size="12" font-style="italic" lengthAdjust="spacing" textLength="55" x="806.5" y="351.1543">PowerUp</text><line style="stroke:#A80036;stroke-width:1.5;" x1="778.5" x2="863.5" y1="363" y2="363"/><line style="stroke:#A80036;stroke-width:1.5;" x1="778.5" x2="863.5" y1="371" y2="371"/><!--MD5=[70eb40ec4e98294ad6befc3105d328c0]
class PowerUpSpeed--><rect codeLine="11" fill="#FEFECE" filter="url(#f9epbk8oxk5sk)" height="48" id="PowerUpSpeed" style="stroke:#A80036;stroke-width:1.5;" width="127" x="842.5" y="439"/><ellipse cx="857.5" cy="455" fill="#ADD1B2" rx="11" ry="11" style="stroke:#A80036;stroke-width:1.0;"/><path d="M860.4688,460.6406 Q859.8906,460.9375 859.25,461.0781 Q858.6094,461.2344 857.9063,461.2344 Q855.4063,461.2344 854.0781,459.5938 Q852.7656,457.9375 852.7656,454.8125 Q852.7656,451.6875 854.0781,450.0313 Q855.4063,448.375 857.9063,448.375 Q858.6094,448.375 859.25,448.5313 Q859.9063,448.6875 860.4688,448.9844 L860.4688,451.7031 Q859.8438,451.125 859.25,450.8594 Q858.6563,450.5781 858.0313,450.5781 Q856.6875,450.5781 856,451.6563 Q855.3125,452.7188 855.3125,454.8125 Q855.3125,456.9063 856,457.9844 Q856.6875,459.0469 858.0313,459.0469 Q858.6563,459.0469 859.25,458.7813 Q859.8438,458.5 860.4688,457.9219 L860.4688,460.6406 Z " fill="#000000"/><text fill="#000000" font-family="sans-serif" font-size="12" lengthAdjust="spacing" textLength="95" x="871.5" y="459.1543">PowerUpSpeed</text><line style="stroke:#A80036;stroke-width:1.5;" x1="843.5" x2="968.5" y1="471" y2="471"/><line style="stroke:#A80036;stroke-width:1.5;" x1="843.5" x2="968.5" y1="479" y2="479"/><!--MD5=[25e00a08e13561d55d72e4d01232f4bf]
class PowerUpDrag--><rect codeLine="12" fill="#FEFECE" filter="url(#f9epbk8oxk5sk)" height="48" id="PowerUpDrag" style="stroke:#A80036;stroke-width:1.5;" width="117" x="1004.5" y="439"/><ellipse cx="1019.5" cy="455" fill="#ADD1B2" rx="11" ry="11" style="stroke:#A80036;stroke-width:1.0;"/><path d="M1022.4688,460.6406 Q1021.8906,460.9375 1021.25,461.0781 Q1020.6094,461.2344 1019.9063,461.2344 Q1017.4063,461.2344 1016.0781,459.5938 Q1014.7656,457.9375 1014.7656,454.8125 Q1014.7656,451.6875 1016.0781,450.0313 Q1017.4063,448.375 1019.9063,448.375 Q1020.6094,448.375 1021.25,448.5313 Q1021.9063,448.6875 1022.4688,448.9844 L1022.4688,451.7031 Q1021.8438,451.125 1021.25,450.8594 Q1020.6563,450.5781 1020.0313,450.5781 Q1018.6875,450.5781 1018,451.6563 Q1017.3125,452.7188 1017.3125,454.8125 Q1017.3125,456.9063 1018,457.9844 Q1018.6875,459.0469 1020.0313,459.0469 Q1020.6563,459.0469 1021.25,458.7813 Q1021.8438,458.5 1022.4688,457.9219 L1022.4688,460.6406 Z " fill="#000000"/><text fill="#000000" font-family="sans-serif" font-size="12" lengthAdjust="spacing" textLength="85" x="1033.5" y="459.1543">PowerUpDrag</text><line style="stroke:#A80036;stroke-width:1.5;" x1="1005.5" x2="1120.5" y1="471" y2="471"/><line style="stroke:#A80036;stroke-width:1.5;" x1="1005.5" x2="1120.5" y1="479" y2="479"/><!--MD5=[baa69d73fe455a6639bca7ddb1d35c15]
class PowerUpEnergy--><rect codeLine="13" fill="#FEFECE" filter="url(#f9epbk8oxk5sk)" height="48" id="PowerUpEnergy" style="stroke:#A80036;stroke-width:1.5;" width="130" x="1157" y="439"/><ellipse cx="1172" cy="455" fill="#ADD1B2" rx="11" ry="11" style="stroke:#A80036;stroke-width:1.0;"/><path d="M1174.9688,460.6406 Q1174.3906,460.9375 1173.75,461.0781 Q1173.1094,461.2344 1172.4063,461.2344 Q1169.9063,461.2344 1168.5781,459.5938 Q1167.2656,457.9375 1167.2656,454.8125 Q1167.2656,451.6875 1168.5781,450.0313 Q1169.9063,448.375 1172.4063,448.375 Q1173.1094,448.375 1173.75,448.5313 Q1174.4063,448.6875 1174.9688,448.9844 L1174.9688,451.7031 Q1174.3438,451.125 1173.75,450.8594 Q1173.1563,450.5781 1172.5313,450.5781 Q1171.1875,450.5781 1170.5,451.6563 Q1169.8125,452.7188 1169.8125,454.8125 Q1169.8125,456.9063 1170.5,457.9844 Q1171.1875,459.0469 1172.5313,459.0469 Q1173.1563,459.0469 1173.75,458.7813 Q1174.3438,458.5 1174.9688,457.9219 L1174.9688,460.6406 Z " fill="#000000"/><text fill="#000000" font-family="sans-serif" font-size="12" lengthAdjust="spacing" textLength="98" x="1186" y="459.1543">PowerUpEnergy</text><line style="stroke:#A80036;stroke-width:1.5;" x1="1158" x2="1286" y1="471" y2="471"/><line style="stroke:#A80036;stroke-width:1.5;" x1="1158" x2="1286" y1="479" y2="479"/><!--MD5=[bb1664ab83e59acad550b7a0f7ef2002]
class PowerUpHealth--><rect codeLine="14" fill="#FEFECE" filter="url(#f9epbk8oxk5sk)" height="48" id="PowerUpHealth" style="stroke:#A80036;stroke-width:1.5;" width="128" x="504" y="439"/><ellipse cx="519" cy="455" fill="#ADD1B2" rx="11" ry="11" style="stroke:#A80036;stroke-width:1.0;"/><path d="M521.9688,460.6406 Q521.3906,460.9375 520.75,461.0781 Q520.1094,461.2344 519.4063,461.2344 Q516.9063,461.2344 515.5781,459.5938 Q514.2656,457.9375 514.2656,454.8125 Q514.2656,451.6875 515.5781,450.0313 Q516.9063,448.375 519.4063,448.375 Q520.1094,448.375 520.75,448.5313 Q521.4063,448.6875 521.9688,448.9844 L521.9688,451.7031 Q521.3438,451.125 520.75,450.8594 Q520.1563,450.5781 519.5313,450.5781 Q518.1875,450.5781 517.5,451.6563 Q516.8125,452.7188 516.8125,454.8125 Q516.8125,456.9063 517.5,457.9844 Q518.1875,459.0469 519.5313,459.0469 Q520.1563,459.0469 520.75,458.7813 Q521.3438,458.5 521.9688,457.9219 L521.9688,460.6406 Z " fill="#000000"/><text fill="#000000" font-family="sans-serif" font-size="12" lengthAdjust="spacing" textLength="96" x="533" y="459.1543">PowerUpHealth</text><line style="stroke:#A80036;stroke-width:1.5;" x1="505" x2="631" y1="471" y2="471"/><line style="stroke:#A80036;stroke-width:1.5;" x1="505" x2="631" y1="479" y2="479"/><!--MD5=[95b81e5cbf3fae420eb8d85a4728edbb]
class PowerUpRotation--><rect codeLine="15" fill="#FEFECE" filter="url(#f9epbk8oxk5sk)" height="48" id="PowerUpRotation" style="stroke:#A80036;stroke-width:1.5;" width="140" x="667" y="439"/><ellipse cx="682" cy="455" fill="#ADD1B2" rx="11" ry="11" style="stroke:#A80036;stroke-width:1.0;"/><path d="M684.9688,460.6406 Q684.3906,460.9375 683.75,461.0781 Q683.1094,461.2344 682.4063,461.2344 Q679.9063,461.2344 678.5781,459.5938 Q677.2656,457.9375 677.2656,454.8125 Q677.2656,451.6875 678.5781,450.0313 Q679.9063,448.375 682.4063,448.375 Q683.1094,448.375 683.75,448.5313 Q684.4063,448.6875 684.9688,448.9844 L684.9688,451.7031 Q684.3438,451.125 683.75,450.8594 Q683.1563,450.5781 682.5313,450.5781 Q681.1875,450.5781 680.5,451.6563 Q679.8125,452.7188 679.8125,454.8125 Q679.8125,456.9063 680.5,457.9844 Q681.1875,459.0469 682.5313,459.0469 Q683.1563,459.0469 683.75,458.7813 Q684.3438,458.5 684.9688,457.9219 L684.9688,460.6406 Z " fill="#000000"/><text fill="#000000" font-family="sans-serif" font-size="12" lengthAdjust="spacing" textLength="108" x="696" y="459.1543">PowerUpRotation</text><line style="stroke:#A80036;stroke-width:1.5;" x1="668" x2="806" y1="471" y2="471"/><line style="stroke:#A80036;stroke-width:1.5;" x1="668" x2="806" y1="479" y2="479"/><!--MD5=[4547f04c185f2c4543cd5e5112560fdc]
class ObstacleBranch--><rect codeLine="16" fill="#FEFECE" filter="url(#f9epbk8oxk5sk)" height="48" id="ObstacleBranch" style="stroke:#A80036;stroke-width:1.5;" width="131" x="337.5" y="439"/><ellipse cx="352.5" cy="455" fill="#ADD1B2" rx="11" ry="11" style="stroke:#A80036;stroke-width:1.0;"/><path d="M355.4688,460.6406 Q354.8906,460.9375 354.25,461.0781 Q353.6094,461.2344 352.9063,461.2344 Q350.4063,461.2344 349.0781,459.5938 Q347.7656,457.9375 347.7656,454.8125 Q347.7656,451.6875 349.0781,450.0313 Q350.4063,448.375 352.9063,448.375 Q353.6094,448.375 354.25,448.5313 Q354.9063,448.6875 355.4688,448.9844 L355.4688,451.7031 Q354.8438,451.125 354.25,450.8594 Q353.6563,450.5781 353.0313,450.5781 Q351.6875,450.5781 351,451.6563 Q350.3125,452.7188 350.3125,454.8125 Q350.3125,456.9063 351,457.9844 Q351.6875,459.0469 353.0313,459.0469 Q353.6563,459.0469 354.25,458.7813 Q354.8438,458.5 355.4688,457.9219 L355.4688,460.6406 Z " fill="#000000"/><text fill="#000000" font-family="sans-serif" font-size="12" lengthAdjust="spacing" textLength="99" x="366.5" y="459.1543">ObstacleBranch</text><line style="stroke:#A80036;stroke-width:1.5;" x1="338.5" x2="467.5" y1="471" y2="471"/><line style="stroke:#A80036;stroke-width:1.5;" x1="338.5" x2="467.5" y1="479" y2="479"/><!--MD5=[b19bd0575d5e9b89c418741af47506da]
class ObstacleDuck--><rect codeLine="17" fill="#FEFECE" filter="url(#f9epbk8oxk5sk)" height="48" id="ObstacleDuck" style="stroke:#A80036;stroke-width:1.5;" width="118" x="7" y="439"/><ellipse cx="22" cy="455" fill="#ADD1B2" rx="11" ry="11" style="stroke:#A80036;stroke-width:1.0;"/><path d="M24.9688,460.6406 Q24.3906,460.9375 23.75,461.0781 Q23.1094,461.2344 22.4063,461.2344 Q19.9063,461.2344 18.5781,459.5938 Q17.2656,457.9375 17.2656,454.8125 Q17.2656,451.6875 18.5781,450.0313 Q19.9063,448.375 22.4063,448.375 Q23.1094,448.375 23.75,448.5313 Q24.4063,448.6875 24.9688,448.9844 L24.9688,451.7031 Q24.3438,451.125 23.75,450.8594 Q23.1563,450.5781 22.5313,450.5781 Q21.1875,450.5781 20.5,451.6563 Q19.8125,452.7188 19.8125,454.8125 Q19.8125,456.9063 20.5,457.9844 Q21.1875,459.0469 22.5313,459.0469 Q23.1563,459.0469 23.75,458.7813 Q24.3438,458.5 24.9688,457.9219 L24.9688,460.6406 Z " fill="#000000"/><text fill="#000000" font-family="sans-serif" font-size="12" lengthAdjust="spacing" textLength="86" x="36" y="459.1543">ObstacleDuck</text><line style="stroke:#A80036;stroke-width:1.5;" x1="8" x2="124" y1="471" y2="471"/><line style="stroke:#A80036;stroke-width:1.5;" x1="8" x2="124" y1="479" y2="479"/><!--MD5=[984dbebc17ca09c7aea9ae108686ba45]
class ObstacleFloatingBranch--><rect codeLine="18" fill="#FEFECE" filter="url(#f9epbk8oxk5sk)" height="48" id="ObstacleFloatingBranch" style="stroke:#A80036;stroke-width:1.5;" width="181" x="312.5" y="547"/><ellipse cx="327.5" cy="563" fill="#ADD1B2" rx="11" ry="11" style="stroke:#A80036;stroke-width:1.0;"/><path d="M330.4688,568.6406 Q329.8906,568.9375 329.25,569.0781 Q328.6094,569.2344 327.9063,569.2344 Q325.4063,569.2344 324.0781,567.5938 Q322.7656,565.9375 322.7656,562.8125 Q322.7656,559.6875 324.0781,558.0313 Q325.4063,556.375 327.9063,556.375 Q328.6094,556.375 329.25,556.5313 Q329.9063,556.6875 330.4688,556.9844 L330.4688,559.7031 Q329.8438,559.125 329.25,558.8594 Q328.6563,558.5781 328.0313,558.5781 Q326.6875,558.5781 326,559.6563 Q325.3125,560.7188 325.3125,562.8125 Q325.3125,564.9063 326,565.9844 Q326.6875,567.0469 328.0313,567.0469 Q328.6563,567.0469 329.25,566.7813 Q329.8438,566.5 330.4688,565.9219 L330.4688,568.6406 Z " fill="#000000"/><text fill="#000000" font-family="sans-serif" font-size="12" lengthAdjust="spacing" textLength="149" x="341.5" y="567.1543">ObstacleFloatingBranch</text><line style="stroke:#A80036;stroke-width:1.5;" x1="313.5" x2="492.5" y1="579" y2="579"/><line style="stroke:#A80036;stroke-width:1.5;" x1="313.5" x2="492.5" y1="587" y2="587"/><!--MD5=[be48d278c37504bf038512057d0f5275]
class ObstacleLaneWall--><rect codeLine="19" fill="#FEFECE" filter="url(#f9epbk8oxk5sk)" height="48" id="ObstacleLaneWall" style="stroke:#A80036;stroke-width:1.5;" width="142" x="160" y="439"/><ellipse cx="175" cy="455" fill="#ADD1B2" rx="11" ry="11" style="stroke:#A80036;stroke-width:1.0;"/><path d="M177.9688,460.6406 Q177.3906,460.9375 176.75,461.0781 Q176.1094,461.2344 175.4063,461.2344 Q172.9063,461.2344 171.5781,459.5938 Q170.2656,457.9375 170.2656,454.8125 Q170.2656,451.6875 171.5781,450.0313 Q172.9063,448.375 175.4063,448.375 Q176.1094,448.375 176.75,448.5313 Q177.4063,448.6875 177.9688,448.9844 L177.9688,451.7031 Q177.3438,451.125 176.75,450.8594 Q176.1563,450.5781 175.5313,450.5781 Q174.1875,450.5781 173.5,451.6563 Q172.8125,452.7188 172.8125,454.8125 Q172.8125,456.9063 173.5,457.9844 Q174.1875,459.0469 175.5313,459.0469 Q176.1563,459.0469 176.75,458.7813 Q177.3438,458.5 177.9688,457.9219 L177.9688,460.6406 Z " fill="#000000"/><text fill="#000000" font-family="sans-serif" font-size="12" lengthAdjust="spacing" textLength="110" x="189" y="459.1543">ObstacleLaneWall</text><line style="stroke:#A80036;stroke-width:1.5;" x1="161" x2="301" y1="471" y2="471"/><line style="stroke:#A80036;stroke-width:1.5;" x1="161" x2="301" y1="479" y2="479"/><!--MD5=[3c83b70202e58b87ef51d700e986ab12]
class PixelBoat--><rect codeLine="20" fill="#FEFECE" filter="url(#f9epbk8oxk5sk)" height="48" id="PixelBoat" style="stroke:#A80036;stroke-width:1.5;" width="89" x="727.5" y="7"/><ellipse cx="742.5" cy="23" fill="#ADD1B2" rx="11" ry="11" style="stroke:#A80036;stroke-width:1.0;"/><path d="M745.4688,28.6406 Q744.8906,28.9375 744.25,29.0781 Q743.6094,29.2344 742.9063,29.2344 Q740.4063,29.2344 739.0781,27.5938 Q737.7656,25.9375 737.7656,22.8125 Q737.7656,19.6875 739.0781,18.0313 Q740.4063,16.375 742.9063,16.375 Q743.6094,16.375 744.25,16.5313 Q744.9063,16.6875 745.4688,16.9844 L745.4688,19.7031 Q744.8438,19.125 744.25,18.8594 Q743.6563,18.5781 743.0313,18.5781 Q741.6875,18.5781 741,19.6563 Q740.3125,20.7188 740.3125,22.8125 Q740.3125,24.9063 741,25.9844 Q741.6875,27.0469 743.0313,27.0469 Q743.6563,27.0469 744.25,26.7813 Q744.8438,26.5 745.4688,25.9219 L745.4688,28.6406 Z " fill="#000000"/><text fill="#000000" font-family="sans-serif" font-size="12" lengthAdjust="spacing" textLength="57" x="756.5" y="27.1543">PixelBoat</text><line style="stroke:#A80036;stroke-width:1.5;" x1="728.5" x2="815.5" y1="39" y2="39"/><line style="stroke:#A80036;stroke-width:1.5;" x1="728.5" x2="815.5" y1="47" y2="47"/><!--MD5=[8b809054524057386b660902a6971129]
class PlayerBoat--><rect codeLine="21" fill="#FEFECE" filter="url(#f9epbk8oxk5sk)" height="48" id="PlayerBoat" style="stroke:#A80036;stroke-width:1.5;" width="99" x="1322.5" y="439"/><ellipse cx="1337.5" cy="455" fill="#ADD1B2" rx="11" ry="11" style="stroke:#A80036;stroke-width:1.0;"/><path d="M1340.4688,460.6406 Q1339.8906,460.9375 1339.25,461.0781 Q1338.6094,461.2344 1337.9063,461.2344 Q1335.4063,461.2344 1334.0781,459.5938 Q1332.7656,457.9375 1332.7656,454.8125 Q1332.7656,451.6875 1334.0781,450.0313 Q1335.4063,448.375 1337.9063,448.375 Q1338.6094,448.375 1339.25,448.5313 Q1339.9063,448.6875 1340.4688,448.9844 L1340.4688,451.7031 Q1339.8438,451.125 1339.25,450.8594 Q1338.6563,450.5781 1338.0313,450.5781 Q1336.6875,450.5781 1336,451.6563 Q1335.3125,452.7188 1335.3125,454.8125 Q1335.3125,456.9063 1336,457.9844 Q1336.6875,459.0469 1338.0313,459.0469 Q1338.6563,459.0469 1339.25,458.7813 Q1339.8438,458.5 1340.4688,457.9219 L1340.4688,460.6406 Z " fill="#000000"/><text fill="#000000" font-family="sans-serif" font-size="12" lengthAdjust="spacing" textLength="67" x="1351.5" y="459.1543">PlayerBoat</text><line style="stroke:#A80036;stroke-width:1.5;" x1="1323.5" x2="1420.5" y1="471" y2="471"/><line style="stroke:#A80036;stroke-width:1.5;" x1="1323.5" x2="1420.5" y1="479" y2="479"/><!--MD5=[e4faacc5b8aef66b11ab0c816bbbc7f8]
class Scene--><rect codeLine="22" fill="#FEFECE" filter="url(#f9epbk8oxk5sk)" height="48" id="Scene" style="stroke:#A80036;stroke-width:1.5;" width="71" x="1261.5" y="7"/><ellipse cx="1276.5" cy="23" fill="#B4A7E5" rx="11" ry="11" style="stroke:#A80036;stroke-width:1.0;"/><path d="M1272.4219,18.7656 L1272.4219,16.6094 L1279.8125,16.6094 L1279.8125,18.7656 L1277.3438,18.7656 L1277.3438,26.8438 L1279.8125,26.8438 L1279.8125,29 L1272.4219,29 L1272.4219,26.8438 L1274.8906,26.8438 L1274.8906,18.7656 L1272.4219,18.7656 Z " fill="#000000"/><text fill="#000000" font-family="sans-serif" font-size="12" font-style="italic" lengthAdjust="spacing" textLength="39" x="1290.5" y="27.1543">Scene</text><line style="stroke:#A80036;stroke-width:1.5;" x1="1262.5" x2="1331.5" y1="39" y2="39"/><line style="stroke:#A80036;stroke-width:1.5;" x1="1262.5" x2="1331.5" y1="47" y2="47"/><!--MD5=[b3b4ac0d5377cc5253bac1ff73b36524]
class SceneDifficulty--><rect codeLine="23" fill="#FEFECE" filter="url(#f9epbk8oxk5sk)" height="48" id="SceneDifficulty" style="stroke:#A80036;stroke-width:1.5;" width="123" x="1557.5" y="115"/><ellipse cx="1572.5" cy="131" fill="#ADD1B2" rx="11" ry="11" style="stroke:#A80036;stroke-width:1.0;"/><path d="M1575.4688,136.6406 Q1574.8906,136.9375 1574.25,137.0781 Q1573.6094,137.2344 1572.9063,137.2344 Q1570.4063,137.2344 1569.0781,135.5938 Q1567.7656,133.9375 1567.7656,130.8125 Q1567.7656,127.6875 1569.0781,126.0313 Q1570.4063,124.375 1572.9063,124.375 Q1573.6094,124.375 1574.25,124.5313 Q1574.9063,124.6875 1575.4688,124.9844 L1575.4688,127.7031 Q1574.8438,127.125 1574.25,126.8594 Q1573.6563,126.5781 1573.0313,126.5781 Q1571.6875,126.5781 1571,127.6563 Q1570.3125,128.7188 1570.3125,130.8125 Q1570.3125,132.9063 1571,133.9844 Q1571.6875,135.0469 1573.0313,135.0469 Q1573.6563,135.0469 1574.25,134.7813 Q1574.8438,134.5 1575.4688,133.9219 L1575.4688,136.6406 Z " fill="#000000"/><text fill="#000000" font-family="sans-serif" font-size="12" lengthAdjust="spacing" textLength="91" x="1586.5" y="135.1543">SceneDifficulty</text><line style="stroke:#A80036;stroke-width:1.5;" x1="1558.5" x2="1679.5" y1="147" y2="147"/><line style="stroke:#A80036;stroke-width:1.5;" x1="1558.5" x2="1679.5" y1="155" y2="155"/><!--MD5=[191f5a5662fedcdee87af3bba77ae1e5]
class SceneMainGame--><rect codeLine="24" fill="#FEFECE" filter="url(#f9epbk8oxk5sk)" height="48" id="SceneMainGame" style="stroke:#A80036;stroke-width:1.5;" width="136" x="1144" y="115"/><ellipse cx="1159" cy="131" fill="#ADD1B2" rx="11" ry="11" style="stroke:#A80036;stroke-width:1.0;"/><path d="M1161.9688,136.6406 Q1161.3906,136.9375 1160.75,137.0781 Q1160.1094,137.2344 1159.4063,137.2344 Q1156.9063,137.2344 1155.5781,135.5938 Q1154.2656,133.9375 1154.2656,130.8125 Q1154.2656,127.6875 1155.5781,126.0313 Q1156.9063,124.375 1159.4063,124.375 Q1160.1094,124.375 1160.75,124.5313 Q1161.4063,124.6875 1161.9688,124.9844 L1161.9688,127.7031 Q1161.3438,127.125 1160.75,126.8594 Q1160.1563,126.5781 1159.5313,126.5781 Q1158.1875,126.5781 1157.5,127.6563 Q1156.8125,128.7188 1156.8125,130.8125 Q1156.8125,132.9063 1157.5,133.9844 Q1158.1875,135.0469 1159.5313,135.0469 Q1160.1563,135.0469 1160.75,134.7813 Q1161.3438,134.5 1161.9688,133.9219 L1161.9688,136.6406 Z " fill="#000000"/><text fill="#000000" font-family="sans-serif" font-size="12" lengthAdjust="spacing" textLength="104" x="1173" y="135.1543">SceneMainGame</text><line style="stroke:#A80036;stroke-width:1.5;" x1="1145" x2="1279" y1="147" y2="147"/><line style="stroke:#A80036;stroke-width:1.5;" x1="1145" x2="1279" y1="155" y2="155"/><!--MD5=[10fad2eef0002dd70ab0ee7e095a83d7]
class SceneOptionsMenu--><rect codeLine="25" fill="#FEFECE" filter="url(#f9epbk8oxk5sk)" height="48" id="SceneOptionsMenu" style="stroke:#A80036;stroke-width:1.5;" width="153" x="298.5" y="115"/><ellipse cx="313.5" cy="131" fill="#ADD1B2" rx="11" ry="11" style="stroke:#A80036;stroke-width:1.0;"/><path d="M316.4688,136.6406 Q315.8906,136.9375 315.25,137.0781 Q314.6094,137.2344 313.9063,137.2344 Q311.4063,137.2344 310.0781,135.5938 Q308.7656,133.9375 308.7656,130.8125 Q308.7656,127.6875 310.0781,126.0313 Q311.4063,124.375 313.9063,124.375 Q314.6094,124.375 315.25,124.5313 Q315.9063,124.6875 316.4688,124.9844 L316.4688,127.7031 Q315.8438,127.125 315.25,126.8594 Q314.6563,126.5781 314.0313,126.5781 Q312.6875,126.5781 312,127.6563 Q311.3125,128.7188 311.3125,130.8125 Q311.3125,132.9063 312,133.9844 Q312.6875,135.0469 314.0313,135.0469 Q314.6563,135.0469 315.25,134.7813 Q315.8438,134.5 316.4688,133.9219 L316.4688,136.6406 Z " fill="#000000"/><text fill="#000000" font-family="sans-serif" font-size="12" lengthAdjust="spacing" textLength="121" x="327.5" y="135.1543">SceneOptionsMenu</text><line style="stroke:#A80036;stroke-width:1.5;" x1="299.5" x2="450.5" y1="147" y2="147"/><line style="stroke:#A80036;stroke-width:1.5;" x1="299.5" x2="450.5" y1="155" y2="155"/><!--MD5=[705050e7dc8a0f9ad873dfab94d81211]
class SceneStartScreen--><rect codeLine="26" fill="#FEFECE" filter="url(#f9epbk8oxk5sk)" height="48" id="SceneStartScreen" style="stroke:#A80036;stroke-width:1.5;" width="146" x="963" y="115"/><ellipse cx="978" cy="131" fill="#ADD1B2" rx="11" ry="11" style="stroke:#A80036;stroke-width:1.0;"/><path d="M980.9688,136.6406 Q980.3906,136.9375 979.75,137.0781 Q979.1094,137.2344 978.4063,137.2344 Q975.9063,137.2344 974.5781,135.5938 Q973.2656,133.9375 973.2656,130.8125 Q973.2656,127.6875 974.5781,126.0313 Q975.9063,124.375 978.4063,124.375 Q979.1094,124.375 979.75,124.5313 Q980.4063,124.6875 980.9688,124.9844 L980.9688,127.7031 Q980.3438,127.125 979.75,126.8594 Q979.1563,126.5781 978.5313,126.5781 Q977.1875,126.5781 976.5,127.6563 Q975.8125,128.7188 975.8125,130.8125 Q975.8125,132.9063 976.5,133.9844 Q977.1875,135.0469 978.5313,135.0469 Q979.1563,135.0469 979.75,134.7813 Q980.3438,134.5 980.9688,133.9219 L980.9688,136.6406 Z " fill="#000000"/><text fill="#000000" font-family="sans-serif" font-size="12" lengthAdjust="spacing" textLength="114" x="992" y="135.1543">SceneStartScreen</text><line style="stroke:#A80036;stroke-width:1.5;" x1="964" x2="1108" y1="147" y2="147"/><line style="stroke:#A80036;stroke-width:1.5;" x1="964" x2="1108" y1="155" y2="155"/><!--MD5=[eb8347e17286b04f108bb989edee2135]
class SceneTutorial--><rect codeLine="27" fill="#FEFECE" filter="url(#f9epbk8oxk5sk)" height="48" id="SceneTutorial" style="stroke:#A80036;stroke-width:1.5;" width="118" x="629" y="115"/><ellipse cx="644" cy="131" fill="#ADD1B2" rx="11" ry="11" style="stroke:#A80036;stroke-width:1.0;"/><path d="M646.9688,136.6406 Q646.3906,136.9375 645.75,137.0781 Q645.1094,137.2344 644.4063,137.2344 Q641.9063,137.2344 640.5781,135.5938 Q639.2656,133.9375 639.2656,130.8125 Q639.2656,127.6875 640.5781,126.0313 Q641.9063,124.375 644.4063,124.375 Q645.1094,124.375 645.75,124.5313 Q646.4063,124.6875 646.9688,124.9844 L646.9688,127.7031 Q646.3438,127.125 645.75,126.8594 Q645.1563,126.5781 644.5313,126.5781 Q643.1875,126.5781 642.5,127.6563 Q641.8125,128.7188 641.8125,130.8125 Q641.8125,132.9063 642.5,133.9844 Q643.1875,135.0469 644.5313,135.0469 Q645.1563,135.0469 645.75,134.7813 Q646.3438,134.5 646.9688,133.9219 L646.9688,136.6406 Z " fill="#000000"/><text fill="#000000" font-family="sans-serif" font-size="12" lengthAdjust="spacing" textLength="86" x="658" y="135.1543">SceneTutorial</text><line style="stroke:#A80036;stroke-width:1.5;" x1="630" x2="746" y1="147" y2="147"/><line style="stroke:#A80036;stroke-width:1.5;" x1="630" x2="746" y1="155" y2="155"/><!--MD5=[292687bb7eb5fe0d5f0b123bf926d4fb]
class SceneAwardScreen--><rect codeLine="28" fill="#FEFECE" filter="url(#f9epbk8oxk5sk)" height="48" id="SceneAwardScreen" style="stroke:#A80036;stroke-width:1.5;" width="153" x="1715.5" y="115"/><ellipse cx="1730.5" cy="131" fill="#ADD1B2" rx="11" ry="11" style="stroke:#A80036;stroke-width:1.0;"/><path d="M1733.4688,136.6406 Q1732.8906,136.9375 1732.25,137.0781 Q1731.6094,137.2344 1730.9063,137.2344 Q1728.4063,137.2344 1727.0781,135.5938 Q1725.7656,133.9375 1725.7656,130.8125 Q1725.7656,127.6875 1727.0781,126.0313 Q1728.4063,124.375 1730.9063,124.375 Q1731.6094,124.375 1732.25,124.5313 Q1732.9063,124.6875 1733.4688,124.9844 L1733.4688,127.7031 Q1732.8438,127.125 1732.25,126.8594 Q1731.6563,126.5781 1731.0313,126.5781 Q1729.6875,126.5781 1729,127.6563 Q1728.3125,128.7188 1728.3125,130.8125 Q1728.3125,132.9063 1729,133.9844 Q1729.6875,135.0469 1731.0313,135.0469 Q1731.6563,135.0469 1732.25,134.7813 Q1732.8438,134.5 1733.4688,133.9219 L1733.4688,136.6406 Z " fill="#000000"/><text fill="#000000" font-family="sans-serif" font-size="12" lengthAdjust="spacing" textLength="121" x="1744.5" y="135.1543">SceneAwardScreen</text><line style="stroke:#A80036;stroke-width:1.5;" x1="1716.5" x2="1867.5" y1="147" y2="147"/><line style="stroke:#A80036;stroke-width:1.5;" x1="1716.5" x2="1867.5" y1="155" y2="155"/><!--MD5=[5471448ac764769a8a042e87d31159a5]
class SceneGameOver--><rect codeLine="29" fill="#FEFECE" filter="url(#f9epbk8oxk5sk)" height="48" id="SceneGameOver" style="stroke:#A80036;stroke-width:1.5;" width="135" x="1315.5" y="115"/><ellipse cx="1330.5" cy="131" fill="#ADD1B2" rx="11" ry="11" style="stroke:#A80036;stroke-width:1.0;"/><path d="M1333.4688,136.6406 Q1332.8906,136.9375 1332.25,137.0781 Q1331.6094,137.2344 1330.9063,137.2344 Q1328.4063,137.2344 1327.0781,135.5938 Q1325.7656,133.9375 1325.7656,130.8125 Q1325.7656,127.6875 1327.0781,126.0313 Q1328.4063,124.375 1330.9063,124.375 Q1331.6094,124.375 1332.25,124.5313 Q1332.9063,124.6875 1333.4688,124.9844 L1333.4688,127.7031 Q1332.8438,127.125 1332.25,126.8594 Q1331.6563,126.5781 1331.0313,126.5781 Q1329.6875,126.5781 1329,127.6563 Q1328.3125,128.7188 1328.3125,130.8125 Q1328.3125,132.9063 1329,133.9844 Q1329.6875,135.0469 1331.0313,135.0469 Q1331.6563,135.0469 1332.25,134.7813 Q1332.8438,134.5 1333.4688,133.9219 L1333.4688,136.6406 Z " fill="#000000"/><text fill="#000000" font-family="sans-serif" font-size="12" lengthAdjust="spacing" textLength="103" x="1344.5" y="135.1543">SceneGameOver</text><line style="stroke:#A80036;stroke-width:1.5;" x1="1316.5" x2="1449.5" y1="147" y2="147"/><line style="stroke:#A80036;stroke-width:1.5;" x1="1316.5" x2="1449.5" y1="155" y2="155"/><!--MD5=[8b2b398dce0e1cff930c6759e8a8c711]
class SceneResultsScreen--><rect codeLine="30" fill="#FEFECE" filter="url(#f9epbk8oxk5sk)" height="48" id="SceneResultsScreen" style="stroke:#A80036;stroke-width:1.5;" width="161" x="1684.5" y="223"/><ellipse cx="1699.5" cy="239" fill="#ADD1B2" rx="11" ry="11" style="stroke:#A80036;stroke-width:1.0;"/><path d="M1702.4688,244.6406 Q1701.8906,244.9375 1701.25,245.0781 Q1700.6094,245.2344 1699.9063,245.2344 Q1697.4063,245.2344 1696.0781,243.5938 Q1694.7656,241.9375 1694.7656,238.8125 Q1694.7656,235.6875 1696.0781,234.0313 Q1697.4063,232.375 1699.9063,232.375 Q1700.6094,232.375 1701.25,232.5313 Q1701.9063,232.6875 1702.4688,232.9844 L1702.4688,235.7031 Q1701.8438,235.125 1701.25,234.8594 Q1700.6563,234.5781 1700.0313,234.5781 Q1698.6875,234.5781 1698,235.6563 Q1697.3125,236.7188 1697.3125,238.8125 Q1697.3125,240.9063 1698,241.9844 Q1698.6875,243.0469 1700.0313,243.0469 Q1700.6563,243.0469 1701.25,242.7813 Q1701.8438,242.5 1702.4688,241.9219 L1702.4688,244.6406 Z " fill="#000000"/><text fill="#000000" font-family="sans-serif" font-size="12" lengthAdjust="spacing" textLength="129" x="1713.5" y="243.1543">SceneResultsScreen</text><line style="stroke:#A80036;stroke-width:1.5;" x1="1685.5" x2="1844.5" y1="255" y2="255"/><line style="stroke:#A80036;stroke-width:1.5;" x1="1685.5" x2="1844.5" y1="263" y2="263"/><!--MD5=[4663939172911429a54d44baff5bb5c4]
class SceneLoadScreen--><rect codeLine="31" fill="#FEFECE" filter="url(#f9epbk8oxk5sk)" height="48" id="SceneLoadScreen" style="stroke:#A80036;stroke-width:1.5;" width="145" x="782.5" y="115"/><ellipse cx="797.5" cy="131" fill="#ADD1B2" rx="11" ry="11" style="stroke:#A80036;stroke-width:1.0;"/><path d="M800.4688,136.6406 Q799.8906,136.9375 799.25,137.0781 Q798.6094,137.2344 797.9063,137.2344 Q795.4063,137.2344 794.0781,135.5938 Q792.7656,133.9375 792.7656,130.8125 Q792.7656,127.6875 794.0781,126.0313 Q795.4063,124.375 797.9063,124.375 Q798.6094,124.375 799.25,124.5313 Q799.9063,124.6875 800.4688,124.9844 L800.4688,127.7031 Q799.8438,127.125 799.25,126.8594 Q798.6563,126.5781 798.0313,126.5781 Q796.6875,126.5781 796,127.6563 Q795.3125,128.7188 795.3125,130.8125 Q795.3125,132.9063 796,133.9844 Q796.6875,135.0469 798.0313,135.0469 Q798.6563,135.0469 799.25,134.7813 Q799.8438,134.5 800.4688,133.9219 L800.4688,136.6406 Z " fill="#000000"/><text fill="#000000" font-family="sans-serif" font-size="12" lengthAdjust="spacing" textLength="113" x="811.5" y="135.1543">SceneLoadScreen</text><line style="stroke:#A80036;stroke-width:1.5;" x1="783.5" x2="926.5" y1="147" y2="147"/><line style="stroke:#A80036;stroke-width:1.5;" x1="783.5" x2="926.5" y1="155" y2="155"/><!--MD5=[5750843ec52a4b67c1d9e2b786e74bc0]
class SceneSaveScreen--><rect codeLine="32" fill="#FEFECE" filter="url(#f9epbk8oxk5sk)" height="48" id="SceneSaveScreen" style="stroke:#A80036;stroke-width:1.5;" width="145" x="1348.5" y="223"/><ellipse cx="1363.5" cy="239" fill="#ADD1B2" rx="11" ry="11" style="stroke:#A80036;stroke-width:1.0;"/><path d="M1366.4688,244.6406 Q1365.8906,244.9375 1365.25,245.0781 Q1364.6094,245.2344 1363.9063,245.2344 Q1361.4063,245.2344 1360.0781,243.5938 Q1358.7656,241.9375 1358.7656,238.8125 Q1358.7656,235.6875 1360.0781,234.0313 Q1361.4063,232.375 1363.9063,232.375 Q1364.6094,232.375 1365.25,232.5313 Q1365.9063,232.6875 1366.4688,232.9844 L1366.4688,235.7031 Q1365.8438,235.125 1365.25,234.8594 Q1364.6563,234.5781 1364.0313,234.5781 Q1362.6875,234.5781 1362,235.6563 Q1361.3125,236.7188 1361.3125,238.8125 Q1361.3125,240.9063 1362,241.9844 Q1362.6875,243.0469 1364.0313,243.0469 Q1364.6563,243.0469 1365.25,242.7813 Q1365.8438,242.5 1366.4688,241.9219 L1366.4688,244.6406 Z " fill="#000000"/><text fill="#000000" font-family="sans-serif" font-size="12" lengthAdjust="spacing" textLength="113" x="1377.5" y="243.1543">SceneSaveScreen</text><line style="stroke:#A80036;stroke-width:1.5;" x1="1349.5" x2="1492.5" y1="255" y2="255"/><line style="stroke:#A80036;stroke-width:1.5;" x1="1349.5" x2="1492.5" y1="263" y2="263"/><!--MD5=[cc3de0a176daa3c4ec875deafdf5ddd1]
class Serializable--><rect codeLine="33" fill="#FEFECE" filter="url(#f9epbk8oxk5sk)" height="48" id="Serializable" style="stroke:#A80036;stroke-width:1.5;" width="103" x="160.5" y="115"/><ellipse cx="175.5" cy="131" fill="#B4A7E5" rx="11" ry="11" style="stroke:#A80036;stroke-width:1.0;"/><path d="M171.4219,126.7656 L171.4219,124.6094 L178.8125,124.6094 L178.8125,126.7656 L176.3438,126.7656 L176.3438,134.8438 L178.8125,134.8438 L178.8125,137 L171.4219,137 L171.4219,134.8438 L173.8906,134.8438 L173.8906,126.7656 L171.4219,126.7656 Z " fill="#000000"/><text fill="#000000" font-family="sans-serif" font-size="12" font-style="italic" lengthAdjust="spacing" textLength="71" x="189.5" y="135.1543">Serializable</text><line style="stroke:#A80036;stroke-width:1.5;" x1="161.5" x2="262.5" y1="147" y2="147"/><line style="stroke:#A80036;stroke-width:1.5;" x1="161.5" x2="262.5" y1="155" y2="155"/><!--MD5=[ddcb0def8caaeba08e48822c426b4854]
class SerializableGameObject--><rect codeLine="35" fill="#FEFECE" filter="url(#f9epbk8oxk5sk)" height="48" id="SerializableGameObject" style="stroke:#A80036;stroke-width:1.5;" width="178" x="175" y="331"/><ellipse cx="190" cy="347" fill="#ADD1B2" rx="11" ry="11" style="stroke:#A80036;stroke-width:1.0;"/><path d="M192.9688,352.6406 Q192.3906,352.9375 191.75,353.0781 Q191.1094,353.2344 190.4063,353.2344 Q187.9063,353.2344 186.5781,351.5938 Q185.2656,349.9375 185.2656,346.8125 Q185.2656,343.6875 186.5781,342.0313 Q187.9063,340.375 190.4063,340.375 Q191.1094,340.375 191.75,340.5313 Q192.4063,340.6875 192.9688,340.9844 L192.9688,343.7031 Q192.3438,343.125 191.75,342.8594 Q191.1563,342.5781 190.5313,342.5781 Q189.1875,342.5781 188.5,343.6563 Q187.8125,344.7188 187.8125,346.8125 Q187.8125,348.9063 188.5,349.9844 Q189.1875,351.0469 190.5313,351.0469 Q191.1563,351.0469 191.75,350.7813 Q192.3438,350.5 192.9688,349.9219 L192.9688,352.6406 Z " fill="#000000"/><text fill="#000000" font-family="sans-serif" font-size="12" lengthAdjust="spacing" textLength="146" x="204" y="351.1543">SerializableGameObject</text><line style="stroke:#A80036;stroke-width:1.5;" x1="176" x2="352" y1="363" y2="363"/><line style="stroke:#A80036;stroke-width:1.5;" x1="176" x2="352" y1="371" y2="371"/><!--MD5=[cd6ca9da01b2947ed5371bc0660d8ff3]
class ObjectType--><rect codeLine="36" fill="#FEFECE" filter="url(#f9epbk8oxk5sk)" height="48" id="ObjectType" style="stroke:#A80036;stroke-width:1.5;" width="101" x="38.5" y="331"/><ellipse cx="53.5" cy="347" fill="#EB937F" rx="11" ry="11" style="stroke:#A80036;stroke-width:1.0;"/><path d="M57.6094,353 L49.8906,353 L49.8906,340.6094 L57.6094,340.6094 L57.6094,342.7656 L52.3438,342.7656 L52.3438,345.4375 L57.1094,345.4375 L57.1094,347.5938 L52.3438,347.5938 L52.3438,350.8438 L57.6094,350.8438 L57.6094,353 Z " fill="#000000"/><text fill="#000000" font-family="sans-serif" font-size="12" lengthAdjust="spacing" textLength="69" x="67.5" y="351.1543">ObjectType</text><line style="stroke:#A80036;stroke-width:1.5;" x1="39.5" x2="138.5" y1="363" y2="363"/><line style="stroke:#A80036;stroke-width:1.5;" x1="39.5" x2="138.5" y1="371" y2="371"/><!--MD5=[67eb2a2e46f9471956d08809acd99ce2]
reverse link GameObject to MoveableObject--><path codeLine="39" d="M612.4683,167.7742 C655.7899,184.9754 710.2048,206.5813 751.2621,222.8835 " fill="none" id="GameObject-backto-MoveableObject" style="stroke:#A80036;stroke-width:1.0;"/><polygon fill="none" points="609.7435,174.224,593.7384,160.3373,614.91,161.2121,609.7435,174.224" style="stroke:#A80036;stroke-width:1.0;"/><!--MD5=[4dcd3dfe2fa9670111ad6516839d5bfa]
reverse link MoveableObject to Obstacle--><path codeLine="41" d="M727.8593,275.3975 C665.7225,296.3686 583.7248,324.0429 534.5885,340.6264 " fill="none" id="MoveableObject-backto-Obstacle" style="stroke:#A80036;stroke-width:1.0;"/><polygon fill="none" points="725.6692,268.7488,746.8575,268.9856,730.1461,282.0137,725.6692,268.7488" style="stroke:#A80036;stroke-width:1.0;"/><!--MD5=[5261a6ab5a16501f424602d3127a7c44]
reverse link CollisionObject to Obstacle--><path codeLine="42" d="M892.7643,271.0097 C750.5944,306.8043 604.9731,334.5424 534.5357,347.4006 " fill="none" id="CollisionObject-backto-Obstacle" style="stroke:#A80036;stroke-width:1.0;"/><polygon fill="none" points="891.2304,264.1769,912.3394,266.0233,894.6862,277.7437,891.2304,264.1769" style="stroke:#A80036;stroke-width:1.0;"/><!--MD5=[2447f226540ec9c560347afc2c55664a]
reverse link Obstacle to ObstacleBranch--><path codeLine="43" d="M459.0562,394.9767 C446.9169,409.7075 433.5449,425.9342 422.9067,438.8436 " fill="none" id="Obstacle-backto-ObstacleBranch" style="stroke:#A80036;stroke-width:1.0;"/><polygon fill="none" points="453.9054,390.2201,472.0267,379.2373,464.7095,399.1235,453.9054,390.2201" style="stroke:#A80036;stroke-width:1.0;"/><!--MD5=[74ea1e852bbb142d1f2055725197de01]
reverse link Obstacle to ObstacleDuck--><path codeLine="44" d="M429.6694,368.568 C359.4088,384.1843 241.9389,411.2645 142,439 C136.5336,440.5171 130.8687,442.1638 125.2092,443.8598 " fill="none" id="Obstacle-backto-ObstacleDuck" style="stroke:#A80036;stroke-width:1.0;"/><polygon fill="none" points="428.4212,361.675,449.4605,364.1953,431.4417,375.3454,428.4212,361.675" style="stroke:#A80036;stroke-width:1.0;"/><!--MD5=[d39e13981833993a391e28dcff3f4c08]
reverse link ObstacleBranch to ObstacleFloatingBranch--><path codeLine="45" d="M403,507.2911 C403,520.8171 403,535.1835 403,546.8436 " fill="none" id="ObstacleBranch-backto-ObstacleFloatingBranch" style="stroke:#A80036;stroke-width:1.0;"/><polygon fill="none" points="396.0001,507.2373,403,487.2373,410.0001,507.2373,396.0001,507.2373" style="stroke:#A80036;stroke-width:1.0;"/><!--MD5=[8e2ecfac9517fa4870172ee422e4ef6e]
reverse link Obstacle to ObstacleLaneWall--><path codeLine="46" d="M430.9079,380.2795 C388.098,397.9939 331.2329,421.5243 289.0991,438.959 " fill="none" id="Obstacle-backto-ObstacleLaneWall" style="stroke:#A80036;stroke-width:1.0;"/><polygon fill="none" points="428.3281,373.7714,449.485,372.5924,433.6811,386.7077,428.3281,373.7714" style="stroke:#A80036;stroke-width:1.0;"/><!--MD5=[298bff1c342649cb830efb293b769409]
reverse link MoveableObject to PowerUp--><path codeLine="48" d="M815.6909,291.2911 C816.8181,304.8171 818.0153,319.1835 818.987,330.8436 " fill="none" id="MoveableObject-backto-PowerUp" style="stroke:#A80036;stroke-width:1.0;"/><polygon fill="none" points="808.705,291.7496,814.0198,271.2373,822.6566,290.5869,808.705,291.7496" style="stroke:#A80036;stroke-width:1.0;"/><!--MD5=[d05f3ba7c416abf4098b182fdab41a58]
reverse link CollisionObject to PowerUp--><path codeLine="49" d="M922.3632,282.9788 C900.2178,298.7137 874.8272,316.7544 854.9979,330.8436 " fill="none" id="CollisionObject-backto-PowerUp" style="stroke:#A80036;stroke-width:1.0;"/><polygon fill="none" points="918.5301,277.1152,938.8882,271.2373,926.6391,288.5278,918.5301,277.1152" style="stroke:#A80036;stroke-width:1.0;"/><!--MD5=[16c5051b7bcfc3a101dc4c644fe178ab]
reverse link PowerUp to PowerUpEnergy--><path codeLine="50" d="M883.7181,377.1082 C885.8329,377.7599 887.9312,378.3926 890,379 C999.2232,411.0705 1028.9616,409.849 1139,439 C1144.7999,440.5365 1150.8138,442.1788 1156.833,443.8563 " fill="none" id="PowerUp-backto-PowerUpEnergy" style="stroke:#A80036;stroke-width:1.0;"/><polygon fill="none" points="881.4471,383.7306,864.5925,370.8883,885.777,370.417,881.4471,383.7306" style="stroke:#A80036;stroke-width:1.0;"/><!--MD5=[ae392a56f60e0b4744b70cc2bfb057c0]
reverse link PowerUp to PowerUpSpeed--><path codeLine="51" d="M852.4632,394.9767 C864.0569,409.7075 876.8279,425.9342 886.988,438.8436 " fill="none" id="PowerUp-backto-PowerUpSpeed" style="stroke:#A80036;stroke-width:1.0;"/><polygon fill="none" points="846.9443,399.2829,840.0757,379.2373,857.9457,390.6243,846.9443,399.2829" style="stroke:#A80036;stroke-width:1.0;"/><!--MD5=[054e8f4ab364f5efe309622673eae5b2]
reverse link PowerUp to PowerUpRotation--><path codeLine="52" d="M789.537,395.4524 C778.1786,410.0561 765.721,426.073 755.7883,438.8436 " fill="none" id="PowerUp-backto-PowerUpRotation" style="stroke:#A80036;stroke-width:1.0;"/><polygon fill="none" points="784.3444,390.7268,802.1488,379.2373,795.3954,399.322,784.3444,390.7268" style="stroke:#A80036;stroke-width:1.0;"/><!--MD5=[bb487c4031ab0cb225bb0e14c07f1b21]
reverse link PowerUp to PowerUpDrag--><path codeLine="53" d="M882.9382,382.6419 C921.8155,399.9921 971.4709,422.1523 1008.7864,438.8055 " fill="none" id="PowerUp-backto-PowerUpDrag" style="stroke:#A80036;stroke-width:1.0;"/><polygon fill="none" points="879.9552,388.9761,864.5442,374.433,885.6608,376.1915,879.9552,388.9761" style="stroke:#A80036;stroke-width:1.0;"/><!--MD5=[d21346eac00faed809b96df6e155989b]
reverse link PowerUp to PowerUpHealth--><path codeLine="54" d="M758.746,381.5748 C717.7027,399.0953 664.3754,421.8595 624.545,438.8622 " fill="none" id="PowerUp-backto-PowerUpHealth" style="stroke:#A80036;stroke-width:1.0;"/><polygon fill="none" points="756.0772,375.103,777.2196,373.6889,761.5737,387.9789,756.0772,375.103" style="stroke:#A80036;stroke-width:1.0;"/><!--MD5=[556f525838ff4f21499678df80e5dac3]
reverse link MoveableObject to Boat--><path codeLine="56" d="M896.608,271.3721 C1012.7783,303.4071 1127.6651,333.2728 1181.3368,347.1189 " fill="none" id="MoveableObject-backto-Boat" style="stroke:#A80036;stroke-width:1.0;"/><polygon fill="none" points="894.6142,278.0835,877.2048,266.0041,898.3472,264.5904,894.6142,278.0835" style="stroke:#A80036;stroke-width:1.0;"/><!--MD5=[02282af48b966665939bd48eb72da4be]
reverse link CollisionObject to Boat--><path codeLine="57" d="M1044.8026,279.4464 C1090.4453,300.0715 1147.1939,325.7152 1181.4559,341.1976 " fill="none" id="CollisionObject-backto-Boat" style="stroke:#A80036;stroke-width:1.0;"/><polygon fill="none" points="1041.6818,285.7177,1026.3388,271.1029,1047.4469,272.9598,1041.6818,285.7177" style="stroke:#A80036;stroke-width:1.0;"/><!--MD5=[98cb05a5852845d19943ffcf66c8c39b]
reverse link Boat to PlayerBoat--><path codeLine="58" d="M1259.6898,387.1906 C1284.2306,403.7556 1313.6471,423.6118 1336.2174,438.8467 " fill="none" id="Boat-backto-PlayerBoat" style="stroke:#A80036;stroke-width:1.0;"/><polygon fill="none" points="1255.5103,392.8149,1242.8496,375.8235,1263.3429,381.211,1255.5103,392.8149" style="stroke:#A80036;stroke-width:1.0;"/><!--MD5=[2f77c2c140af5a9927a9dd3039ffea70]
reverse link Boat to AIBoat--><path codeLine="59" d="M1261.8205,372.4033 C1308.0482,388.795 1378.6119,414.4365 1439,439 C1444.7969,441.358 1450.8972,443.9549 1456.8273,446.543 " fill="none" id="Boat-backto-AIBoat" style="stroke:#A80036;stroke-width:1.0;"/><polygon fill="none" points="1259.2456,378.9178,1242.7129,365.6637,1263.9025,365.715,1259.2456,378.9178" style="stroke:#A80036;stroke-width:1.0;"/><!--MD5=[a0aa917fa3c85539bb76fa1aa9e5e473]
reverse link Scene to SceneMainGame--><path codeLine="61" d="M1265.5368,70.9767 C1253.9431,85.7075 1241.1721,101.9342 1231.012,114.8436 " fill="none" id="Scene-backto-SceneMainGame" style="stroke:#A80036;stroke-width:1.0;"/><polygon fill="none" points="1260.0543,66.6243,1277.9243,55.2373,1271.0557,75.2829,1260.0543,66.6243" style="stroke:#A80036;stroke-width:1.0;"/><!--MD5=[f5866c8437053a6f5437e389243267e3]
reverse link Scene to SceneOptionsMenu--><path codeLine="62" d="M1240.8598,33.8057 C1106.602,41.1418 756.7233,63.9675 469,115 C463.3614,116.0001 457.5625,117.1579 451.7453,118.4138 " fill="none" id="Scene-backto-SceneOptionsMenu" style="stroke:#A80036;stroke-width:1.0;"/><polygon fill="none" points="1240.886,26.7945,1261.2296,32.7223,1241.6296,40.7747,1240.886,26.7945" style="stroke:#A80036;stroke-width:1.0;"/><!--MD5=[97fbcc543611354a47a07c5f8f6cae89]
reverse link Scene to SceneStartScreen--><path codeLine="63" d="M1242.6678,53.4823 C1199.3046,71.4257 1138.679,96.5121 1094.3044,114.874 " fill="none" id="Scene-backto-SceneStartScreen" style="stroke:#A80036;stroke-width:1.0;"/><polygon fill="none" points="1240.0995,46.9695,1261.2563,45.7905,1245.4525,59.9057,1240.0995,46.9695" style="stroke:#A80036;stroke-width:1.0;"/><!--MD5=[dc132ea77ed0156e517550f67054d034]
reverse link Scene to SceneTutorial--><path codeLine="64" d="M1241.3358,37.0827 C1143.9403,48.3252 936.6359,74.926 765,115 C759.1367,116.369 753.0706,117.9552 747.0354,119.647 " fill="none" id="Scene-backto-SceneTutorial" style="stroke:#A80036;stroke-width:1.0;"/><polygon fill="none" points="1240.8232,30.0961,1261.485,34.7963,1242.4018,44.0068,1240.8232,30.0961" style="stroke:#A80036;stroke-width:1.0;"/><!--MD5=[9e072197b2792edc590de9d690ff7a6d]
reverse link Scene to SceneDifficulty--><path codeLine="65" d="M1351.7654,49.3685 C1408.757,68.4837 1497.8261,98.3578 1557.2753,118.2973 " fill="none" id="Scene-backto-SceneDifficulty" style="stroke:#A80036;stroke-width:1.0;"/><polygon fill="none" points="1349.4258,55.9671,1332.6899,42.9705,1353.8778,42.6938,1349.4258,55.9671" style="stroke:#A80036;stroke-width:1.0;"/><!--MD5=[e394019d8e707edccadc7957d8c0d2a8]
reverse link Scene to SceneAwardScreen--><path codeLine="66" d="M1352.5267,41.8377 C1430.0802,57.155 1575.1391,86.4616 1698,115 C1703.6601,116.3147 1709.5019,117.711 1715.3735,119.1429 " fill="none" id="Scene-backto-SceneAwardScreen" style="stroke:#A80036;stroke-width:1.0;"/><polygon fill="none" points="1350.7895,48.6302,1332.5172,37.9006,1353.4924,34.8936,1350.7895,48.6302" style="stroke:#A80036;stroke-width:1.0;"/><!--MD5=[ee81c073ffd5b92ae3bdf6919cd75d13]
reverse link Scene to SceneGameOver--><path codeLine="67" d="M1328.8333,70.9767 C1340.5634,85.7075 1353.4847,101.9342 1363.7643,114.8436 " fill="none" id="Scene-backto-SceneGameOver" style="stroke:#A80036;stroke-width:1.0;"/><polygon fill="none" points="1323.2827,75.2434,1316.3001,55.2373,1334.2346,66.5224,1323.2827,75.2434" style="stroke:#A80036;stroke-width:1.0;"/><!--MD5=[7e39c84f1af1012627564284022932a9]
reverse link Scene to SceneResultsScreen--><path codeLine="68" d="M1352.6997,34.8401 C1492.8101,45.063 1851.2297,74.9191 1886,115 C1919.3078,153.395 1860.7139,196.5894 1814.0222,222.7913 " fill="none" id="Scene-backto-SceneResultsScreen" style="stroke:#A80036;stroke-width:1.0;"/><polygon fill="none" points="1351.9938,41.8076,1332.5454,33.3958,1352.9946,27.8434,1351.9938,41.8076" style="stroke:#A80036;stroke-width:1.0;"/><!--MD5=[f56170c7bb5fe1e4218f334a593bb3c2]
reverse link Scene to SceneLoadScreen--><path codeLine="69" d="M1241.6948,43.7229 C1172.2753,59.8019 1049.6098,88.5751 945,115 C939.3557,116.4258 933.5191,117.9252 927.6559,119.4492 " fill="none" id="Scene-backto-SceneLoadScreen" style="stroke:#A80036;stroke-width:1.0;"/><polygon fill="none" points="1240.3878,36.8405,1261.4504,39.157,1243.5404,50.4809,1240.3878,36.8405" style="stroke:#A80036;stroke-width:1.0;"/><!--MD5=[d5b94e3923de6cba27f8c198231f879e]
reverse link Scene to SceneSaveScreen--><path codeLine="70" d="M1352.163,41.9716 C1391.9204,53.0734 1442.8323,74.5965 1468,115 C1489.4791,149.4818 1462.9337,195.1485 1441.8803,222.7336 " fill="none" id="Scene-backto-SceneSaveScreen" style="stroke:#A80036;stroke-width:1.0;"/><polygon fill="none" points="1350.2865,48.7179,1332.5847,37.0712,1353.6859,35.1369,1350.2865,48.7179" style="stroke:#A80036;stroke-width:1.0;"/><!--MD5=[6774d3f715b13d27728f407867366100]
reverse link Serializable to GameState--><path codeLine="72" d="M191.6021,181.3649 C184.8239,195.4428 177.5123,210.6283 171.6309,222.8436 " fill="none" id="Serializable-backto-GameState" style="stroke:#A80036;stroke-width:1.0;"/><polygon fill="none" points="185.3468,178.2206,200.3302,163.2373,197.9608,184.2941,185.3468,178.2206" style="stroke:#A80036;stroke-width:1.0;"/><!--MD5=[df7dc5bf715dc72859b47f3e3e2f1e17]
reverse link Serializable to SerializableGameObject--><path codeLine="73" d="M222.5673,182.895 C233.3046,227.4962 249.5451,294.9567 258.1575,330.7309 " fill="none" id="Serializable-backto-SerializableGameObject" style="stroke:#A80036;stroke-width:1.0;"/><polygon fill="none" points="215.7396,184.4409,217.864,163.3581,229.3507,181.1641,215.7396,184.4409" style="stroke:#A80036;stroke-width:1.0;"/><!--MD5=[a4805e0ae02cde47a35b7df8b44072fa]
reverse link PixelBoat to SceneMainGame--><path codeLine="76" d="M829.4663,43.9079 C899.6401,59.8378 1021.8576,88.1236 1126,115 C1131.8536,116.5107 1137.9197,118.1181 1143.9975,119.7576 " fill="none" id="PixelBoat-backto-SceneMainGame" style="stroke:#A80036;stroke-width:1.0;"/><polygon fill="#A80036" points="816.5657,40.9856,821.5337,46.2124,828.2692,43.6368,823.3012,38.4101,816.5657,40.9856" style="stroke:#A80036;stroke-width:1.0;"/><text fill="#000000" font-family="sans-serif" font-size="13" lengthAdjust="spacing" textLength="8" x="824.6094" y="38.4752">1</text><text fill="#000000" font-family="sans-serif" font-size="13" lengthAdjust="spacing" textLength="8" x="1128.1222" y="113.9068">1</text><!--MD5=[f3c77e877333280ea32333856addcbe6]
reverse link PixelBoat to SceneOptionsMenu--><path codeLine="77" d="M714.4384,46.6591 C645.101,65.5216 528.3779,97.275 451.5125,118.1855 " fill="none" id="PixelBoat-backto-SceneOptionsMenu" style="stroke:#A80036;stroke-width:1.0;"/><polygon fill="#A80036" points="727.2308,43.179,720.3912,40.8944,715.6517,46.3292,722.4913,48.6138,727.2308,43.179" style="stroke:#A80036;stroke-width:1.0;"/><text fill="#000000" font-family="sans-serif" font-size="13" lengthAdjust="spacing" textLength="8" x="711.4582" y="58.3928">1</text><text fill="#000000" font-family="sans-serif" font-size="13" lengthAdjust="spacing" textLength="8" x="459.4379" y="112.4717">1</text><!--MD5=[43e0c177b5f6e6fc119675eb6fdb340f]
reverse link PixelBoat to SceneStartScreen--><path codeLine="78" d="M828.9372,54.2925 C872.665,72.1811 932.8543,96.804 977.0716,114.8929 " fill="none" id="PixelBoat-backto-SceneStartScreen" style="stroke:#A80036;stroke-width:1.0;"/><polygon fill="#A80036" points="816.784,49.3207,820.8227,55.2947,827.8905,53.8643,823.8518,47.8903,816.784,49.3207" style="stroke:#A80036;stroke-width:1.0;"/><text fill="#000000" font-family="sans-serif" font-size="13" lengthAdjust="spacing" textLength="8" x="824.559" y="65.5134">1</text><text fill="#000000" font-family="sans-serif" font-size="13" lengthAdjust="spacing" textLength="8" x="952.9462" y="103.8775">1</text><!--MD5=[81a756b288c897a1f2c95945e59f9d82]
reverse link PixelBoat to SceneTutorial--><path codeLine="79" d="M744.9175,65.8204 C732.4713,81.8226 718.0165,100.4073 706.7883,114.8436 " fill="none" id="PixelBoat-backto-SceneTutorial" style="stroke:#A80036;stroke-width:1.0;"/><polygon fill="#A80036" points="753.1488,55.2373,746.3078,57.5177,745.7815,64.7095,752.6226,62.4292,753.1488,55.2373" style="stroke:#A80036;stroke-width:1.0;"/><text fill="#000000" font-family="sans-serif" font-size="13" lengthAdjust="spacing" textLength="8" x="739.5788" y="75.0563">1</text><text fill="#000000" font-family="sans-serif" font-size="13" lengthAdjust="spacing" textLength="8" x="702.5778" y="103.8156">1</text><!--MD5=[c007ee29f40127c144abf6801e8b3522]
reverse link PixelBoat to SceneLoadScreen--><path codeLine="80" d="M798.7601,65.8204 C811.0581,81.8226 825.3408,100.4073 836.4353,114.8436 " fill="none" id="PixelBoat-backto-SceneLoadScreen" style="stroke:#A80036;stroke-width:1.0;"/><polygon fill="#A80036" points="790.6268,55.2373,791.1114,62.4321,797.9391,64.752,797.4545,57.5572,790.6268,55.2373" style="stroke:#A80036;stroke-width:1.0;"/><text fill="#000000" font-family="sans-serif" font-size="13" lengthAdjust="spacing" textLength="8" x="786.1921" y="75.0563">1</text><text fill="#000000" font-family="sans-serif" font-size="13" lengthAdjust="spacing" textLength="8" x="822.6531" y="103.8156">1</text><!--MD5=[82c176f830b657eb1d244a1a534d724b]
reverse link PixelBoat to GameState--><path codeLine="82" d="M713.811,34.4663 C565.1388,43.9129 180.3824,72.2935 143,115 C116.9761,144.7303 133.3036,193.6388 147.0151,222.8395 " fill="none" id="PixelBoat-backto-GameState" style="stroke:#A80036;stroke-width:1.0;"/><polygon fill="#A80036" points="727.027,33.6371,720.7883,30.0207,715.0506,34.3886,721.2893,38.005,727.027,33.6371" style="stroke:#A80036;stroke-width:1.0;"/><text fill="#000000" font-family="sans-serif" font-size="13" lengthAdjust="spacing" textLength="8" x="711.528" y="29.9695">1</text><text fill="#000000" font-family="sans-serif" font-size="13" lengthAdjust="spacing" textLength="8" x="134.6627" y="211.8104">1</text><!--MD5=[9956ec25f5cdc2df3ee74f0be5f0dcce]
reverse link BoatRace to Obstacle--><path codeLine="84" d="M615.7712,278.1765 C588.7652,294.9388 555.9662,315.2968 530.9187,330.8436 " fill="none" id="BoatRace-backto-Obstacle" style="stroke:#A80036;stroke-width:1.0;"/><polygon fill="#A80036" points="626.951,271.2373,619.7437,271.003,616.7554,277.5658,623.9627,277.8001,626.951,271.2373" style="stroke:#A80036;stroke-width:1.0;"/><text fill="#000000" font-family="sans-serif" font-size="13" lengthAdjust="spacing" textLength="8" x="608.4578" y="291.0563">1</text><text fill="#000000" font-family="sans-serif" font-size="13" lengthAdjust="spacing" textLength="23" x="514.9447" y="319.8156">0..*</text><!--MD5=[987fb3fc77ec8005e41d34febf688004]
reverse link BoatRace to PowerUp--><path codeLine="85" d="M711.7134,278.8519 C735.5825,295.4833 764.3174,315.5051 786.3311,330.8436 " fill="none" id="BoatRace-backto-PowerUp" style="stroke:#A80036;stroke-width:1.0;"/><polygon fill="#A80036" points="700.785,271.2373,703.4211,277.9493,710.6306,278.0976,707.9946,271.3856,700.785,271.2373" style="stroke:#A80036;stroke-width:1.0;"/><text fill="#000000" font-family="sans-serif" font-size="13" lengthAdjust="spacing" textLength="8" x="700.2888" y="291.0563">1</text><text fill="#000000" font-family="sans-serif" font-size="13" lengthAdjust="spacing" textLength="23" x="751.5003" y="319.8156">0..*</text><!--MD5=[dea9aff65749270c567862b6383c97c5]
reverse link SceneMainGame to BoatRace--><path codeLine="87" d="M1130.8996,161.9219 C1129.2544,162.293 1127.6199,162.6529 1126,163 C951.5121,200.3864 901.5879,177.644 729,223 C723.4532,224.4577 717.7218,226.2366 712.0795,228.1604 " fill="none" id="SceneMainGame-backto-BoatRace" style="stroke:#A80036;stroke-width:1.0;"/><polygon fill="#A80036" points="1143.6522,158.8858,1136.8889,156.3842,1131.9785,161.665,1138.7418,164.1667,1143.6522,158.8858" style="stroke:#A80036;stroke-width:1.0;"/><text fill="#000000" font-family="sans-serif" font-size="13" lengthAdjust="spacing" textLength="8" x="1128.1913" y="157.2368">1</text><text fill="#000000" font-family="sans-serif" font-size="13" lengthAdjust="spacing" textLength="8" x="720.0609" y="221.04">1</text><!--MD5=[d6a101e2663756f0c64d370b5dcb7656]
reverse link SceneMainGame to SceneResultsScreen--><path codeLine="88" d="M1293.1142,161.8596 C1294.7552,162.2496 1296.3851,162.6303 1298,163 C1432.5026,193.7924 1590.9207,220.2508 1684.3775,234.8643 " fill="none" id="SceneMainGame-backto-SceneResultsScreen" style="stroke:#A80036;stroke-width:1.0;"/><polygon fill="#A80036" points="1280.3866,158.7109,1285.2504,164.0348,1292.0354,161.5927,1287.1716,156.2689,1280.3866,158.7109" style="stroke:#A80036;stroke-width:1.0;"/><text fill="#000000" font-family="sans-serif" font-size="13" lengthAdjust="spacing" textLength="8" x="1287.8515" y="157.0439">1</text><text fill="#000000" font-family="sans-serif" font-size="13" lengthAdjust="spacing" textLength="8" x="1668.5764" y="230.1272">1</text><!--MD5=[4920121928632d1c55313bba7d983c59]
reverse link SceneMainGame to Boat--><path codeLine="89" d="M1212,176.3974 C1212,220.6866 1212,293.172 1212,330.7309 " fill="none" id="SceneMainGame-backto-Boat" style="stroke:#A80036;stroke-width:1.0;"/><polygon fill="#A80036" points="1212,163.3581,1208,169.3581,1212,175.3581,1216,169.3581,1212,163.3581" style="stroke:#A80036;stroke-width:1.0;"/><text fill="#000000" font-family="sans-serif" font-size="13" lengthAdjust="spacing" textLength="8" x="1203.025" y="183.2066">1</text><text fill="#000000" font-family="sans-serif" font-size="13" lengthAdjust="spacing" textLength="23" x="1186.1969" y="320.0703">1..*</text><!--MD5=[5e732c069ef9445006a29673c529473e]
reverse link SceneMainGame to GameState--><path codeLine="90" d="M1130.9276,162.0635 C1129.2739,162.3915 1127.6301,162.7043 1126,163 C947.4213,195.393 384.3478,232.811 211.1797,243.808 " fill="none" id="SceneMainGame-backto-GameState" style="stroke:#A80036;stroke-width:1.0;"/><polygon fill="#A80036" points="1143.7308,159.2834,1137.0187,156.6477,1132.0041,161.8298,1138.7162,164.4655,1143.7308,159.2834" style="stroke:#A80036;stroke-width:1.0;"/><text fill="#000000" font-family="sans-serif" font-size="13" lengthAdjust="spacing" textLength="8" x="1127.8264" y="174.3964">1</text><text fill="#000000" font-family="sans-serif" font-size="13" lengthAdjust="spacing" textLength="16" x="219.132" y="239.4471">0..</text><!--MD5=[6e5ca71cfca24ea3890b9aa1460a8021]
reverse link SceneMainGame to SceneSaveScreen--><path codeLine="91" d="M1270.3824,169.1689 C1303.2688,186.1628 1343.7777,207.0957 1374.499,222.9708 " fill="none" id="SceneMainGame-backto-SceneSaveScreen" style="stroke:#A80036;stroke-width:1.0;"/><polygon fill="#A80036" points="1258.6435,163.1029,1262.1376,169.4109,1269.3043,168.6118,1265.8102,162.3038,1258.6435,163.1029" style="stroke:#A80036;stroke-width:1.0;"/><text fill="#000000" font-family="sans-serif" font-size="13" lengthAdjust="spacing" textLength="8" x="1261.0379" y="182.8892">1</text><text fill="#000000" font-family="sans-serif" font-size="13" lengthAdjust="spacing" textLength="8" x="1353.5581" y="211.9754">1</text><!--MD5=[67b6a674f1d7d07ee52a4c24924bed86]
reverse link GameState to ObjectType--><path codeLine="93" d="M136.8049,282.2827 C126.3542,298.1796 114.2799,316.5461 104.8806,330.8436 " fill="none" id="GameState-backto-ObjectType" style="stroke:#A80036;stroke-width:1.0;"/><polygon fill="#A80036" points="144.0662,271.2373,137.4278,274.0536,137.4742,281.2645,144.1126,278.4483,144.0662,271.2373" style="stroke:#A80036;stroke-width:1.0;"/><text fill="#000000" font-family="sans-serif" font-size="13" lengthAdjust="spacing" textLength="8" x="131.2073" y="291.0563">1</text><text fill="#000000" font-family="sans-serif" font-size="13" lengthAdjust="spacing" textLength="8" x="99.925" y="319.8156">1</text><!--MD5=[4ea9ba8f7259d8fa3c5f4698750064ad]
reverse link GameState to SerializableGameObject--><path codeLine="94" d="M192.6446,280.9001 C208.2504,297.1062 226.5693,316.1297 240.7383,330.8436 " fill="none" id="GameState-backto-SerializableGameObject" style="stroke:#A80036;stroke-width:1.0;"/><polygon fill="#A80036" points="183.3396,271.2373,184.6202,278.3338,191.6633,279.8812,190.3827,272.7847,183.3396,271.2373" style="stroke:#A80036;stroke-width:1.0;"/><text fill="#000000" font-family="sans-serif" font-size="13" lengthAdjust="spacing" textLength="8" x="180.0536" y="291.0563">1</text><text fill="#000000" font-family="sans-serif" font-size="13" lengthAdjust="spacing" textLength="23" x="208.8306" y="319.8156">1..*</text><!--MD5=[fb1e0a30be4f7cf3976387db5b7d50d9]
reverse link CollisionObject to CollisionBounds--><path codeLine="96" d="M973,284.6145 C973,299.9531 973,317.2402 973,330.8436 " fill="none" id="CollisionObject-backto-CollisionBounds" style="stroke:#A80036;stroke-width:1.0;"/><polygon fill="#A80036" points="973,271.2373,969,277.2373,973,283.2373,977,277.2373,973,271.2373" style="stroke:#A80036;stroke-width:1.0;"/><text fill="#000000" font-family="sans-serif" font-size="13" lengthAdjust="spacing" textLength="8" x="964.025" y="291.0563">1</text><text fill="#000000" font-family="sans-serif" font-size="13" lengthAdjust="spacing" textLength="8" x="963.975" y="319.8156">1</text><!--MD5=[ceeb55fe0cc6c4bb965a2a459bd44fce]
@startuml
class AIBoat
abstract class Boat
class GameState
class BoatRace
class CollisionBounds
interface CollisionObject
abstract class GameObject
abstract class MoveableObject
abstract class Obstacle
abstract class PowerUp
class PowerUpSpeed
class PowerUpDrag
class PowerUpEnergy
class PowerUpHealth
class PowerUpRotation
class ObstacleBranch
class ObstacleDuck
class ObstacleFloatingBranch
class ObstacleLaneWall
class PixelBoat
class PlayerBoat
interface Scene
class SceneDifficulty
class SceneMainGame
class SceneOptionsMenu
class SceneStartScreen
class SceneTutorial
class SceneAwardScreen
class SceneGameOver
class SceneResultsScreen
class SceneLoadScreen
class SceneSaveScreen
interface Serializable
class GameState
class SerializableGameObject
enum ObjectType


GameObject <|- - MoveableObject

MoveableObject <|- - Obstacle
CollisionObject <|- - Obstacle
Obstacle <|- - ObstacleBranch
Obstacle <|- - ObstacleDuck
ObstacleBranch <|- - ObstacleFloatingBranch
Obstacle <|- - ObstacleLaneWall

MoveableObject <|- - PowerUp
CollisionObject <|- - PowerUp
PowerUp <|- - PowerUpEnergy
PowerUp <|- - PowerUpSpeed
PowerUp <|- - PowerUpRotation
PowerUp <|- - PowerUpDrag
PowerUp <|- - PowerUpHealth

MoveableObject <|- - Boat
CollisionObject <|- - Boat
Boat <|- - PlayerBoat
Boat <|- - AIBoat

Scene <|- - SceneMainGame
Scene <|- - SceneOptionsMenu
Scene <|- - SceneStartScreen
Scene <|- - SceneTutorial
Scene <|- - SceneDifficulty
Scene <|- - SceneAwardScreen
Scene <|- - SceneGameOver
Scene <|- - SceneResultsScreen
Scene <|- - SceneLoadScreen
Scene <|- - SceneSaveScreen

Serializable <|- - GameState
Serializable <|- - SerializableGameObject


PixelBoat "1" *- - "1" SceneMainGame
PixelBoat "1" *- - "1" SceneOptionsMenu
PixelBoat "1" *- - "1" SceneStartScreen
PixelBoat "1" *- - "1" SceneTutorial
PixelBoat "1" *- - "1" SceneLoadScreen

PixelBoat "1" *- - "1" GameState

BoatRace "1" *- - "0..*" Obstacle
BoatRace "1" *- - "0..*" PowerUp

SceneMainGame "1" *- - "1" BoatRace
SceneMainGame "1" *- - "1" SceneResultsScreen
SceneMainGame "1" *- - "1..*" Boat
SceneMainGame "1" *- - "0.." GameState
SceneMainGame "1" *- - "1" SceneSaveScreen

GameState "1" *- - "1" ObjectType
GameState "1" *- - "1..*" SerializableGameObject

CollisionObject "1" *- - "1" CollisionBounds
@enduml

PlantUML version 1.2021.00(Sun Jan 10 10:25:05 UTC 2021)
(GPL source distribution)
Java Runtime: OpenJDK Runtime Environment
JVM: OpenJDK 64-Bit Server VM
Default Encoding: UTF-8
Language: en
Country: null
--></g></svg>