<?xml version="1.0" encoding="UTF-8" standalone="no"?><svg xmlns="http://www.w3.org/2000/svg" xmlns:xlink="http://www.w3.org/1999/xlink" contentScriptType="application/ecmascript" contentStyleType="text/css" height="501px" preserveAspectRatio="none" style="width:2764px;height:501px;" version="1.1" viewBox="0 0 2764 501" width="2764px" zoomAndPan="magnify"><defs><filter height="300%" id="f1j7z5nt4jjv42" width="300%" x="-1" y="-1"><feGaussianBlur result="blurOut" stdDeviation="2.0"/><feColorMatrix in="blurOut" result="blurOut2" type="matrix" values="0 0 0 0 0 0 0 0 0 0 0 0 0 0 0 0 0 0 .4 0"/><feOffset dx="4.0" dy="4.0" in="blurOut2" result="blurOut3"/><feBlend in="SourceGraphic" in2="blurOut3" mode="normal"/></filter></defs><g><!--MD5=[18fb3b8b891fcc2cffdb0edb6f0580a1]
class AIBoat--><rect codeLine="1" fill="#FEFECE" filter="url(#f1j7z5nt4jjv42)" height="48" id="AIBoat" style="stroke:#A80036;stroke-width:1.5;" width="72" x="7" y="331"/><ellipse cx="22" cy="347" fill="#ADD1B2" rx="11" ry="11" style="stroke:#A80036;stroke-width:1.0;"/><path d="M24.9688,352.6406 Q24.3906,352.9375 23.75,353.0781 Q23.1094,353.2344 22.4063,353.2344 Q19.9063,353.2344 18.5781,351.5938 Q17.2656,349.9375 17.2656,346.8125 Q17.2656,343.6875 18.5781,342.0313 Q19.9063,340.375 22.4063,340.375 Q23.1094,340.375 23.75,340.5313 Q24.4063,340.6875 24.9688,340.9844 L24.9688,343.7031 Q24.3438,343.125 23.75,342.8594 Q23.1563,342.5781 22.5313,342.5781 Q21.1875,342.5781 20.5,343.6563 Q19.8125,344.7188 19.8125,346.8125 Q19.8125,348.9063 20.5,349.9844 Q21.1875,351.0469 22.5313,351.0469 Q23.1563,351.0469 23.75,350.7813 Q24.3438,350.5 24.9688,349.9219 L24.9688,352.6406 Z " fill="#000000"/><text fill="#000000" font-family="sans-serif" font-size="12" lengthAdjust="spacing" textLength="40" x="36" y="351.1543">AIBoat</text><line style="stroke:#A80036;stroke-width:1.5;" x1="8" x2="78" y1="363" y2="363"/><line style="stroke:#A80036;stroke-width:1.5;" x1="8" x2="78" y1="371" y2="371"/><!--MD5=[d7378ac8501ce6417ec16634b4f30c76]
class Boat--><rect codeLine="2" fill="#FEFECE" filter="url(#f1j7z5nt4jjv42)" height="48" id="Boat" style="stroke:#A80036;stroke-width:1.5;" width="61" x="309.5" y="223"/><ellipse cx="324.5" cy="239" fill="#A9DCDF" rx="11" ry="11" style="stroke:#A80036;stroke-width:1.0;"/><path d="M324.6094,234.3438 L323.4531,239.4219 L325.7813,239.4219 L324.6094,234.3438 Z M323.125,232.1094 L326.1094,232.1094 L329.4688,244.5 L327.0156,244.5 L326.25,241.4375 L322.9688,241.4375 L322.2188,244.5 L319.7813,244.5 L323.125,232.1094 Z " fill="#000000"/><text fill="#000000" font-family="sans-serif" font-size="12" font-style="italic" lengthAdjust="spacing" textLength="29" x="338.5" y="243.1543">Boat</text><line style="stroke:#A80036;stroke-width:1.5;" x1="310.5" x2="369.5" y1="255" y2="255"/><line style="stroke:#A80036;stroke-width:1.5;" x1="310.5" x2="369.5" y1="263" y2="263"/><!--MD5=[7ad87d4687b1c74665962eea80f8b40b]
class BoatRace--><rect codeLine="3" fill="#FEFECE" filter="url(#f1j7z5nt4jjv42)" height="48" id="BoatRace" style="stroke:#A80036;stroke-width:1.5;" width="92" x="85" y="7"/><ellipse cx="100" cy="23" fill="#ADD1B2" rx="11" ry="11" style="stroke:#A80036;stroke-width:1.0;"/><path d="M102.9688,28.6406 Q102.3906,28.9375 101.75,29.0781 Q101.1094,29.2344 100.4063,29.2344 Q97.9063,29.2344 96.5781,27.5938 Q95.2656,25.9375 95.2656,22.8125 Q95.2656,19.6875 96.5781,18.0313 Q97.9063,16.375 100.4063,16.375 Q101.1094,16.375 101.75,16.5313 Q102.4063,16.6875 102.9688,16.9844 L102.9688,19.7031 Q102.3438,19.125 101.75,18.8594 Q101.1563,18.5781 100.5313,18.5781 Q99.1875,18.5781 98.5,19.6563 Q97.8125,20.7188 97.8125,22.8125 Q97.8125,24.9063 98.5,25.9844 Q99.1875,27.0469 100.5313,27.0469 Q101.1563,27.0469 101.75,26.7813 Q102.3438,26.5 102.9688,25.9219 L102.9688,28.6406 Z " fill="#000000"/><text fill="#000000" font-family="sans-serif" font-size="12" lengthAdjust="spacing" textLength="60" x="114" y="27.1543">BoatRace</text><line style="stroke:#A80036;stroke-width:1.5;" x1="86" x2="176" y1="39" y2="39"/><line style="stroke:#A80036;stroke-width:1.5;" x1="86" x2="176" y1="47" y2="47"/><!--MD5=[48e88c162c5505361c629eb6ff3812a8]
class GameState--><rect codeLine="34" fill="#FEFECE" filter="url(#f1j7z5nt4jjv42)" height="48" id="GameState" style="stroke:#A80036;stroke-width:1.5;" width="102" x="668" y="115"/><ellipse cx="683" cy="131" fill="#ADD1B2" rx="11" ry="11" style="stroke:#A80036;stroke-width:1.0;"/><path d="M685.9688,136.6406 Q685.3906,136.9375 684.75,137.0781 Q684.1094,137.2344 683.4063,137.2344 Q680.9063,137.2344 679.5781,135.5938 Q678.2656,133.9375 678.2656,130.8125 Q678.2656,127.6875 679.5781,126.0313 Q680.9063,124.375 683.4063,124.375 Q684.1094,124.375 684.75,124.5313 Q685.4063,124.6875 685.9688,124.9844 L685.9688,127.7031 Q685.3438,127.125 684.75,126.8594 Q684.1563,126.5781 683.5313,126.5781 Q682.1875,126.5781 681.5,127.6563 Q680.8125,128.7188 680.8125,130.8125 Q680.8125,132.9063 681.5,133.9844 Q682.1875,135.0469 683.5313,135.0469 Q684.1563,135.0469 684.75,134.7813 Q685.3438,134.5 685.9688,133.9219 L685.9688,136.6406 Z " fill="#000000"/><text fill="#000000" font-family="sans-serif" font-size="12" lengthAdjust="spacing" textLength="70" x="697" y="135.1543">GameState</text><line style="stroke:#A80036;stroke-width:1.5;" x1="669" x2="769" y1="147" y2="147"/><line style="stroke:#A80036;stroke-width:1.5;" x1="669" x2="769" y1="155" y2="155"/><!--MD5=[dad577432b370c149ed719f544827710]
class CollisionBounds--><rect codeLine="5" fill="#FEFECE" filter="url(#f1j7z5nt4jjv42)" height="48" id="CollisionBounds" style="stroke:#A80036;stroke-width:1.5;" width="130" x="212" y="7"/><ellipse cx="227" cy="23" fill="#ADD1B2" rx="11" ry="11" style="stroke:#A80036;stroke-width:1.0;"/><path d="M229.9688,28.6406 Q229.3906,28.9375 228.75,29.0781 Q228.1094,29.2344 227.4063,29.2344 Q224.9063,29.2344 223.5781,27.5938 Q222.2656,25.9375 222.2656,22.8125 Q222.2656,19.6875 223.5781,18.0313 Q224.9063,16.375 227.4063,16.375 Q228.1094,16.375 228.75,16.5313 Q229.4063,16.6875 229.9688,16.9844 L229.9688,19.7031 Q229.3438,19.125 228.75,18.8594 Q228.1563,18.5781 227.5313,18.5781 Q226.1875,18.5781 225.5,19.6563 Q224.8125,20.7188 224.8125,22.8125 Q224.8125,24.9063 225.5,25.9844 Q226.1875,27.0469 227.5313,27.0469 Q228.1563,27.0469 228.75,26.7813 Q229.3438,26.5 229.9688,25.9219 L229.9688,28.6406 Z " fill="#000000"/><text fill="#000000" font-family="sans-serif" font-size="12" lengthAdjust="spacing" textLength="98" x="241" y="27.1543">CollisionBounds</text><line style="stroke:#A80036;stroke-width:1.5;" x1="213" x2="341" y1="39" y2="39"/><line style="stroke:#A80036;stroke-width:1.5;" x1="213" x2="341" y1="47" y2="47"/><!--MD5=[aacfa9e8a43f0443332ec4be3ea5f7a8]
class CollisionObject--><rect codeLine="6" fill="#FEFECE" filter="url(#f1j7z5nt4jjv42)" height="48" id="CollisionObject" style="stroke:#A80036;stroke-width:1.5;" width="121" x="346.5" y="115"/><ellipse cx="361.5" cy="131" fill="#B4A7E5" rx="11" ry="11" style="stroke:#A80036;stroke-width:1.0;"/><path d="M357.4219,126.7656 L357.4219,124.6094 L364.8125,124.6094 L364.8125,126.7656 L362.3438,126.7656 L362.3438,134.8438 L364.8125,134.8438 L364.8125,137 L357.4219,137 L357.4219,134.8438 L359.8906,134.8438 L359.8906,126.7656 L357.4219,126.7656 Z " fill="#000000"/><text fill="#000000" font-family="sans-serif" font-size="12" font-style="italic" lengthAdjust="spacing" textLength="89" x="375.5" y="135.1543">CollisionObject</text><line style="stroke:#A80036;stroke-width:1.5;" x1="347.5" x2="466.5" y1="147" y2="147"/><line style="stroke:#A80036;stroke-width:1.5;" x1="347.5" x2="466.5" y1="155" y2="155"/><!--MD5=[064f7a74fee85463ec1a30143664ee17]
class GameObject--><rect codeLine="7" fill="#FEFECE" filter="url(#f1j7z5nt4jjv42)" height="48" id="GameObject" style="stroke:#A80036;stroke-width:1.5;" width="107" x="514.5" y="7"/><ellipse cx="529.5" cy="23" fill="#A9DCDF" rx="11" ry="11" style="stroke:#A80036;stroke-width:1.0;"/><path d="M529.6094,18.3438 L528.4531,23.4219 L530.7813,23.4219 L529.6094,18.3438 Z M528.125,16.1094 L531.1094,16.1094 L534.4688,28.5 L532.0156,28.5 L531.25,25.4375 L527.9688,25.4375 L527.2188,28.5 L524.7813,28.5 L528.125,16.1094 Z " fill="#000000"/><text fill="#000000" font-family="sans-serif" font-size="12" font-style="italic" lengthAdjust="spacing" textLength="75" x="543.5" y="27.1543">GameObject</text><line style="stroke:#A80036;stroke-width:1.5;" x1="515.5" x2="620.5" y1="39" y2="39"/><line style="stroke:#A80036;stroke-width:1.5;" x1="515.5" x2="620.5" y1="47" y2="47"/><!--MD5=[fe88339b2988a1ef1c95b68c104d7624]
class MoveableObject--><rect codeLine="8" fill="#FEFECE" filter="url(#f1j7z5nt4jjv42)" height="48" id="MoveableObject" style="stroke:#A80036;stroke-width:1.5;" width="130" x="503" y="115"/><ellipse cx="518" cy="131" fill="#A9DCDF" rx="11" ry="11" style="stroke:#A80036;stroke-width:1.0;"/><path d="M518.1094,126.3438 L516.9531,131.4219 L519.2813,131.4219 L518.1094,126.3438 Z M516.625,124.1094 L519.6094,124.1094 L522.9688,136.5 L520.5156,136.5 L519.75,133.4375 L516.4688,133.4375 L515.7188,136.5 L513.2813,136.5 L516.625,124.1094 Z " fill="#000000"/><text fill="#000000" font-family="sans-serif" font-size="12" font-style="italic" lengthAdjust="spacing" textLength="98" x="532" y="135.1543">MoveableObject</text><line style="stroke:#A80036;stroke-width:1.5;" x1="504" x2="632" y1="147" y2="147"/><line style="stroke:#A80036;stroke-width:1.5;" x1="504" x2="632" y1="155" y2="155"/><!--MD5=[23868d926b4091f874f65c50fc3e197e]
class Obstacle--><rect codeLine="9" fill="#FEFECE" filter="url(#f1j7z5nt4jjv42)" height="48" id="Obstacle" style="stroke:#A80036;stroke-width:1.5;" width="85" x="431.5" y="223"/><ellipse cx="446.5" cy="239" fill="#A9DCDF" rx="11" ry="11" style="stroke:#A80036;stroke-width:1.0;"/><path d="M446.6094,234.3438 L445.4531,239.4219 L447.7813,239.4219 L446.6094,234.3438 Z M445.125,232.1094 L448.1094,232.1094 L451.4688,244.5 L449.0156,244.5 L448.25,241.4375 L444.9688,241.4375 L444.2188,244.5 L441.7813,244.5 L445.125,232.1094 Z " fill="#000000"/><text fill="#000000" font-family="sans-serif" font-size="12" font-style="italic" lengthAdjust="spacing" textLength="53" x="460.5" y="243.1543">Obstacle</text><line style="stroke:#A80036;stroke-width:1.5;" x1="432.5" x2="515.5" y1="255" y2="255"/><line style="stroke:#A80036;stroke-width:1.5;" x1="432.5" x2="515.5" y1="263" y2="263"/><!--MD5=[4547f04c185f2c4543cd5e5112560fdc]
class ObstacleBranch--><rect codeLine="10" fill="#FEFECE" filter="url(#f1j7z5nt4jjv42)" height="48" id="ObstacleBranch" style="stroke:#A80036;stroke-width:1.5;" width="131" x="248.5" y="331"/><ellipse cx="263.5" cy="347" fill="#ADD1B2" rx="11" ry="11" style="stroke:#A80036;stroke-width:1.0;"/><path d="M266.4688,352.6406 Q265.8906,352.9375 265.25,353.0781 Q264.6094,353.2344 263.9063,353.2344 Q261.4063,353.2344 260.0781,351.5938 Q258.7656,349.9375 258.7656,346.8125 Q258.7656,343.6875 260.0781,342.0313 Q261.4063,340.375 263.9063,340.375 Q264.6094,340.375 265.25,340.5313 Q265.9063,340.6875 266.4688,340.9844 L266.4688,343.7031 Q265.8438,343.125 265.25,342.8594 Q264.6563,342.5781 264.0313,342.5781 Q262.6875,342.5781 262,343.6563 Q261.3125,344.7188 261.3125,346.8125 Q261.3125,348.9063 262,349.9844 Q262.6875,351.0469 264.0313,351.0469 Q264.6563,351.0469 265.25,350.7813 Q265.8438,350.5 266.4688,349.9219 L266.4688,352.6406 Z " fill="#000000"/><text fill="#000000" font-family="sans-serif" font-size="12" lengthAdjust="spacing" textLength="99" x="277.5" y="351.1543">ObstacleBranch</text><line style="stroke:#A80036;stroke-width:1.5;" x1="249.5" x2="378.5" y1="363" y2="363"/><line style="stroke:#A80036;stroke-width:1.5;" x1="249.5" x2="378.5" y1="371" y2="371"/><!--MD5=[b19bd0575d5e9b89c418741af47506da]
class ObstacleDuck--><rect codeLine="11" fill="#FEFECE" filter="url(#f1j7z5nt4jjv42)" height="48" id="ObstacleDuck" style="stroke:#A80036;stroke-width:1.5;" width="118" x="415" y="331"/><ellipse cx="430" cy="347" fill="#ADD1B2" rx="11" ry="11" style="stroke:#A80036;stroke-width:1.0;"/><path d="M432.9688,352.6406 Q432.3906,352.9375 431.75,353.0781 Q431.1094,353.2344 430.4063,353.2344 Q427.9063,353.2344 426.5781,351.5938 Q425.2656,349.9375 425.2656,346.8125 Q425.2656,343.6875 426.5781,342.0313 Q427.9063,340.375 430.4063,340.375 Q431.1094,340.375 431.75,340.5313 Q432.4063,340.6875 432.9688,340.9844 L432.9688,343.7031 Q432.3438,343.125 431.75,342.8594 Q431.1563,342.5781 430.5313,342.5781 Q429.1875,342.5781 428.5,343.6563 Q427.8125,344.7188 427.8125,346.8125 Q427.8125,348.9063 428.5,349.9844 Q429.1875,351.0469 430.5313,351.0469 Q431.1563,351.0469 431.75,350.7813 Q432.3438,350.5 432.9688,349.9219 L432.9688,352.6406 Z " fill="#000000"/><text fill="#000000" font-family="sans-serif" font-size="12" lengthAdjust="spacing" textLength="86" x="444" y="351.1543">ObstacleDuck</text><line style="stroke:#A80036;stroke-width:1.5;" x1="416" x2="532" y1="363" y2="363"/><line style="stroke:#A80036;stroke-width:1.5;" x1="416" x2="532" y1="371" y2="371"/><!--MD5=[984dbebc17ca09c7aea9ae108686ba45]
class ObstacleFloatingBranch--><rect codeLine="12" fill="#FEFECE" filter="url(#f1j7z5nt4jjv42)" height="48" id="ObstacleFloatingBranch" style="stroke:#A80036;stroke-width:1.5;" width="181" x="223.5" y="439"/><ellipse cx="238.5" cy="455" fill="#ADD1B2" rx="11" ry="11" style="stroke:#A80036;stroke-width:1.0;"/><path d="M241.4688,460.6406 Q240.8906,460.9375 240.25,461.0781 Q239.6094,461.2344 238.9063,461.2344 Q236.4063,461.2344 235.0781,459.5938 Q233.7656,457.9375 233.7656,454.8125 Q233.7656,451.6875 235.0781,450.0313 Q236.4063,448.375 238.9063,448.375 Q239.6094,448.375 240.25,448.5313 Q240.9063,448.6875 241.4688,448.9844 L241.4688,451.7031 Q240.8438,451.125 240.25,450.8594 Q239.6563,450.5781 239.0313,450.5781 Q237.6875,450.5781 237,451.6563 Q236.3125,452.7188 236.3125,454.8125 Q236.3125,456.9063 237,457.9844 Q237.6875,459.0469 239.0313,459.0469 Q239.6563,459.0469 240.25,458.7813 Q240.8438,458.5 241.4688,457.9219 L241.4688,460.6406 Z " fill="#000000"/><text fill="#000000" font-family="sans-serif" font-size="12" lengthAdjust="spacing" textLength="149" x="252.5" y="459.1543">ObstacleFloatingBranch</text><line style="stroke:#A80036;stroke-width:1.5;" x1="224.5" x2="403.5" y1="471" y2="471"/><line style="stroke:#A80036;stroke-width:1.5;" x1="224.5" x2="403.5" y1="479" y2="479"/><!--MD5=[be48d278c37504bf038512057d0f5275]
class ObstacleLaneWall--><rect codeLine="13" fill="#FEFECE" filter="url(#f1j7z5nt4jjv42)" height="48" id="ObstacleLaneWall" style="stroke:#A80036;stroke-width:1.5;" width="142" x="568" y="331"/><ellipse cx="583" cy="347" fill="#ADD1B2" rx="11" ry="11" style="stroke:#A80036;stroke-width:1.0;"/><path d="M585.9688,352.6406 Q585.3906,352.9375 584.75,353.0781 Q584.1094,353.2344 583.4063,353.2344 Q580.9063,353.2344 579.5781,351.5938 Q578.2656,349.9375 578.2656,346.8125 Q578.2656,343.6875 579.5781,342.0313 Q580.9063,340.375 583.4063,340.375 Q584.1094,340.375 584.75,340.5313 Q585.4063,340.6875 585.9688,340.9844 L585.9688,343.7031 Q585.3438,343.125 584.75,342.8594 Q584.1563,342.5781 583.5313,342.5781 Q582.1875,342.5781 581.5,343.6563 Q580.8125,344.7188 580.8125,346.8125 Q580.8125,348.9063 581.5,349.9844 Q582.1875,351.0469 583.5313,351.0469 Q584.1563,351.0469 584.75,350.7813 Q585.3438,350.5 585.9688,349.9219 L585.9688,352.6406 Z " fill="#000000"/><text fill="#000000" font-family="sans-serif" font-size="12" lengthAdjust="spacing" textLength="110" x="597" y="351.1543">ObstacleLaneWall</text><line style="stroke:#A80036;stroke-width:1.5;" x1="569" x2="709" y1="363" y2="363"/><line style="stroke:#A80036;stroke-width:1.5;" x1="569" x2="709" y1="371" y2="371"/><!--MD5=[6e59e257303d1e16cb6f7f17f2110772]
class PowerUp--><rect codeLine="14" fill="#FEFECE" filter="url(#f1j7z5nt4jjv42)" height="48" id="PowerUp" style="stroke:#A80036;stroke-width:1.5;" width="87" x="922.5" y="223"/><ellipse cx="937.5" cy="239" fill="#A9DCDF" rx="11" ry="11" style="stroke:#A80036;stroke-width:1.0;"/><path d="M937.6094,234.3438 L936.4531,239.4219 L938.7813,239.4219 L937.6094,234.3438 Z M936.125,232.1094 L939.1094,232.1094 L942.4688,244.5 L940.0156,244.5 L939.25,241.4375 L935.9688,241.4375 L935.2188,244.5 L932.7813,244.5 L936.125,232.1094 Z " fill="#000000"/><text fill="#000000" font-family="sans-serif" font-size="12" font-style="italic" lengthAdjust="spacing" textLength="55" x="951.5" y="243.1543">PowerUp</text><line style="stroke:#A80036;stroke-width:1.5;" x1="923.5" x2="1008.5" y1="255" y2="255"/><line style="stroke:#A80036;stroke-width:1.5;" x1="923.5" x2="1008.5" y1="263" y2="263"/><!--MD5=[70eb40ec4e98294ad6befc3105d328c0]
class PowerUpSpeed--><rect codeLine="15" fill="#FEFECE" filter="url(#f1j7z5nt4jjv42)" height="48" id="PowerUpSpeed" style="stroke:#A80036;stroke-width:1.5;" width="127" x="745.5" y="331"/><ellipse cx="760.5" cy="347" fill="#ADD1B2" rx="11" ry="11" style="stroke:#A80036;stroke-width:1.0;"/><path d="M763.4688,352.6406 Q762.8906,352.9375 762.25,353.0781 Q761.6094,353.2344 760.9063,353.2344 Q758.4063,353.2344 757.0781,351.5938 Q755.7656,349.9375 755.7656,346.8125 Q755.7656,343.6875 757.0781,342.0313 Q758.4063,340.375 760.9063,340.375 Q761.6094,340.375 762.25,340.5313 Q762.9063,340.6875 763.4688,340.9844 L763.4688,343.7031 Q762.8438,343.125 762.25,342.8594 Q761.6563,342.5781 761.0313,342.5781 Q759.6875,342.5781 759,343.6563 Q758.3125,344.7188 758.3125,346.8125 Q758.3125,348.9063 759,349.9844 Q759.6875,351.0469 761.0313,351.0469 Q761.6563,351.0469 762.25,350.7813 Q762.8438,350.5 763.4688,349.9219 L763.4688,352.6406 Z " fill="#000000"/><text fill="#000000" font-family="sans-serif" font-size="12" lengthAdjust="spacing" textLength="95" x="774.5" y="351.1543">PowerUpSpeed</text><line style="stroke:#A80036;stroke-width:1.5;" x1="746.5" x2="871.5" y1="363" y2="363"/><line style="stroke:#A80036;stroke-width:1.5;" x1="746.5" x2="871.5" y1="371" y2="371"/><!--MD5=[25e00a08e13561d55d72e4d01232f4bf]
class PowerUpDrag--><rect codeLine="16" fill="#FEFECE" filter="url(#f1j7z5nt4jjv42)" height="48" id="PowerUpDrag" style="stroke:#A80036;stroke-width:1.5;" width="117" x="907.5" y="331"/><ellipse cx="922.5" cy="347" fill="#ADD1B2" rx="11" ry="11" style="stroke:#A80036;stroke-width:1.0;"/><path d="M925.4688,352.6406 Q924.8906,352.9375 924.25,353.0781 Q923.6094,353.2344 922.9063,353.2344 Q920.4063,353.2344 919.0781,351.5938 Q917.7656,349.9375 917.7656,346.8125 Q917.7656,343.6875 919.0781,342.0313 Q920.4063,340.375 922.9063,340.375 Q923.6094,340.375 924.25,340.5313 Q924.9063,340.6875 925.4688,340.9844 L925.4688,343.7031 Q924.8438,343.125 924.25,342.8594 Q923.6563,342.5781 923.0313,342.5781 Q921.6875,342.5781 921,343.6563 Q920.3125,344.7188 920.3125,346.8125 Q920.3125,348.9063 921,349.9844 Q921.6875,351.0469 923.0313,351.0469 Q923.6563,351.0469 924.25,350.7813 Q924.8438,350.5 925.4688,349.9219 L925.4688,352.6406 Z " fill="#000000"/><text fill="#000000" font-family="sans-serif" font-size="12" lengthAdjust="spacing" textLength="85" x="936.5" y="351.1543">PowerUpDrag</text><line style="stroke:#A80036;stroke-width:1.5;" x1="908.5" x2="1023.5" y1="363" y2="363"/><line style="stroke:#A80036;stroke-width:1.5;" x1="908.5" x2="1023.5" y1="371" y2="371"/><!--MD5=[baa69d73fe455a6639bca7ddb1d35c15]
class PowerUpEnergy--><rect codeLine="17" fill="#FEFECE" filter="url(#f1j7z5nt4jjv42)" height="48" id="PowerUpEnergy" style="stroke:#A80036;stroke-width:1.5;" width="130" x="1060" y="331"/><ellipse cx="1075" cy="347" fill="#ADD1B2" rx="11" ry="11" style="stroke:#A80036;stroke-width:1.0;"/><path d="M1077.9688,352.6406 Q1077.3906,352.9375 1076.75,353.0781 Q1076.1094,353.2344 1075.4063,353.2344 Q1072.9063,353.2344 1071.5781,351.5938 Q1070.2656,349.9375 1070.2656,346.8125 Q1070.2656,343.6875 1071.5781,342.0313 Q1072.9063,340.375 1075.4063,340.375 Q1076.1094,340.375 1076.75,340.5313 Q1077.4063,340.6875 1077.9688,340.9844 L1077.9688,343.7031 Q1077.3438,343.125 1076.75,342.8594 Q1076.1563,342.5781 1075.5313,342.5781 Q1074.1875,342.5781 1073.5,343.6563 Q1072.8125,344.7188 1072.8125,346.8125 Q1072.8125,348.9063 1073.5,349.9844 Q1074.1875,351.0469 1075.5313,351.0469 Q1076.1563,351.0469 1076.75,350.7813 Q1077.3438,350.5 1077.9688,349.9219 L1077.9688,352.6406 Z " fill="#000000"/><text fill="#000000" font-family="sans-serif" font-size="12" lengthAdjust="spacing" textLength="98" x="1089" y="351.1543">PowerUpEnergy</text><line style="stroke:#A80036;stroke-width:1.5;" x1="1061" x2="1189" y1="363" y2="363"/><line style="stroke:#A80036;stroke-width:1.5;" x1="1061" x2="1189" y1="371" y2="371"/><!--MD5=[bb1664ab83e59acad550b7a0f7ef2002]
class PowerUpHealth--><rect codeLine="18" fill="#FEFECE" filter="url(#f1j7z5nt4jjv42)" height="48" id="PowerUpHealth" style="stroke:#A80036;stroke-width:1.5;" width="128" x="1225" y="331"/><ellipse cx="1240" cy="347" fill="#ADD1B2" rx="11" ry="11" style="stroke:#A80036;stroke-width:1.0;"/><path d="M1242.9688,352.6406 Q1242.3906,352.9375 1241.75,353.0781 Q1241.1094,353.2344 1240.4063,353.2344 Q1237.9063,353.2344 1236.5781,351.5938 Q1235.2656,349.9375 1235.2656,346.8125 Q1235.2656,343.6875 1236.5781,342.0313 Q1237.9063,340.375 1240.4063,340.375 Q1241.1094,340.375 1241.75,340.5313 Q1242.4063,340.6875 1242.9688,340.9844 L1242.9688,343.7031 Q1242.3438,343.125 1241.75,342.8594 Q1241.1563,342.5781 1240.5313,342.5781 Q1239.1875,342.5781 1238.5,343.6563 Q1237.8125,344.7188 1237.8125,346.8125 Q1237.8125,348.9063 1238.5,349.9844 Q1239.1875,351.0469 1240.5313,351.0469 Q1241.1563,351.0469 1241.75,350.7813 Q1242.3438,350.5 1242.9688,349.9219 L1242.9688,352.6406 Z " fill="#000000"/><text fill="#000000" font-family="sans-serif" font-size="12" lengthAdjust="spacing" textLength="96" x="1254" y="351.1543">PowerUpHealth</text><line style="stroke:#A80036;stroke-width:1.5;" x1="1226" x2="1352" y1="363" y2="363"/><line style="stroke:#A80036;stroke-width:1.5;" x1="1226" x2="1352" y1="371" y2="371"/><!--MD5=[95b81e5cbf3fae420eb8d85a4728edbb]
class PowerUpRotation--><rect codeLine="19" fill="#FEFECE" filter="url(#f1j7z5nt4jjv42)" height="48" id="PowerUpRotation" style="stroke:#A80036;stroke-width:1.5;" width="140" x="1388" y="331"/><ellipse cx="1403" cy="347" fill="#ADD1B2" rx="11" ry="11" style="stroke:#A80036;stroke-width:1.0;"/><path d="M1405.9688,352.6406 Q1405.3906,352.9375 1404.75,353.0781 Q1404.1094,353.2344 1403.4063,353.2344 Q1400.9063,353.2344 1399.5781,351.5938 Q1398.2656,349.9375 1398.2656,346.8125 Q1398.2656,343.6875 1399.5781,342.0313 Q1400.9063,340.375 1403.4063,340.375 Q1404.1094,340.375 1404.75,340.5313 Q1405.4063,340.6875 1405.9688,340.9844 L1405.9688,343.7031 Q1405.3438,343.125 1404.75,342.8594 Q1404.1563,342.5781 1403.5313,342.5781 Q1402.1875,342.5781 1401.5,343.6563 Q1400.8125,344.7188 1400.8125,346.8125 Q1400.8125,348.9063 1401.5,349.9844 Q1402.1875,351.0469 1403.5313,351.0469 Q1404.1563,351.0469 1404.75,350.7813 Q1405.3438,350.5 1405.9688,349.9219 L1405.9688,352.6406 Z " fill="#000000"/><text fill="#000000" font-family="sans-serif" font-size="12" lengthAdjust="spacing" textLength="108" x="1417" y="351.1543">PowerUpRotation</text><line style="stroke:#A80036;stroke-width:1.5;" x1="1389" x2="1527" y1="363" y2="363"/><line style="stroke:#A80036;stroke-width:1.5;" x1="1389" x2="1527" y1="371" y2="371"/><!--MD5=[3c83b70202e58b87ef51d700e986ab12]
class PixelBoat--><rect codeLine="20" fill="#FEFECE" filter="url(#f1j7z5nt4jjv42)" height="48" id="PixelBoat" style="stroke:#A80036;stroke-width:1.5;" width="89" x="86.5" y="115"/><ellipse cx="101.5" cy="131" fill="#ADD1B2" rx="11" ry="11" style="stroke:#A80036;stroke-width:1.0;"/><path d="M104.4688,136.6406 Q103.8906,136.9375 103.25,137.0781 Q102.6094,137.2344 101.9063,137.2344 Q99.4063,137.2344 98.0781,135.5938 Q96.7656,133.9375 96.7656,130.8125 Q96.7656,127.6875 98.0781,126.0313 Q99.4063,124.375 101.9063,124.375 Q102.6094,124.375 103.25,124.5313 Q103.9063,124.6875 104.4688,124.9844 L104.4688,127.7031 Q103.8438,127.125 103.25,126.8594 Q102.6563,126.5781 102.0313,126.5781 Q100.6875,126.5781 100,127.6563 Q99.3125,128.7188 99.3125,130.8125 Q99.3125,132.9063 100,133.9844 Q100.6875,135.0469 102.0313,135.0469 Q102.6563,135.0469 103.25,134.7813 Q103.8438,134.5 104.4688,133.9219 L104.4688,136.6406 Z " fill="#000000"/><text fill="#000000" font-family="sans-serif" font-size="12" lengthAdjust="spacing" textLength="57" x="115.5" y="135.1543">PixelBoat</text><line style="stroke:#A80036;stroke-width:1.5;" x1="87.5" x2="174.5" y1="147" y2="147"/><line style="stroke:#A80036;stroke-width:1.5;" x1="87.5" x2="174.5" y1="155" y2="155"/><!--MD5=[8b809054524057386b660902a6971129]
class PlayerBoat--><rect codeLine="21" fill="#FEFECE" filter="url(#f1j7z5nt4jjv42)" height="48" id="PlayerBoat" style="stroke:#A80036;stroke-width:1.5;" width="99" x="114.5" y="331"/><ellipse cx="129.5" cy="347" fill="#ADD1B2" rx="11" ry="11" style="stroke:#A80036;stroke-width:1.0;"/><path d="M132.4688,352.6406 Q131.8906,352.9375 131.25,353.0781 Q130.6094,353.2344 129.9063,353.2344 Q127.4063,353.2344 126.0781,351.5938 Q124.7656,349.9375 124.7656,346.8125 Q124.7656,343.6875 126.0781,342.0313 Q127.4063,340.375 129.9063,340.375 Q130.6094,340.375 131.25,340.5313 Q131.9063,340.6875 132.4688,340.9844 L132.4688,343.7031 Q131.8438,343.125 131.25,342.8594 Q130.6563,342.5781 130.0313,342.5781 Q128.6875,342.5781 128,343.6563 Q127.3125,344.7188 127.3125,346.8125 Q127.3125,348.9063 128,349.9844 Q128.6875,351.0469 130.0313,351.0469 Q130.6563,351.0469 131.25,350.7813 Q131.8438,350.5 132.4688,349.9219 L132.4688,352.6406 Z " fill="#000000"/><text fill="#000000" font-family="sans-serif" font-size="12" lengthAdjust="spacing" textLength="67" x="143.5" y="351.1543">PlayerBoat</text><line style="stroke:#A80036;stroke-width:1.5;" x1="115.5" x2="212.5" y1="363" y2="363"/><line style="stroke:#A80036;stroke-width:1.5;" x1="115.5" x2="212.5" y1="371" y2="371"/><!--MD5=[8b2b398dce0e1cff930c6759e8a8c711]
class SceneResultsScreen--><rect codeLine="22" fill="#FEFECE" filter="url(#f1j7z5nt4jjv42)" height="48" id="SceneResultsScreen" style="stroke:#A80036;stroke-width:1.5;" width="161" x="1018.5" y="115"/><ellipse cx="1033.5" cy="131" fill="#ADD1B2" rx="11" ry="11" style="stroke:#A80036;stroke-width:1.0;"/><path d="M1036.4688,136.6406 Q1035.8906,136.9375 1035.25,137.0781 Q1034.6094,137.2344 1033.9063,137.2344 Q1031.4063,137.2344 1030.0781,135.5938 Q1028.7656,133.9375 1028.7656,130.8125 Q1028.7656,127.6875 1030.0781,126.0313 Q1031.4063,124.375 1033.9063,124.375 Q1034.6094,124.375 1035.25,124.5313 Q1035.9063,124.6875 1036.4688,124.9844 L1036.4688,127.7031 Q1035.8438,127.125 1035.25,126.8594 Q1034.6563,126.5781 1034.0313,126.5781 Q1032.6875,126.5781 1032,127.6563 Q1031.3125,128.7188 1031.3125,130.8125 Q1031.3125,132.9063 1032,133.9844 Q1032.6875,135.0469 1034.0313,135.0469 Q1034.6563,135.0469 1035.25,134.7813 Q1035.8438,134.5 1036.4688,133.9219 L1036.4688,136.6406 Z " fill="#000000"/><text fill="#000000" font-family="sans-serif" font-size="12" lengthAdjust="spacing" textLength="129" x="1047.5" y="135.1543">SceneResultsScreen</text><line style="stroke:#A80036;stroke-width:1.5;" x1="1019.5" x2="1178.5" y1="147" y2="147"/><line style="stroke:#A80036;stroke-width:1.5;" x1="1019.5" x2="1178.5" y1="155" y2="155"/><!--MD5=[e4faacc5b8aef66b11ab0c816bbbc7f8]
class Scene--><rect codeLine="23" fill="#FEFECE" filter="url(#f1j7z5nt4jjv42)" height="48" id="Scene" style="stroke:#A80036;stroke-width:1.5;" width="71" x="1853.5" y="7"/><ellipse cx="1868.5" cy="23" fill="#B4A7E5" rx="11" ry="11" style="stroke:#A80036;stroke-width:1.0;"/><path d="M1864.4219,18.7656 L1864.4219,16.6094 L1871.8125,16.6094 L1871.8125,18.7656 L1869.3438,18.7656 L1869.3438,26.8438 L1871.8125,26.8438 L1871.8125,29 L1864.4219,29 L1864.4219,26.8438 L1866.8906,26.8438 L1866.8906,18.7656 L1864.4219,18.7656 Z " fill="#000000"/><text fill="#000000" font-family="sans-serif" font-size="12" font-style="italic" lengthAdjust="spacing" textLength="39" x="1882.5" y="27.1543">Scene</text><line style="stroke:#A80036;stroke-width:1.5;" x1="1854.5" x2="1923.5" y1="39" y2="39"/><line style="stroke:#A80036;stroke-width:1.5;" x1="1854.5" x2="1923.5" y1="47" y2="47"/><!--MD5=[b3b4ac0d5377cc5253bac1ff73b36524]
class SceneDifficulty--><rect codeLine="24" fill="#FEFECE" filter="url(#f1j7z5nt4jjv42)" height="48" id="SceneDifficulty" style="stroke:#A80036;stroke-width:1.5;" width="123" x="1214.5" y="115"/><ellipse cx="1229.5" cy="131" fill="#ADD1B2" rx="11" ry="11" style="stroke:#A80036;stroke-width:1.0;"/><path d="M1232.4688,136.6406 Q1231.8906,136.9375 1231.25,137.0781 Q1230.6094,137.2344 1229.9063,137.2344 Q1227.4063,137.2344 1226.0781,135.5938 Q1224.7656,133.9375 1224.7656,130.8125 Q1224.7656,127.6875 1226.0781,126.0313 Q1227.4063,124.375 1229.9063,124.375 Q1230.6094,124.375 1231.25,124.5313 Q1231.9063,124.6875 1232.4688,124.9844 L1232.4688,127.7031 Q1231.8438,127.125 1231.25,126.8594 Q1230.6563,126.5781 1230.0313,126.5781 Q1228.6875,126.5781 1228,127.6563 Q1227.3125,128.7188 1227.3125,130.8125 Q1227.3125,132.9063 1228,133.9844 Q1228.6875,135.0469 1230.0313,135.0469 Q1230.6563,135.0469 1231.25,134.7813 Q1231.8438,134.5 1232.4688,133.9219 L1232.4688,136.6406 Z " fill="#000000"/><text fill="#000000" font-family="sans-serif" font-size="12" lengthAdjust="spacing" textLength="91" x="1243.5" y="135.1543">SceneDifficulty</text><line style="stroke:#A80036;stroke-width:1.5;" x1="1215.5" x2="1336.5" y1="147" y2="147"/><line style="stroke:#A80036;stroke-width:1.5;" x1="1215.5" x2="1336.5" y1="155" y2="155"/><!--MD5=[191f5a5662fedcdee87af3bba77ae1e5]
class SceneMainGame--><rect codeLine="25" fill="#FEFECE" filter="url(#f1j7z5nt4jjv42)" height="48" id="SceneMainGame" style="stroke:#A80036;stroke-width:1.5;" width="136" x="1373" y="115"/><ellipse cx="1388" cy="131" fill="#ADD1B2" rx="11" ry="11" style="stroke:#A80036;stroke-width:1.0;"/><path d="M1390.9688,136.6406 Q1390.3906,136.9375 1389.75,137.0781 Q1389.1094,137.2344 1388.4063,137.2344 Q1385.9063,137.2344 1384.5781,135.5938 Q1383.2656,133.9375 1383.2656,130.8125 Q1383.2656,127.6875 1384.5781,126.0313 Q1385.9063,124.375 1388.4063,124.375 Q1389.1094,124.375 1389.75,124.5313 Q1390.4063,124.6875 1390.9688,124.9844 L1390.9688,127.7031 Q1390.3438,127.125 1389.75,126.8594 Q1389.1563,126.5781 1388.5313,126.5781 Q1387.1875,126.5781 1386.5,127.6563 Q1385.8125,128.7188 1385.8125,130.8125 Q1385.8125,132.9063 1386.5,133.9844 Q1387.1875,135.0469 1388.5313,135.0469 Q1389.1563,135.0469 1389.75,134.7813 Q1390.3438,134.5 1390.9688,133.9219 L1390.9688,136.6406 Z " fill="#000000"/><text fill="#000000" font-family="sans-serif" font-size="12" lengthAdjust="spacing" textLength="104" x="1402" y="135.1543">SceneMainGame</text><line style="stroke:#A80036;stroke-width:1.5;" x1="1374" x2="1508" y1="147" y2="147"/><line style="stroke:#A80036;stroke-width:1.5;" x1="1374" x2="1508" y1="155" y2="155"/><!--MD5=[10fad2eef0002dd70ab0ee7e095a83d7]
class SceneOptionsMenu--><rect codeLine="26" fill="#FEFECE" filter="url(#f1j7z5nt4jjv42)" height="48" id="SceneOptionsMenu" style="stroke:#A80036;stroke-width:1.5;" width="153" x="1544.5" y="115"/><ellipse cx="1559.5" cy="131" fill="#ADD1B2" rx="11" ry="11" style="stroke:#A80036;stroke-width:1.0;"/><path d="M1562.4688,136.6406 Q1561.8906,136.9375 1561.25,137.0781 Q1560.6094,137.2344 1559.9063,137.2344 Q1557.4063,137.2344 1556.0781,135.5938 Q1554.7656,133.9375 1554.7656,130.8125 Q1554.7656,127.6875 1556.0781,126.0313 Q1557.4063,124.375 1559.9063,124.375 Q1560.6094,124.375 1561.25,124.5313 Q1561.9063,124.6875 1562.4688,124.9844 L1562.4688,127.7031 Q1561.8438,127.125 1561.25,126.8594 Q1560.6563,126.5781 1560.0313,126.5781 Q1558.6875,126.5781 1558,127.6563 Q1557.3125,128.7188 1557.3125,130.8125 Q1557.3125,132.9063 1558,133.9844 Q1558.6875,135.0469 1560.0313,135.0469 Q1560.6563,135.0469 1561.25,134.7813 Q1561.8438,134.5 1562.4688,133.9219 L1562.4688,136.6406 Z " fill="#000000"/><text fill="#000000" font-family="sans-serif" font-size="12" lengthAdjust="spacing" textLength="121" x="1573.5" y="135.1543">SceneOptionsMenu</text><line style="stroke:#A80036;stroke-width:1.5;" x1="1545.5" x2="1696.5" y1="147" y2="147"/><line style="stroke:#A80036;stroke-width:1.5;" x1="1545.5" x2="1696.5" y1="155" y2="155"/><!--MD5=[705050e7dc8a0f9ad873dfab94d81211]
class SceneStartScreen--><rect codeLine="27" fill="#FEFECE" filter="url(#f1j7z5nt4jjv42)" height="48" id="SceneStartScreen" style="stroke:#A80036;stroke-width:1.5;" width="146" x="1733" y="115"/><ellipse cx="1748" cy="131" fill="#ADD1B2" rx="11" ry="11" style="stroke:#A80036;stroke-width:1.0;"/><path d="M1750.9688,136.6406 Q1750.3906,136.9375 1749.75,137.0781 Q1749.1094,137.2344 1748.4063,137.2344 Q1745.9063,137.2344 1744.5781,135.5938 Q1743.2656,133.9375 1743.2656,130.8125 Q1743.2656,127.6875 1744.5781,126.0313 Q1745.9063,124.375 1748.4063,124.375 Q1749.1094,124.375 1749.75,124.5313 Q1750.4063,124.6875 1750.9688,124.9844 L1750.9688,127.7031 Q1750.3438,127.125 1749.75,126.8594 Q1749.1563,126.5781 1748.5313,126.5781 Q1747.1875,126.5781 1746.5,127.6563 Q1745.8125,128.7188 1745.8125,130.8125 Q1745.8125,132.9063 1746.5,133.9844 Q1747.1875,135.0469 1748.5313,135.0469 Q1749.1563,135.0469 1749.75,134.7813 Q1750.3438,134.5 1750.9688,133.9219 L1750.9688,136.6406 Z " fill="#000000"/><text fill="#000000" font-family="sans-serif" font-size="12" lengthAdjust="spacing" textLength="114" x="1762" y="135.1543">SceneStartScreen</text><line style="stroke:#A80036;stroke-width:1.5;" x1="1734" x2="1878" y1="147" y2="147"/><line style="stroke:#A80036;stroke-width:1.5;" x1="1734" x2="1878" y1="155" y2="155"/><!--MD5=[eb8347e17286b04f108bb989edee2135]
class SceneTutorial--><rect codeLine="28" fill="#FEFECE" filter="url(#f1j7z5nt4jjv42)" height="48" id="SceneTutorial" style="stroke:#A80036;stroke-width:1.5;" width="118" x="1914" y="115"/><ellipse cx="1929" cy="131" fill="#ADD1B2" rx="11" ry="11" style="stroke:#A80036;stroke-width:1.0;"/><path d="M1931.9688,136.6406 Q1931.3906,136.9375 1930.75,137.0781 Q1930.1094,137.2344 1929.4063,137.2344 Q1926.9063,137.2344 1925.5781,135.5938 Q1924.2656,133.9375 1924.2656,130.8125 Q1924.2656,127.6875 1925.5781,126.0313 Q1926.9063,124.375 1929.4063,124.375 Q1930.1094,124.375 1930.75,124.5313 Q1931.4063,124.6875 1931.9688,124.9844 L1931.9688,127.7031 Q1931.3438,127.125 1930.75,126.8594 Q1930.1563,126.5781 1929.5313,126.5781 Q1928.1875,126.5781 1927.5,127.6563 Q1926.8125,128.7188 1926.8125,130.8125 Q1926.8125,132.9063 1927.5,133.9844 Q1928.1875,135.0469 1929.5313,135.0469 Q1930.1563,135.0469 1930.75,134.7813 Q1931.3438,134.5 1931.9688,133.9219 L1931.9688,136.6406 Z " fill="#000000"/><text fill="#000000" font-family="sans-serif" font-size="12" lengthAdjust="spacing" textLength="86" x="1943" y="135.1543">SceneTutorial</text><line style="stroke:#A80036;stroke-width:1.5;" x1="1915" x2="2031" y1="147" y2="147"/><line style="stroke:#A80036;stroke-width:1.5;" x1="1915" x2="2031" y1="155" y2="155"/><!--MD5=[292687bb7eb5fe0d5f0b123bf926d4fb]
class SceneAwardScreen--><rect codeLine="29" fill="#FEFECE" filter="url(#f1j7z5nt4jjv42)" height="48" id="SceneAwardScreen" style="stroke:#A80036;stroke-width:1.5;" width="153" x="2067.5" y="115"/><ellipse cx="2082.5" cy="131" fill="#ADD1B2" rx="11" ry="11" style="stroke:#A80036;stroke-width:1.0;"/><path d="M2085.4688,136.6406 Q2084.8906,136.9375 2084.25,137.0781 Q2083.6094,137.2344 2082.9063,137.2344 Q2080.4063,137.2344 2079.0781,135.5938 Q2077.7656,133.9375 2077.7656,130.8125 Q2077.7656,127.6875 2079.0781,126.0313 Q2080.4063,124.375 2082.9063,124.375 Q2083.6094,124.375 2084.25,124.5313 Q2084.9063,124.6875 2085.4688,124.9844 L2085.4688,127.7031 Q2084.8438,127.125 2084.25,126.8594 Q2083.6563,126.5781 2083.0313,126.5781 Q2081.6875,126.5781 2081,127.6563 Q2080.3125,128.7188 2080.3125,130.8125 Q2080.3125,132.9063 2081,133.9844 Q2081.6875,135.0469 2083.0313,135.0469 Q2083.6563,135.0469 2084.25,134.7813 Q2084.8438,134.5 2085.4688,133.9219 L2085.4688,136.6406 Z " fill="#000000"/><text fill="#000000" font-family="sans-serif" font-size="12" lengthAdjust="spacing" textLength="121" x="2096.5" y="135.1543">SceneAwardScreen</text><line style="stroke:#A80036;stroke-width:1.5;" x1="2068.5" x2="2219.5" y1="147" y2="147"/><line style="stroke:#A80036;stroke-width:1.5;" x1="2068.5" x2="2219.5" y1="155" y2="155"/><!--MD5=[5471448ac764769a8a042e87d31159a5]
class SceneGameOver--><rect codeLine="30" fill="#FEFECE" filter="url(#f1j7z5nt4jjv42)" height="48" id="SceneGameOver" style="stroke:#A80036;stroke-width:1.5;" width="135" x="2255.5" y="115"/><ellipse cx="2270.5" cy="131" fill="#ADD1B2" rx="11" ry="11" style="stroke:#A80036;stroke-width:1.0;"/><path d="M2273.4688,136.6406 Q2272.8906,136.9375 2272.25,137.0781 Q2271.6094,137.2344 2270.9063,137.2344 Q2268.4063,137.2344 2267.0781,135.5938 Q2265.7656,133.9375 2265.7656,130.8125 Q2265.7656,127.6875 2267.0781,126.0313 Q2268.4063,124.375 2270.9063,124.375 Q2271.6094,124.375 2272.25,124.5313 Q2272.9063,124.6875 2273.4688,124.9844 L2273.4688,127.7031 Q2272.8438,127.125 2272.25,126.8594 Q2271.6563,126.5781 2271.0313,126.5781 Q2269.6875,126.5781 2269,127.6563 Q2268.3125,128.7188 2268.3125,130.8125 Q2268.3125,132.9063 2269,133.9844 Q2269.6875,135.0469 2271.0313,135.0469 Q2271.6563,135.0469 2272.25,134.7813 Q2272.8438,134.5 2273.4688,133.9219 L2273.4688,136.6406 Z " fill="#000000"/><text fill="#000000" font-family="sans-serif" font-size="12" lengthAdjust="spacing" textLength="103" x="2284.5" y="135.1543">SceneGameOver</text><line style="stroke:#A80036;stroke-width:1.5;" x1="2256.5" x2="2389.5" y1="147" y2="147"/><line style="stroke:#A80036;stroke-width:1.5;" x1="2256.5" x2="2389.5" y1="155" y2="155"/><!--MD5=[4663939172911429a54d44baff5bb5c4]
class SceneLoadScreen--><rect codeLine="31" fill="#FEFECE" filter="url(#f1j7z5nt4jjv42)" height="48" id="SceneLoadScreen" style="stroke:#A80036;stroke-width:1.5;" width="145" x="2425.5" y="115"/><ellipse cx="2440.5" cy="131" fill="#ADD1B2" rx="11" ry="11" style="stroke:#A80036;stroke-width:1.0;"/><path d="M2443.4688,136.6406 Q2442.8906,136.9375 2442.25,137.0781 Q2441.6094,137.2344 2440.9063,137.2344 Q2438.4063,137.2344 2437.0781,135.5938 Q2435.7656,133.9375 2435.7656,130.8125 Q2435.7656,127.6875 2437.0781,126.0313 Q2438.4063,124.375 2440.9063,124.375 Q2441.6094,124.375 2442.25,124.5313 Q2442.9063,124.6875 2443.4688,124.9844 L2443.4688,127.7031 Q2442.8438,127.125 2442.25,126.8594 Q2441.6563,126.5781 2441.0313,126.5781 Q2439.6875,126.5781 2439,127.6563 Q2438.3125,128.7188 2438.3125,130.8125 Q2438.3125,132.9063 2439,133.9844 Q2439.6875,135.0469 2441.0313,135.0469 Q2441.6563,135.0469 2442.25,134.7813 Q2442.8438,134.5 2443.4688,133.9219 L2443.4688,136.6406 Z " fill="#000000"/><text fill="#000000" font-family="sans-serif" font-size="12" lengthAdjust="spacing" textLength="113" x="2454.5" y="135.1543">SceneLoadScreen</text><line style="stroke:#A80036;stroke-width:1.5;" x1="2426.5" x2="2569.5" y1="147" y2="147"/><line style="stroke:#A80036;stroke-width:1.5;" x1="2426.5" x2="2569.5" y1="155" y2="155"/><!--MD5=[5750843ec52a4b67c1d9e2b786e74bc0]
class SceneSaveScreen--><rect codeLine="32" fill="#FEFECE" filter="url(#f1j7z5nt4jjv42)" height="48" id="SceneSaveScreen" style="stroke:#A80036;stroke-width:1.5;" width="145" x="2605.5" y="115"/><ellipse cx="2620.5" cy="131" fill="#ADD1B2" rx="11" ry="11" style="stroke:#A80036;stroke-width:1.0;"/><path d="M2623.4688,136.6406 Q2622.8906,136.9375 2622.25,137.0781 Q2621.6094,137.2344 2620.9063,137.2344 Q2618.4063,137.2344 2617.0781,135.5938 Q2615.7656,133.9375 2615.7656,130.8125 Q2615.7656,127.6875 2617.0781,126.0313 Q2618.4063,124.375 2620.9063,124.375 Q2621.6094,124.375 2622.25,124.5313 Q2622.9063,124.6875 2623.4688,124.9844 L2623.4688,127.7031 Q2622.8438,127.125 2622.25,126.8594 Q2621.6563,126.5781 2621.0313,126.5781 Q2619.6875,126.5781 2619,127.6563 Q2618.3125,128.7188 2618.3125,130.8125 Q2618.3125,132.9063 2619,133.9844 Q2619.6875,135.0469 2621.0313,135.0469 Q2621.6563,135.0469 2622.25,134.7813 Q2622.8438,134.5 2623.4688,133.9219 L2623.4688,136.6406 Z " fill="#000000"/><text fill="#000000" font-family="sans-serif" font-size="12" lengthAdjust="spacing" textLength="113" x="2634.5" y="135.1543">SceneSaveScreen</text><line style="stroke:#A80036;stroke-width:1.5;" x1="2606.5" x2="2749.5" y1="147" y2="147"/><line style="stroke:#A80036;stroke-width:1.5;" x1="2606.5" x2="2749.5" y1="155" y2="155"/><!--MD5=[cc3de0a176daa3c4ec875deafdf5ddd1]
class Serializable--><rect codeLine="33" fill="#FEFECE" filter="url(#f1j7z5nt4jjv42)" height="48" id="Serializable" style="stroke:#A80036;stroke-width:1.5;" width="103" x="754.5" y="7"/><ellipse cx="769.5" cy="23" fill="#B4A7E5" rx="11" ry="11" style="stroke:#A80036;stroke-width:1.0;"/><path d="M765.4219,18.7656 L765.4219,16.6094 L772.8125,16.6094 L772.8125,18.7656 L770.3438,18.7656 L770.3438,26.8438 L772.8125,26.8438 L772.8125,29 L765.4219,29 L765.4219,26.8438 L767.8906,26.8438 L767.8906,18.7656 L765.4219,18.7656 Z " fill="#000000"/><text fill="#000000" font-family="sans-serif" font-size="12" font-style="italic" lengthAdjust="spacing" textLength="71" x="783.5" y="27.1543">Serializable</text><line style="stroke:#A80036;stroke-width:1.5;" x1="755.5" x2="856.5" y1="39" y2="39"/><line style="stroke:#A80036;stroke-width:1.5;" x1="755.5" x2="856.5" y1="47" y2="47"/><!--MD5=[ddcb0def8caaeba08e48822c426b4854]
class SerializableGameObject--><rect codeLine="35" fill="#FEFECE" filter="url(#f1j7z5nt4jjv42)" height="48" id="SerializableGameObject" style="stroke:#A80036;stroke-width:1.5;" width="178" x="805" y="115"/><ellipse cx="820" cy="131" fill="#ADD1B2" rx="11" ry="11" style="stroke:#A80036;stroke-width:1.0;"/><path d="M822.9688,136.6406 Q822.3906,136.9375 821.75,137.0781 Q821.1094,137.2344 820.4063,137.2344 Q817.9063,137.2344 816.5781,135.5938 Q815.2656,133.9375 815.2656,130.8125 Q815.2656,127.6875 816.5781,126.0313 Q817.9063,124.375 820.4063,124.375 Q821.1094,124.375 821.75,124.5313 Q822.4063,124.6875 822.9688,124.9844 L822.9688,127.7031 Q822.3438,127.125 821.75,126.8594 Q821.1563,126.5781 820.5313,126.5781 Q819.1875,126.5781 818.5,127.6563 Q817.8125,128.7188 817.8125,130.8125 Q817.8125,132.9063 818.5,133.9844 Q819.1875,135.0469 820.5313,135.0469 Q821.1563,135.0469 821.75,134.7813 Q822.3438,134.5 822.9688,133.9219 L822.9688,136.6406 Z " fill="#000000"/><text fill="#000000" font-family="sans-serif" font-size="12" lengthAdjust="spacing" textLength="146" x="834" y="135.1543">SerializableGameObject</text><line style="stroke:#A80036;stroke-width:1.5;" x1="806" x2="982" y1="147" y2="147"/><line style="stroke:#A80036;stroke-width:1.5;" x1="806" x2="982" y1="155" y2="155"/><!--MD5=[cd6ca9da01b2947ed5371bc0660d8ff3]
class ObjectType--><rect codeLine="36" fill="#FEFECE" filter="url(#f1j7z5nt4jjv42)" height="48" id="ObjectType" style="stroke:#A80036;stroke-width:1.5;" width="101" x="210.5" y="115"/><ellipse cx="225.5" cy="131" fill="#EB937F" rx="11" ry="11" style="stroke:#A80036;stroke-width:1.0;"/><path d="M229.6094,137 L221.8906,137 L221.8906,124.6094 L229.6094,124.6094 L229.6094,126.7656 L224.3438,126.7656 L224.3438,129.4375 L229.1094,129.4375 L229.1094,131.5938 L224.3438,131.5938 L224.3438,134.8438 L229.6094,134.8438 L229.6094,137 Z " fill="#000000"/><text fill="#000000" font-family="sans-serif" font-size="12" lengthAdjust="spacing" textLength="69" x="239.5" y="135.1543">ObjectType</text><line style="stroke:#A80036;stroke-width:1.5;" x1="211.5" x2="310.5" y1="147" y2="147"/><line style="stroke:#A80036;stroke-width:1.5;" x1="211.5" x2="310.5" y1="155" y2="155"/><!--MD5=[67eb2a2e46f9471956d08809acd99ce2]
reverse link GameObject to MoveableObject--><path codeLine="39" d="M568,75.2911 C568,88.8171 568,103.1835 568,114.8436 " fill="none" id="GameObject-backto-MoveableObject" style="stroke:#A80036;stroke-width:1.0;"/><polygon fill="none" points="561.0001,75.2373,568,55.2373,575.0001,75.2373,561.0001,75.2373" style="stroke:#A80036;stroke-width:1.0;"/><!--MD5=[4dcd3dfe2fa9670111ad6516839d5bfa]
reverse link MoveableObject to Obstacle--><path codeLine="41" d="M533.6186,178.5021 C520.6882,193.3582 506.3818,209.7954 495.025,222.8436 " fill="none" id="MoveableObject-backto-Obstacle" style="stroke:#A80036;stroke-width:1.0;"/><polygon fill="none" points="528.4939,173.7277,546.9046,163.2373,539.0542,182.9191,528.4939,173.7277" style="stroke:#A80036;stroke-width:1.0;"/><!--MD5=[5261a6ab5a16501f424602d3127a7c44]
reverse link CollisionObject to Obstacle--><path codeLine="42" d="M432.6875,180.4068 C441.5863,194.751 451.2638,210.3507 459.0141,222.8436 " fill="none" id="CollisionObject-backto-Obstacle" style="stroke:#A80036;stroke-width:1.0;"/><polygon fill="none" points="426.6312,183.9227,422.0361,163.2373,438.5278,176.5424,426.6312,183.9227" style="stroke:#A80036;stroke-width:1.0;"/><!--MD5=[2447f226540ec9c560347afc2c55664a]
reverse link Obstacle to ObstacleBranch--><path codeLine="43" d="M421.3861,282.5144 C397.9144,298.3578 370.8659,316.6155 349.7873,330.8436 " fill="none" id="Obstacle-backto-ObstacleBranch" style="stroke:#A80036;stroke-width:1.0;"/><polygon fill="none" points="417.5996,276.6249,438.0929,271.2373,425.4322,288.2288,417.5996,276.6249" style="stroke:#A80036;stroke-width:1.0;"/><!--MD5=[74ea1e852bbb142d1f2055725197de01]
reverse link Obstacle to ObstacleDuck--><path codeLine="44" d="M474,291.2911 C474,304.8171 474,319.1835 474,330.8436 " fill="none" id="Obstacle-backto-ObstacleDuck" style="stroke:#A80036;stroke-width:1.0;"/><polygon fill="none" points="467.0001,291.2373,474,271.2373,481.0001,291.2373,467.0001,291.2373" style="stroke:#A80036;stroke-width:1.0;"/><!--MD5=[d39e13981833993a391e28dcff3f4c08]
reverse link ObstacleBranch to ObstacleFloatingBranch--><path codeLine="45" d="M314,399.2911 C314,412.8171 314,427.1835 314,438.8436 " fill="none" id="ObstacleBranch-backto-ObstacleFloatingBranch" style="stroke:#A80036;stroke-width:1.0;"/><polygon fill="none" points="307.0001,399.2373,314,379.2373,321.0001,399.2373,307.0001,399.2373" style="stroke:#A80036;stroke-width:1.0;"/><!--MD5=[8e2ecfac9517fa4870172ee422e4ef6e]
reverse link Obstacle to ObstacleLaneWall--><path codeLine="46" d="M527.9041,282.2827 C552.191,298.1796 580.251,316.5461 602.0944,330.8436 " fill="none" id="Obstacle-backto-ObstacleLaneWall" style="stroke:#A80036;stroke-width:1.0;"/><polygon fill="none" points="523.9296,288.0475,511.0292,271.2373,531.5969,276.3336,523.9296,288.0475" style="stroke:#A80036;stroke-width:1.0;"/><!--MD5=[298bff1c342649cb830efb293b769409]
reverse link MoveableObject to PowerUp--><path codeLine="48" d="M652.6292,163.6598 C759.835,193.4388 864.8906,220.895 922.4594,235.7923 " fill="none" id="MoveableObject-backto-PowerUp" style="stroke:#A80036;stroke-width:1.0;"/><polygon fill="none" points="650.6911,170.3865,633.3054,158.2729,654.4505,156.9007,650.6911,170.3865" style="stroke:#A80036;stroke-width:1.0;"/><!--MD5=[d05f3ba7c416abf4098b182fdab41a58]
reverse link CollisionObject to PowerUp--><path codeLine="49" d="M487.1484,163.1213 C658.2737,203.3102 840.299,230.0463 922.1803,241.2288 " fill="none" id="CollisionObject-backto-PowerUp" style="stroke:#A80036;stroke-width:1.0;"/><polygon fill="none" points="485.5173,169.9287,467.6868,158.48,488.7651,156.3106,485.5173,169.9287" style="stroke:#A80036;stroke-width:1.0;"/><!--MD5=[16c5051b7bcfc3a101dc4c644fe178ab]
reverse link PowerUp to PowerUpEnergy--><path codeLine="50" d="M1018.2851,282.5144 C1041.6101,298.3578 1068.4895,316.6155 1089.4364,330.8436 " fill="none" id="PowerUp-backto-PowerUpEnergy" style="stroke:#A80036;stroke-width:1.0;"/><polygon fill="none" points="1014.2939,288.2655,1001.6827,271.2373,1022.1603,276.6845,1014.2939,288.2655" style="stroke:#A80036;stroke-width:1.0;"/><!--MD5=[ae392a56f60e0b4744b70cc2bfb057c0]
reverse link PowerUp to PowerUpSpeed--><path codeLine="51" d="M914.0353,282.7464 C891.0822,298.5358 864.6987,316.6849 844.1163,330.8436 " fill="none" id="PowerUp-backto-PowerUpSpeed" style="stroke:#A80036;stroke-width:1.0;"/><polygon fill="none" points="910.3211,276.8052,930.7661,271.2373,918.2556,288.3396,910.3211,276.8052" style="stroke:#A80036;stroke-width:1.0;"/><!--MD5=[054e8f4ab364f5efe309622673eae5b2]
reverse link PowerUp to PowerUpRotation--><path codeLine="52" d="M1029.4001,258.9349 C1109.181,274.2395 1250.2626,302.2528 1370,331 C1375.8513,332.4048 1381.9045,333.9214 1387.9707,335.4856 " fill="none" id="PowerUp-backto-PowerUpRotation" style="stroke:#A80036;stroke-width:1.0;"/><polygon fill="none" points="1027.8729,265.7699,1009.5395,255.145,1030.4972,252.0181,1027.8729,265.7699" style="stroke:#A80036;stroke-width:1.0;"/><!--MD5=[bb487c4031ab0cb225bb0e14c07f1b21]
reverse link PowerUp to PowerUpDrag--><path codeLine="53" d="M966,291.2911 C966,304.8171 966,319.1835 966,330.8436 " fill="none" id="PowerUp-backto-PowerUpDrag" style="stroke:#A80036;stroke-width:1.0;"/><polygon fill="none" points="959.0001,291.2373,966,271.2373,973.0001,291.2373,959.0001,291.2373" style="stroke:#A80036;stroke-width:1.0;"/><!--MD5=[d21346eac00faed809b96df6e155989b]
reverse link PowerUp to PowerUpHealth--><path codeLine="54" d="M1028.7194,267.9712 C1085.1794,286.8495 1167.7915,314.4721 1224.7254,333.5088 " fill="none" id="PowerUp-backto-PowerUpHealth" style="stroke:#A80036;stroke-width:1.0;"/><polygon fill="none" points="1026.3092,274.5463,1009.5612,261.5654,1030.7488,261.2689,1026.3092,274.5463" style="stroke:#A80036;stroke-width:1.0;"/><!--MD5=[556f525838ff4f21499678df80e5dac3]
reverse link MoveableObject to Boat--><path codeLine="56" d="M498.9053,171.7291 C456.1835,191.9657 403.4472,216.946 370.7667,232.4263 " fill="none" id="MoveableObject-backto-Boat" style="stroke:#A80036;stroke-width:1.0;"/><polygon fill="none" points="496.0447,165.3385,517.1161,163.1029,502.038,177.9908,496.0447,165.3385" style="stroke:#A80036;stroke-width:1.0;"/><!--MD5=[02282af48b966665939bd48eb72da4be]
reverse link CollisionObject to Boat--><path codeLine="57" d="M381.3125,180.4068 C372.4137,194.751 362.7362,210.3507 354.9859,222.8436 " fill="none" id="CollisionObject-backto-Boat" style="stroke:#A80036;stroke-width:1.0;"/><polygon fill="none" points="375.4722,176.5424,391.9639,163.2373,387.3688,183.9227,375.4722,176.5424" style="stroke:#A80036;stroke-width:1.0;"/><!--MD5=[98cb05a5852845d19943ffcf66c8c39b]
reverse link Boat to PlayerBoat--><path codeLine="58" d="M292.1604,276.3561 C264.2664,293.4729 229.519,314.7951 203.2446,330.9181 " fill="none" id="Boat-backto-PlayerBoat" style="stroke:#A80036;stroke-width:1.0;"/><polygon fill="none" points="288.6355,270.3063,309.3431,265.8122,295.9578,282.2388,288.6355,270.3063" style="stroke:#A80036;stroke-width:1.0;"/><!--MD5=[2f77c2c140af5a9927a9dd3039ffea70]
reverse link Boat to AIBoat--><path codeLine="59" d="M290.0392,262.886 C240.5919,278.9322 162.9493,305.0008 97,331 C91.178,333.2952 85.0645,335.8593 79.129,338.4338 " fill="none" id="Boat-backto-AIBoat" style="stroke:#A80036;stroke-width:1.0;"/><polygon fill="none" points="288.2053,256.1225,309.3884,256.6521,292.4986,269.448,288.2053,256.1225" style="stroke:#A80036;stroke-width:1.0;"/><!--MD5=[a0aa917fa3c85539bb76fa1aa9e5e473]
reverse link Scene to SceneMainGame--><path codeLine="61" d="M1833.6356,43.0498 C1762.4606,58.7234 1635.1504,87.3757 1527,115 C1521.2928,116.4578 1515.3851,118.0115 1509.462,119.6007 " fill="none" id="Scene-backto-SceneMainGame" style="stroke:#A80036;stroke-width:1.0;"/><polygon fill="none" points="1832.384,36.158,1853.4195,38.7095,1835.3842,49.8328,1832.384,36.158" style="stroke:#A80036;stroke-width:1.0;"/><!--MD5=[f5866c8437053a6f5437e389243267e3]
reverse link Scene to SceneOptionsMenu--><path codeLine="62" d="M1834.6074,52.9194 C1789.9161,70.9293 1726.6918,96.4078 1680.628,114.9708 " fill="none" id="Scene-backto-SceneOptionsMenu" style="stroke:#A80036;stroke-width:1.0;"/><polygon fill="none" points="1832.2448,46.3245,1853.4117,45.3416,1837.4777,59.3098,1832.2448,46.3245" style="stroke:#A80036;stroke-width:1.0;"/><!--MD5=[97fbcc543611354a47a07c5f8f6cae89]
reverse link Scene to SceneStartScreen--><path codeLine="63" d="M1857.9116,71.4524 C1846.6884,86.0561 1834.379,102.073 1824.5647,114.8436 " fill="none" id="Scene-backto-SceneStartScreen" style="stroke:#A80036;stroke-width:1.0;"/><polygon fill="none" points="1852.6357,66.8298,1870.3732,55.2373,1863.7363,75.3608,1852.6357,66.8298" style="stroke:#A80036;stroke-width:1.0;"/><!--MD5=[dc132ea77ed0156e517550f67054d034]
reverse link Scene to SceneTutorial--><path codeLine="64" d="M1920.463,71.4524 C1931.8214,86.0561 1944.279,102.073 1954.2117,114.8436 " fill="none" id="Scene-backto-SceneTutorial" style="stroke:#A80036;stroke-width:1.0;"/><polygon fill="none" points="1914.6046,75.322,1907.8512,55.2373,1925.6556,66.7268,1914.6046,75.322" style="stroke:#A80036;stroke-width:1.0;"/><!--MD5=[9e072197b2792edc590de9d690ff7a6d]
reverse link Scene to SceneDifficulty--><path codeLine="65" d="M1833.4632,37.1561 C1735.8756,48.5451 1527.6018,75.4083 1355,115 C1349.4114,116.2819 1343.6406,117.7492 1337.8809,119.3125 " fill="none" id="Scene-backto-SceneDifficulty" style="stroke:#A80036;stroke-width:1.0;"/><polygon fill="none" points="1832.7028,30.1975,1853.3709,34.8694,1834.3004,44.1061,1832.7028,30.1975" style="stroke:#A80036;stroke-width:1.0;"/><!--MD5=[7e39c84f1af1012627564284022932a9]
reverse link Scene to SceneResultsScreen--><path codeLine="66" d="M1833.4504,35.475 C1715.5412,45.4699 1431.8058,72.1552 1197,115 C1191.3134,116.0376 1185.4644,117.2066 1179.5894,118.4557 " fill="none" id="Scene-backto-SceneResultsScreen" style="stroke:#A80036;stroke-width:1.0;"/><polygon fill="none" points="1832.9748,28.4904,1853.4877,33.8028,1834.1392,42.4419,1832.9748,28.4904" style="stroke:#A80036;stroke-width:1.0;"/><!--MD5=[e394019d8e707edccadc7957d8c0d2a8]
reverse link Scene to SceneAwardScreen--><path codeLine="67" d="M1943.1637,53.9399 C1985.4174,71.8356 2043.9525,96.6269 2086.9299,114.8291 " fill="none" id="Scene-backto-SceneAwardScreen" style="stroke:#A80036;stroke-width:1.0;"/><polygon fill="none" points="1940.4115,60.3763,1924.7252,46.1307,1945.8715,47.4849,1940.4115,60.3763" style="stroke:#A80036;stroke-width:1.0;"/><!--MD5=[ee81c073ffd5b92ae3bdf6919cd75d13]
reverse link Scene to SceneGameOver--><path codeLine="68" d="M1944.1626,43.5765 C2013.0959,59.4536 2134.5903,87.9672 2238,115 C2243.6374,116.4737 2249.4741,118.0387 2255.3267,119.6354 " fill="none" id="Scene-backto-SceneGameOver" style="stroke:#A80036;stroke-width:1.0;"/><polygon fill="none" points="1942.4618,50.3682,1924.5352,39.0705,1945.5944,36.7232,1942.4618,50.3682" style="stroke:#A80036;stroke-width:1.0;"/><!--MD5=[f56170c7bb5fe1e4218f334a593bb3c2]
reverse link Scene to SceneLoadScreen--><path codeLine="69" d="M1944.8455,38.1688 C2040.304,50.839 2240.7534,79.2599 2408,115 C2413.693,116.2166 2419.5647,117.5656 2425.4521,118.9858 " fill="none" id="Scene-backto-SceneLoadScreen" style="stroke:#A80036;stroke-width:1.0;"/><polygon fill="none" points="1943.6994,45.0785,1924.7814,35.5333,1945.5228,31.1977,1943.6994,45.0785" style="stroke:#A80036;stroke-width:1.0;"/><!--MD5=[d5b94e3923de6cba27f8c198231f879e]
reverse link Scene to SceneSaveScreen--><path codeLine="70" d="M1944.7583,35.0143 C2063.7407,44.1674 2350.9979,69.3952 2588,115 C2593.5579,116.0695 2599.2783,117.2951 2605.013,118.6142 " fill="none" id="Scene-backto-SceneSaveScreen" style="stroke:#A80036;stroke-width:1.0;"/><polygon fill="none" points="1943.9673,41.9746,1924.55,33.491,1945.0196,28.0142,1943.9673,41.9746" style="stroke:#A80036;stroke-width:1.0;"/><!--MD5=[6774d3f715b13d27728f407867366100]
reverse link Serializable to GameState--><path codeLine="72" d="M773.7965,70.9767 C761.93,85.7075 748.8585,101.9342 738.4593,114.8436 " fill="none" id="Serializable-backto-GameState" style="stroke:#A80036;stroke-width:1.0;"/><polygon fill="none" points="768.4776,66.4211,786.4755,55.2373,779.3802,75.2037,768.4776,66.4211" style="stroke:#A80036;stroke-width:1.0;"/><!--MD5=[df7dc5bf715dc72859b47f3e3e2f1e17]
reverse link Serializable to SerializableGameObject--><path codeLine="73" d="M838.5736,70.9767 C850.5765,85.7075 863.7983,101.9342 874.317,114.8436 " fill="none" id="Serializable-backto-SerializableGameObject" style="stroke:#A80036;stroke-width:1.0;"/><polygon fill="none" points="832.9558,75.1638,825.7489,55.2373,843.8091,66.3203,832.9558,75.1638" style="stroke:#A80036;stroke-width:1.0;"/><!--MD5=[9a9337a3640752c7d270055846628537]
link BoatRace to CollisionBounds--><!--MD5=[ffd00cab5b9edc5cce8a7f9ebd64e422]
link BoatRace to PixelBoat--><!--MD5=[e2bdf7e026b918432464cfe37c5c7f45]
link PixelBoat to ObjectType--><!--MD5=[82bd4b7f874772834ecac87e8c511baf]
@startuml
class AIBoat
abstract class Boat
class BoatRace
class GameState
class CollisionBounds
interface CollisionObject
abstract class GameObject
abstract class MoveableObject
abstract class Obstacle
class ObstacleBranch
class ObstacleDuck
class ObstacleFloatingBranch
class ObstacleLaneWall
abstract class PowerUp
class PowerUpSpeed
class PowerUpDrag
class PowerUpEnergy
class PowerUpHealth
class PowerUpRotation
class PixelBoat
class PlayerBoat
class SceneResultsScreen
interface Scene
class SceneDifficulty
class SceneMainGame
class SceneOptionsMenu
class SceneStartScreen
class SceneTutorial
class SceneAwardScreen
class SceneGameOver
class SceneLoadScreen
class SceneSaveScreen
interface Serializable
class GameState
class SerializableGameObject
enum ObjectType


GameObject <|- - MoveableObject

MoveableObject <|- - Obstacle
CollisionObject <|- - Obstacle
Obstacle <|- - ObstacleBranch
Obstacle <|- - ObstacleDuck
ObstacleBranch <|- - ObstacleFloatingBranch
Obstacle <|- - ObstacleLaneWall

MoveableObject <|- - PowerUp
CollisionObject <|- - PowerUp
PowerUp <|- - PowerUpEnergy
PowerUp <|- - PowerUpSpeed
PowerUp <|- - PowerUpRotation
PowerUp <|- - PowerUpDrag
PowerUp <|- - PowerUpHealth

MoveableObject <|- - Boat
CollisionObject <|- - Boat
Boat <|- - PlayerBoat
Boat <|- - AIBoat

Scene <|- - SceneMainGame
Scene <|- - SceneOptionsMenu
Scene <|- - SceneStartScreen
Scene <|- - SceneTutorial
Scene <|- - SceneDifficulty
Scene <|- - SceneResultsScreen
Scene <|- - SceneAwardScreen
Scene <|- - SceneGameOver
Scene <|- - SceneLoadScreen
Scene <|- - SceneSaveScreen

Serializable <|- - GameState
Serializable <|- - SerializableGameObject

@enduml

PlantUML version 1.2021.00(Sun Jan 10 10:25:05 UTC 2021)
(GPL source distribution)
Java Runtime: OpenJDK Runtime Environment
JVM: OpenJDK 64-Bit Server VM
Default Encoding: UTF-8
Language: en
Country: null
--></g></svg>