<?xml version="1.0" encoding="UTF-8" standalone="no"?><svg xmlns="http://www.w3.org/2000/svg" xmlns:xlink="http://www.w3.org/1999/xlink" contentScriptType="application/ecmascript" contentStyleType="text/css" height="501px" preserveAspectRatio="none" style="width:1621px;height:501px;" version="1.1" viewBox="0 0 1621 501" width="1621px" zoomAndPan="magnify"><defs><filter height="300%" id="f15c4fmtt2wqgw" width="300%" x="-1" y="-1"><feGaussianBlur result="blurOut" stdDeviation="2.0"/><feColorMatrix in="blurOut" result="blurOut2" type="matrix" values="0 0 0 0 0 0 0 0 0 0 0 0 0 0 0 0 0 0 .4 0"/><feOffset dx="4.0" dy="4.0" in="blurOut2" result="blurOut3"/><feBlend in="SourceGraphic" in2="blurOut3" mode="normal"/></filter></defs><g><!--MD5=[18fb3b8b891fcc2cffdb0edb6f0580a1]
class AIBoat--><rect codeLine="1" fill="#FEFECE" filter="url(#f15c4fmtt2wqgw)" height="48" id="AIBoat" style="stroke:#A80036;stroke-width:1.5;" width="72" x="567.5" y="331"/><ellipse cx="582.5" cy="347" fill="#ADD1B2" rx="11" ry="11" style="stroke:#A80036;stroke-width:1.0;"/><path d="M585.4688,352.6406 Q584.8906,352.9375 584.25,353.0781 Q583.6094,353.2344 582.9063,353.2344 Q580.4063,353.2344 579.0781,351.5938 Q577.7656,349.9375 577.7656,346.8125 Q577.7656,343.6875 579.0781,342.0313 Q580.4063,340.375 582.9063,340.375 Q583.6094,340.375 584.25,340.5313 Q584.9063,340.6875 585.4688,340.9844 L585.4688,343.7031 Q584.8438,343.125 584.25,342.8594 Q583.6563,342.5781 583.0313,342.5781 Q581.6875,342.5781 581,343.6563 Q580.3125,344.7188 580.3125,346.8125 Q580.3125,348.9063 581,349.9844 Q581.6875,351.0469 583.0313,351.0469 Q583.6563,351.0469 584.25,350.7813 Q584.8438,350.5 585.4688,349.9219 L585.4688,352.6406 Z " fill="#000000"/><text fill="#000000" font-family="sans-serif" font-size="12" lengthAdjust="spacing" textLength="40" x="596.5" y="351.1543">AIBoat</text><line style="stroke:#A80036;stroke-width:1.5;" x1="568.5" x2="638.5" y1="363" y2="363"/><line style="stroke:#A80036;stroke-width:1.5;" x1="568.5" x2="638.5" y1="371" y2="371"/><!--MD5=[d7378ac8501ce6417ec16634b4f30c76]
class Boat--><rect codeLine="2" fill="#FEFECE" filter="url(#f15c4fmtt2wqgw)" height="48" id="Boat" style="stroke:#A80036;stroke-width:1.5;" width="61" x="471" y="331"/><ellipse cx="486" cy="347" fill="#A9DCDF" rx="11" ry="11" style="stroke:#A80036;stroke-width:1.0;"/><path d="M486.1094,342.3438 L484.9531,347.4219 L487.2813,347.4219 L486.1094,342.3438 Z M484.625,340.1094 L487.6094,340.1094 L490.9688,352.5 L488.5156,352.5 L487.75,349.4375 L484.4688,349.4375 L483.7188,352.5 L481.2813,352.5 L484.625,340.1094 Z " fill="#000000"/><text fill="#000000" font-family="sans-serif" font-size="12" font-style="italic" lengthAdjust="spacing" textLength="29" x="500" y="351.1543">Boat</text><line style="stroke:#A80036;stroke-width:1.5;" x1="472" x2="531" y1="363" y2="363"/><line style="stroke:#A80036;stroke-width:1.5;" x1="472" x2="531" y1="371" y2="371"/><!--MD5=[7ad87d4687b1c74665962eea80f8b40b]
class BoatRace--><rect codeLine="3" fill="#FEFECE" filter="url(#f15c4fmtt2wqgw)" height="48" id="BoatRace" style="stroke:#A80036;stroke-width:1.5;" width="92" x="742.5" y="223"/><ellipse cx="757.5" cy="239" fill="#ADD1B2" rx="11" ry="11" style="stroke:#A80036;stroke-width:1.0;"/><path d="M760.4688,244.6406 Q759.8906,244.9375 759.25,245.0781 Q758.6094,245.2344 757.9063,245.2344 Q755.4063,245.2344 754.0781,243.5938 Q752.7656,241.9375 752.7656,238.8125 Q752.7656,235.6875 754.0781,234.0313 Q755.4063,232.375 757.9063,232.375 Q758.6094,232.375 759.25,232.5313 Q759.9063,232.6875 760.4688,232.9844 L760.4688,235.7031 Q759.8438,235.125 759.25,234.8594 Q758.6563,234.5781 758.0313,234.5781 Q756.6875,234.5781 756,235.6563 Q755.3125,236.7188 755.3125,238.8125 Q755.3125,240.9063 756,241.9844 Q756.6875,243.0469 758.0313,243.0469 Q758.6563,243.0469 759.25,242.7813 Q759.8438,242.5 760.4688,241.9219 L760.4688,244.6406 Z " fill="#000000"/><text fill="#000000" font-family="sans-serif" font-size="12" lengthAdjust="spacing" textLength="60" x="771.5" y="243.1543">BoatRace</text><line style="stroke:#A80036;stroke-width:1.5;" x1="743.5" x2="833.5" y1="255" y2="255"/><line style="stroke:#A80036;stroke-width:1.5;" x1="743.5" x2="833.5" y1="263" y2="263"/><!--MD5=[dad577432b370c149ed719f544827710]
class CollisionBounds--><rect codeLine="4" fill="#FEFECE" filter="url(#f15c4fmtt2wqgw)" height="48" id="CollisionBounds" style="stroke:#A80036;stroke-width:1.5;" width="130" x="310.5" y="439"/><ellipse cx="325.5" cy="455" fill="#ADD1B2" rx="11" ry="11" style="stroke:#A80036;stroke-width:1.0;"/><path d="M328.4688,460.6406 Q327.8906,460.9375 327.25,461.0781 Q326.6094,461.2344 325.9063,461.2344 Q323.4063,461.2344 322.0781,459.5938 Q320.7656,457.9375 320.7656,454.8125 Q320.7656,451.6875 322.0781,450.0313 Q323.4063,448.375 325.9063,448.375 Q326.6094,448.375 327.25,448.5313 Q327.9063,448.6875 328.4688,448.9844 L328.4688,451.7031 Q327.8438,451.125 327.25,450.8594 Q326.6563,450.5781 326.0313,450.5781 Q324.6875,450.5781 324,451.6563 Q323.3125,452.7188 323.3125,454.8125 Q323.3125,456.9063 324,457.9844 Q324.6875,459.0469 326.0313,459.0469 Q326.6563,459.0469 327.25,458.7813 Q327.8438,458.5 328.4688,457.9219 L328.4688,460.6406 Z " fill="#000000"/><text fill="#000000" font-family="sans-serif" font-size="12" lengthAdjust="spacing" textLength="98" x="339.5" y="459.1543">CollisionBounds</text><line style="stroke:#A80036;stroke-width:1.5;" x1="311.5" x2="439.5" y1="471" y2="471"/><line style="stroke:#A80036;stroke-width:1.5;" x1="311.5" x2="439.5" y1="479" y2="479"/><!--MD5=[aacfa9e8a43f0443332ec4be3ea5f7a8]
class CollisionObject--><rect codeLine="5" fill="#FEFECE" filter="url(#f15c4fmtt2wqgw)" height="48" id="CollisionObject" style="stroke:#A80036;stroke-width:1.5;" width="121" x="315" y="331"/><ellipse cx="330" cy="347" fill="#B4A7E5" rx="11" ry="11" style="stroke:#A80036;stroke-width:1.0;"/><path d="M325.9219,342.7656 L325.9219,340.6094 L333.3125,340.6094 L333.3125,342.7656 L330.8438,342.7656 L330.8438,350.8438 L333.3125,350.8438 L333.3125,353 L325.9219,353 L325.9219,350.8438 L328.3906,350.8438 L328.3906,342.7656 L325.9219,342.7656 Z " fill="#000000"/><text fill="#000000" font-family="sans-serif" font-size="12" font-style="italic" lengthAdjust="spacing" textLength="89" x="344" y="351.1543">CollisionObject</text><line style="stroke:#A80036;stroke-width:1.5;" x1="316" x2="435" y1="363" y2="363"/><line style="stroke:#A80036;stroke-width:1.5;" x1="316" x2="435" y1="371" y2="371"/><!--MD5=[064f7a74fee85463ec1a30143664ee17]
class GameObject--><rect codeLine="6" fill="#FEFECE" filter="url(#f15c4fmtt2wqgw)" height="48" id="GameObject" style="stroke:#A80036;stroke-width:1.5;" width="107" x="7" y="331"/><ellipse cx="22" cy="347" fill="#A9DCDF" rx="11" ry="11" style="stroke:#A80036;stroke-width:1.0;"/><path d="M22.1094,342.3438 L20.9531,347.4219 L23.2813,347.4219 L22.1094,342.3438 Z M20.625,340.1094 L23.6094,340.1094 L26.9688,352.5 L24.5156,352.5 L23.75,349.4375 L20.4688,349.4375 L19.7188,352.5 L17.2813,352.5 L20.625,340.1094 Z " fill="#000000"/><text fill="#000000" font-family="sans-serif" font-size="12" font-style="italic" lengthAdjust="spacing" textLength="75" x="36" y="351.1543">GameObject</text><line style="stroke:#A80036;stroke-width:1.5;" x1="8" x2="113" y1="363" y2="363"/><line style="stroke:#A80036;stroke-width:1.5;" x1="8" x2="113" y1="371" y2="371"/><!--MD5=[fe88339b2988a1ef1c95b68c104d7624]
class MoveableObject--><rect codeLine="7" fill="#FEFECE" filter="url(#f15c4fmtt2wqgw)" height="48" id="MoveableObject" style="stroke:#A80036;stroke-width:1.5;" width="130" x="149.5" y="331"/><ellipse cx="164.5" cy="347" fill="#A9DCDF" rx="11" ry="11" style="stroke:#A80036;stroke-width:1.0;"/><path d="M164.6094,342.3438 L163.4531,347.4219 L165.7813,347.4219 L164.6094,342.3438 Z M163.125,340.1094 L166.1094,340.1094 L169.4688,352.5 L167.0156,352.5 L166.25,349.4375 L162.9688,349.4375 L162.2188,352.5 L159.7813,352.5 L163.125,340.1094 Z " fill="#000000"/><text fill="#000000" font-family="sans-serif" font-size="12" font-style="italic" lengthAdjust="spacing" textLength="98" x="178.5" y="351.1543">MoveableObject</text><line style="stroke:#A80036;stroke-width:1.5;" x1="150.5" x2="278.5" y1="363" y2="363"/><line style="stroke:#A80036;stroke-width:1.5;" x1="150.5" x2="278.5" y1="371" y2="371"/><!--MD5=[23868d926b4091f874f65c50fc3e197e]
class Obstacle--><rect codeLine="8" fill="#FEFECE" filter="url(#f15c4fmtt2wqgw)" height="48" id="Obstacle" style="stroke:#A80036;stroke-width:1.5;" width="85" x="809" y="331"/><ellipse cx="824" cy="347" fill="#A9DCDF" rx="11" ry="11" style="stroke:#A80036;stroke-width:1.0;"/><path d="M824.1094,342.3438 L822.9531,347.4219 L825.2813,347.4219 L824.1094,342.3438 Z M822.625,340.1094 L825.6094,340.1094 L828.9688,352.5 L826.5156,352.5 L825.75,349.4375 L822.4688,349.4375 L821.7188,352.5 L819.2813,352.5 L822.625,340.1094 Z " fill="#000000"/><text fill="#000000" font-family="sans-serif" font-size="12" font-style="italic" lengthAdjust="spacing" textLength="53" x="838" y="351.1543">Obstacle</text><line style="stroke:#A80036;stroke-width:1.5;" x1="810" x2="893" y1="363" y2="363"/><line style="stroke:#A80036;stroke-width:1.5;" x1="810" x2="893" y1="371" y2="371"/><!--MD5=[4547f04c185f2c4543cd5e5112560fdc]
class ObstacleBranch--><rect codeLine="9" fill="#FEFECE" filter="url(#f15c4fmtt2wqgw)" height="48" id="ObstacleBranch" style="stroke:#A80036;stroke-width:1.5;" width="131" x="1260" y="331"/><ellipse cx="1275" cy="347" fill="#ADD1B2" rx="11" ry="11" style="stroke:#A80036;stroke-width:1.0;"/><path d="M1277.9688,352.6406 Q1277.3906,352.9375 1276.75,353.0781 Q1276.1094,353.2344 1275.4063,353.2344 Q1272.9063,353.2344 1271.5781,351.5938 Q1270.2656,349.9375 1270.2656,346.8125 Q1270.2656,343.6875 1271.5781,342.0313 Q1272.9063,340.375 1275.4063,340.375 Q1276.1094,340.375 1276.75,340.5313 Q1277.4063,340.6875 1277.9688,340.9844 L1277.9688,343.7031 Q1277.3438,343.125 1276.75,342.8594 Q1276.1563,342.5781 1275.5313,342.5781 Q1274.1875,342.5781 1273.5,343.6563 Q1272.8125,344.7188 1272.8125,346.8125 Q1272.8125,348.9063 1273.5,349.9844 Q1274.1875,351.0469 1275.5313,351.0469 Q1276.1563,351.0469 1276.75,350.7813 Q1277.3438,350.5 1277.9688,349.9219 L1277.9688,352.6406 Z " fill="#000000"/><text fill="#000000" font-family="sans-serif" font-size="12" lengthAdjust="spacing" textLength="99" x="1289" y="351.1543">ObstacleBranch</text><line style="stroke:#A80036;stroke-width:1.5;" x1="1261" x2="1390" y1="363" y2="363"/><line style="stroke:#A80036;stroke-width:1.5;" x1="1261" x2="1390" y1="371" y2="371"/><!--MD5=[b19bd0575d5e9b89c418741af47506da]
class ObstacleDuck--><rect codeLine="10" fill="#FEFECE" filter="url(#f15c4fmtt2wqgw)" height="48" id="ObstacleDuck" style="stroke:#A80036;stroke-width:1.5;" width="118" x="1106.5" y="331"/><ellipse cx="1121.5" cy="347" fill="#ADD1B2" rx="11" ry="11" style="stroke:#A80036;stroke-width:1.0;"/><path d="M1124.4688,352.6406 Q1123.8906,352.9375 1123.25,353.0781 Q1122.6094,353.2344 1121.9063,353.2344 Q1119.4063,353.2344 1118.0781,351.5938 Q1116.7656,349.9375 1116.7656,346.8125 Q1116.7656,343.6875 1118.0781,342.0313 Q1119.4063,340.375 1121.9063,340.375 Q1122.6094,340.375 1123.25,340.5313 Q1123.9063,340.6875 1124.4688,340.9844 L1124.4688,343.7031 Q1123.8438,343.125 1123.25,342.8594 Q1122.6563,342.5781 1122.0313,342.5781 Q1120.6875,342.5781 1120,343.6563 Q1119.3125,344.7188 1119.3125,346.8125 Q1119.3125,348.9063 1120,349.9844 Q1120.6875,351.0469 1122.0313,351.0469 Q1122.6563,351.0469 1123.25,350.7813 Q1123.8438,350.5 1124.4688,349.9219 L1124.4688,352.6406 Z " fill="#000000"/><text fill="#000000" font-family="sans-serif" font-size="12" lengthAdjust="spacing" textLength="86" x="1135.5" y="351.1543">ObstacleDuck</text><line style="stroke:#A80036;stroke-width:1.5;" x1="1107.5" x2="1223.5" y1="363" y2="363"/><line style="stroke:#A80036;stroke-width:1.5;" x1="1107.5" x2="1223.5" y1="371" y2="371"/><!--MD5=[984dbebc17ca09c7aea9ae108686ba45]
class ObstacleFloatingBranch--><rect codeLine="11" fill="#FEFECE" filter="url(#f15c4fmtt2wqgw)" height="48" id="ObstacleFloatingBranch" style="stroke:#A80036;stroke-width:1.5;" width="181" x="1426" y="331"/><ellipse cx="1441" cy="347" fill="#ADD1B2" rx="11" ry="11" style="stroke:#A80036;stroke-width:1.0;"/><path d="M1443.9688,352.6406 Q1443.3906,352.9375 1442.75,353.0781 Q1442.1094,353.2344 1441.4063,353.2344 Q1438.9063,353.2344 1437.5781,351.5938 Q1436.2656,349.9375 1436.2656,346.8125 Q1436.2656,343.6875 1437.5781,342.0313 Q1438.9063,340.375 1441.4063,340.375 Q1442.1094,340.375 1442.75,340.5313 Q1443.4063,340.6875 1443.9688,340.9844 L1443.9688,343.7031 Q1443.3438,343.125 1442.75,342.8594 Q1442.1563,342.5781 1441.5313,342.5781 Q1440.1875,342.5781 1439.5,343.6563 Q1438.8125,344.7188 1438.8125,346.8125 Q1438.8125,348.9063 1439.5,349.9844 Q1440.1875,351.0469 1441.5313,351.0469 Q1442.1563,351.0469 1442.75,350.7813 Q1443.3438,350.5 1443.9688,349.9219 L1443.9688,352.6406 Z " fill="#000000"/><text fill="#000000" font-family="sans-serif" font-size="12" lengthAdjust="spacing" textLength="149" x="1455" y="351.1543">ObstacleFloatingBranch</text><line style="stroke:#A80036;stroke-width:1.5;" x1="1427" x2="1606" y1="363" y2="363"/><line style="stroke:#A80036;stroke-width:1.5;" x1="1427" x2="1606" y1="371" y2="371"/><!--MD5=[be48d278c37504bf038512057d0f5275]
class ObstacleLaneWall--><rect codeLine="12" fill="#FEFECE" filter="url(#f15c4fmtt2wqgw)" height="48" id="ObstacleLaneWall" style="stroke:#A80036;stroke-width:1.5;" width="142" x="929.5" y="331"/><ellipse cx="944.5" cy="347" fill="#ADD1B2" rx="11" ry="11" style="stroke:#A80036;stroke-width:1.0;"/><path d="M947.4688,352.6406 Q946.8906,352.9375 946.25,353.0781 Q945.6094,353.2344 944.9063,353.2344 Q942.4063,353.2344 941.0781,351.5938 Q939.7656,349.9375 939.7656,346.8125 Q939.7656,343.6875 941.0781,342.0313 Q942.4063,340.375 944.9063,340.375 Q945.6094,340.375 946.25,340.5313 Q946.9063,340.6875 947.4688,340.9844 L947.4688,343.7031 Q946.8438,343.125 946.25,342.8594 Q945.6563,342.5781 945.0313,342.5781 Q943.6875,342.5781 943,343.6563 Q942.3125,344.7188 942.3125,346.8125 Q942.3125,348.9063 943,349.9844 Q943.6875,351.0469 945.0313,351.0469 Q945.6563,351.0469 946.25,350.7813 Q946.8438,350.5 947.4688,349.9219 L947.4688,352.6406 Z " fill="#000000"/><text fill="#000000" font-family="sans-serif" font-size="12" lengthAdjust="spacing" textLength="110" x="958.5" y="351.1543">ObstacleLaneWall</text><line style="stroke:#A80036;stroke-width:1.5;" x1="930.5" x2="1070.5" y1="363" y2="363"/><line style="stroke:#A80036;stroke-width:1.5;" x1="930.5" x2="1070.5" y1="371" y2="371"/><!--MD5=[3c83b70202e58b87ef51d700e986ab12]
class PixelBoat--><rect codeLine="13" fill="#FEFECE" filter="url(#f15c4fmtt2wqgw)" height="48" id="PixelBoat" style="stroke:#A80036;stroke-width:1.5;" width="89" x="542" y="7"/><ellipse cx="557" cy="23" fill="#ADD1B2" rx="11" ry="11" style="stroke:#A80036;stroke-width:1.0;"/><path d="M559.9688,28.6406 Q559.3906,28.9375 558.75,29.0781 Q558.1094,29.2344 557.4063,29.2344 Q554.9063,29.2344 553.5781,27.5938 Q552.2656,25.9375 552.2656,22.8125 Q552.2656,19.6875 553.5781,18.0313 Q554.9063,16.375 557.4063,16.375 Q558.1094,16.375 558.75,16.5313 Q559.4063,16.6875 559.9688,16.9844 L559.9688,19.7031 Q559.3438,19.125 558.75,18.8594 Q558.1563,18.5781 557.5313,18.5781 Q556.1875,18.5781 555.5,19.6563 Q554.8125,20.7188 554.8125,22.8125 Q554.8125,24.9063 555.5,25.9844 Q556.1875,27.0469 557.5313,27.0469 Q558.1563,27.0469 558.75,26.7813 Q559.3438,26.5 559.9688,25.9219 L559.9688,28.6406 Z " fill="#000000"/><text fill="#000000" font-family="sans-serif" font-size="12" lengthAdjust="spacing" textLength="57" x="571" y="27.1543">PixelBoat</text><line style="stroke:#A80036;stroke-width:1.5;" x1="543" x2="630" y1="39" y2="39"/><line style="stroke:#A80036;stroke-width:1.5;" x1="543" x2="630" y1="47" y2="47"/><!--MD5=[8b809054524057386b660902a6971129]
class PlayerBoat--><rect codeLine="14" fill="#FEFECE" filter="url(#f15c4fmtt2wqgw)" height="48" id="PlayerBoat" style="stroke:#A80036;stroke-width:1.5;" width="99" x="675" y="331"/><ellipse cx="690" cy="347" fill="#ADD1B2" rx="11" ry="11" style="stroke:#A80036;stroke-width:1.0;"/><path d="M692.9688,352.6406 Q692.3906,352.9375 691.75,353.0781 Q691.1094,353.2344 690.4063,353.2344 Q687.9063,353.2344 686.5781,351.5938 Q685.2656,349.9375 685.2656,346.8125 Q685.2656,343.6875 686.5781,342.0313 Q687.9063,340.375 690.4063,340.375 Q691.1094,340.375 691.75,340.5313 Q692.4063,340.6875 692.9688,340.9844 L692.9688,343.7031 Q692.3438,343.125 691.75,342.8594 Q691.1563,342.5781 690.5313,342.5781 Q689.1875,342.5781 688.5,343.6563 Q687.8125,344.7188 687.8125,346.8125 Q687.8125,348.9063 688.5,349.9844 Q689.1875,351.0469 690.5313,351.0469 Q691.1563,351.0469 691.75,350.7813 Q692.3438,350.5 692.9688,349.9219 L692.9688,352.6406 Z " fill="#000000"/><text fill="#000000" font-family="sans-serif" font-size="12" lengthAdjust="spacing" textLength="67" x="704" y="351.1543">PlayerBoat</text><line style="stroke:#A80036;stroke-width:1.5;" x1="676" x2="773" y1="363" y2="363"/><line style="stroke:#A80036;stroke-width:1.5;" x1="676" x2="773" y1="371" y2="371"/><!--MD5=[450cdf3cb19eded7e4eade1b5b010c8a]
class ResultsScreen--><rect codeLine="15" fill="#FEFECE" filter="url(#f15c4fmtt2wqgw)" height="48" id="ResultsScreen" style="stroke:#A80036;stroke-width:1.5;" width="122" x="869.5" y="223"/><ellipse cx="884.5" cy="239" fill="#ADD1B2" rx="11" ry="11" style="stroke:#A80036;stroke-width:1.0;"/><path d="M887.4688,244.6406 Q886.8906,244.9375 886.25,245.0781 Q885.6094,245.2344 884.9063,245.2344 Q882.4063,245.2344 881.0781,243.5938 Q879.7656,241.9375 879.7656,238.8125 Q879.7656,235.6875 881.0781,234.0313 Q882.4063,232.375 884.9063,232.375 Q885.6094,232.375 886.25,232.5313 Q886.9063,232.6875 887.4688,232.9844 L887.4688,235.7031 Q886.8438,235.125 886.25,234.8594 Q885.6563,234.5781 885.0313,234.5781 Q883.6875,234.5781 883,235.6563 Q882.3125,236.7188 882.3125,238.8125 Q882.3125,240.9063 883,241.9844 Q883.6875,243.0469 885.0313,243.0469 Q885.6563,243.0469 886.25,242.7813 Q886.8438,242.5 887.4688,241.9219 L887.4688,244.6406 Z " fill="#000000"/><text fill="#000000" font-family="sans-serif" font-size="12" lengthAdjust="spacing" textLength="90" x="898.5" y="243.1543">ResultsScreen</text><line style="stroke:#A80036;stroke-width:1.5;" x1="870.5" x2="990.5" y1="255" y2="255"/><line style="stroke:#A80036;stroke-width:1.5;" x1="870.5" x2="990.5" y1="263" y2="263"/><!--MD5=[e4faacc5b8aef66b11ab0c816bbbc7f8]
class Scene--><rect codeLine="16" fill="#FEFECE" filter="url(#f15c4fmtt2wqgw)" height="48" id="Scene" style="stroke:#A80036;stroke-width:1.5;" width="71" x="162" y="115"/><ellipse cx="177" cy="131" fill="#B4A7E5" rx="11" ry="11" style="stroke:#A80036;stroke-width:1.0;"/><path d="M172.9219,126.7656 L172.9219,124.6094 L180.3125,124.6094 L180.3125,126.7656 L177.8438,126.7656 L177.8438,134.8438 L180.3125,134.8438 L180.3125,137 L172.9219,137 L172.9219,134.8438 L175.3906,134.8438 L175.3906,126.7656 L172.9219,126.7656 Z " fill="#000000"/><text fill="#000000" font-family="sans-serif" font-size="12" font-style="italic" lengthAdjust="spacing" textLength="39" x="191" y="135.1543">Scene</text><line style="stroke:#A80036;stroke-width:1.5;" x1="163" x2="232" y1="147" y2="147"/><line style="stroke:#A80036;stroke-width:1.5;" x1="163" x2="232" y1="155" y2="155"/><!--MD5=[191f5a5662fedcdee87af3bba77ae1e5]
class SceneMainGame--><rect codeLine="17" fill="#FEFECE" filter="url(#f15c4fmtt2wqgw)" height="48" id="SceneMainGame" style="stroke:#A80036;stroke-width:1.5;" width="136" x="791.5" y="115"/><ellipse cx="806.5" cy="131" fill="#ADD1B2" rx="11" ry="11" style="stroke:#A80036;stroke-width:1.0;"/><path d="M809.4688,136.6406 Q808.8906,136.9375 808.25,137.0781 Q807.6094,137.2344 806.9063,137.2344 Q804.4063,137.2344 803.0781,135.5938 Q801.7656,133.9375 801.7656,130.8125 Q801.7656,127.6875 803.0781,126.0313 Q804.4063,124.375 806.9063,124.375 Q807.6094,124.375 808.25,124.5313 Q808.9063,124.6875 809.4688,124.9844 L809.4688,127.7031 Q808.8438,127.125 808.25,126.8594 Q807.6563,126.5781 807.0313,126.5781 Q805.6875,126.5781 805,127.6563 Q804.3125,128.7188 804.3125,130.8125 Q804.3125,132.9063 805,133.9844 Q805.6875,135.0469 807.0313,135.0469 Q807.6563,135.0469 808.25,134.7813 Q808.8438,134.5 809.4688,133.9219 L809.4688,136.6406 Z " fill="#000000"/><text fill="#000000" font-family="sans-serif" font-size="12" lengthAdjust="spacing" textLength="104" x="820.5" y="135.1543">SceneMainGame</text><line style="stroke:#A80036;stroke-width:1.5;" x1="792.5" x2="926.5" y1="147" y2="147"/><line style="stroke:#A80036;stroke-width:1.5;" x1="792.5" x2="926.5" y1="155" y2="155"/><!--MD5=[10fad2eef0002dd70ab0ee7e095a83d7]
class SceneOptionsMenu--><rect codeLine="18" fill="#FEFECE" filter="url(#f15c4fmtt2wqgw)" height="48" id="SceneOptionsMenu" style="stroke:#A80036;stroke-width:1.5;" width="153" x="603" y="115"/><ellipse cx="618" cy="131" fill="#ADD1B2" rx="11" ry="11" style="stroke:#A80036;stroke-width:1.0;"/><path d="M620.9688,136.6406 Q620.3906,136.9375 619.75,137.0781 Q619.1094,137.2344 618.4063,137.2344 Q615.9063,137.2344 614.5781,135.5938 Q613.2656,133.9375 613.2656,130.8125 Q613.2656,127.6875 614.5781,126.0313 Q615.9063,124.375 618.4063,124.375 Q619.1094,124.375 619.75,124.5313 Q620.4063,124.6875 620.9688,124.9844 L620.9688,127.7031 Q620.3438,127.125 619.75,126.8594 Q619.1563,126.5781 618.5313,126.5781 Q617.1875,126.5781 616.5,127.6563 Q615.8125,128.7188 615.8125,130.8125 Q615.8125,132.9063 616.5,133.9844 Q617.1875,135.0469 618.5313,135.0469 Q619.1563,135.0469 619.75,134.7813 Q620.3438,134.5 620.9688,133.9219 L620.9688,136.6406 Z " fill="#000000"/><text fill="#000000" font-family="sans-serif" font-size="12" lengthAdjust="spacing" textLength="121" x="632" y="135.1543">SceneOptionsMenu</text><line style="stroke:#A80036;stroke-width:1.5;" x1="604" x2="755" y1="147" y2="147"/><line style="stroke:#A80036;stroke-width:1.5;" x1="604" x2="755" y1="155" y2="155"/><!--MD5=[705050e7dc8a0f9ad873dfab94d81211]
class SceneStartScreen--><rect codeLine="19" fill="#FEFECE" filter="url(#f15c4fmtt2wqgw)" height="48" id="SceneStartScreen" style="stroke:#A80036;stroke-width:1.5;" width="146" x="421.5" y="115"/><ellipse cx="436.5" cy="131" fill="#ADD1B2" rx="11" ry="11" style="stroke:#A80036;stroke-width:1.0;"/><path d="M439.4688,136.6406 Q438.8906,136.9375 438.25,137.0781 Q437.6094,137.2344 436.9063,137.2344 Q434.4063,137.2344 433.0781,135.5938 Q431.7656,133.9375 431.7656,130.8125 Q431.7656,127.6875 433.0781,126.0313 Q434.4063,124.375 436.9063,124.375 Q437.6094,124.375 438.25,124.5313 Q438.9063,124.6875 439.4688,124.9844 L439.4688,127.7031 Q438.8438,127.125 438.25,126.8594 Q437.6563,126.5781 437.0313,126.5781 Q435.6875,126.5781 435,127.6563 Q434.3125,128.7188 434.3125,130.8125 Q434.3125,132.9063 435,133.9844 Q435.6875,135.0469 437.0313,135.0469 Q437.6563,135.0469 438.25,134.7813 Q438.8438,134.5 439.4688,133.9219 L439.4688,136.6406 Z " fill="#000000"/><text fill="#000000" font-family="sans-serif" font-size="12" lengthAdjust="spacing" textLength="114" x="450.5" y="135.1543">SceneStartScreen</text><line style="stroke:#A80036;stroke-width:1.5;" x1="422.5" x2="566.5" y1="147" y2="147"/><line style="stroke:#A80036;stroke-width:1.5;" x1="422.5" x2="566.5" y1="155" y2="155"/><!--MD5=[eb8347e17286b04f108bb989edee2135]
class SceneTutorial--><rect codeLine="20" fill="#FEFECE" filter="url(#f15c4fmtt2wqgw)" height="48" id="SceneTutorial" style="stroke:#A80036;stroke-width:1.5;" width="118" x="268.5" y="115"/><ellipse cx="283.5" cy="131" fill="#ADD1B2" rx="11" ry="11" style="stroke:#A80036;stroke-width:1.0;"/><path d="M286.4688,136.6406 Q285.8906,136.9375 285.25,137.0781 Q284.6094,137.2344 283.9063,137.2344 Q281.4063,137.2344 280.0781,135.5938 Q278.7656,133.9375 278.7656,130.8125 Q278.7656,127.6875 280.0781,126.0313 Q281.4063,124.375 283.9063,124.375 Q284.6094,124.375 285.25,124.5313 Q285.9063,124.6875 286.4688,124.9844 L286.4688,127.7031 Q285.8438,127.125 285.25,126.8594 Q284.6563,126.5781 284.0313,126.5781 Q282.6875,126.5781 282,127.6563 Q281.3125,128.7188 281.3125,130.8125 Q281.3125,132.9063 282,133.9844 Q282.6875,135.0469 284.0313,135.0469 Q284.6563,135.0469 285.25,134.7813 Q285.8438,134.5 286.4688,133.9219 L286.4688,136.6406 Z " fill="#000000"/><text fill="#000000" font-family="sans-serif" font-size="12" lengthAdjust="spacing" textLength="86" x="297.5" y="135.1543">SceneTutorial</text><line style="stroke:#A80036;stroke-width:1.5;" x1="269.5" x2="385.5" y1="147" y2="147"/><line style="stroke:#A80036;stroke-width:1.5;" x1="269.5" x2="385.5" y1="155" y2="155"/><!--MD5=[f5f7bafad988ab79c27664226104c3e3]
class RaceThread--><rect codeLine="21" fill="#FEFECE" filter="url(#f15c4fmtt2wqgw)" height="48" id="RaceThread" style="stroke:#A80036;stroke-width:1.5;" width="107" x="1027" y="223"/><ellipse cx="1042" cy="239" fill="#ADD1B2" rx="11" ry="11" style="stroke:#A80036;stroke-width:1.0;"/><path d="M1044.9688,244.6406 Q1044.3906,244.9375 1043.75,245.0781 Q1043.1094,245.2344 1042.4063,245.2344 Q1039.9063,245.2344 1038.5781,243.5938 Q1037.2656,241.9375 1037.2656,238.8125 Q1037.2656,235.6875 1038.5781,234.0313 Q1039.9063,232.375 1042.4063,232.375 Q1043.1094,232.375 1043.75,232.5313 Q1044.4063,232.6875 1044.9688,232.9844 L1044.9688,235.7031 Q1044.3438,235.125 1043.75,234.8594 Q1043.1563,234.5781 1042.5313,234.5781 Q1041.1875,234.5781 1040.5,235.6563 Q1039.8125,236.7188 1039.8125,238.8125 Q1039.8125,240.9063 1040.5,241.9844 Q1041.1875,243.0469 1042.5313,243.0469 Q1043.1563,243.0469 1043.75,242.7813 Q1044.3438,242.5 1044.9688,241.9219 L1044.9688,244.6406 Z " fill="#000000"/><text fill="#000000" font-family="sans-serif" font-size="12" lengthAdjust="spacing" textLength="75" x="1056" y="243.1543">RaceThread</text><line style="stroke:#A80036;stroke-width:1.5;" x1="1028" x2="1133" y1="255" y2="255"/><line style="stroke:#A80036;stroke-width:1.5;" x1="1028" x2="1133" y1="263" y2="263"/><!--MD5=[67eb2a2e46f9471956d08809acd99ce2]
reverse link GameObject to MoveableObject--><path codeLine="25" d="M134.1815,355 C139.2401,355 144.2988,355 149.3574,355 " fill="none" id="GameObject-backto-MoveableObject" style="stroke:#A80036;stroke-width:1.0;"/><polygon fill="none" points="134.0391,361.9999,114.0391,355,134.039,347.9999,134.0391,361.9999" style="stroke:#A80036;stroke-width:1.0;"/><!--MD5=[4dcd3dfe2fa9670111ad6516839d5bfa]
reverse link MoveableObject to Obstacle--><path codeLine="27" d="M266.3578,320.8941 C281.4325,312.7427 298.3399,305.1924 315,301 C413.9162,276.1083 676.6855,270.4403 774,301 C792.9312,306.945 811.2803,319.3339 825.3682,330.7471 " fill="none" id="MoveableObject-backto-Obstacle" style="stroke:#A80036;stroke-width:1.0;"/><polygon fill="none" points="269.8316,326.9715,249.0188,330.9501,262.8078,314.8609,269.8316,326.9715" style="stroke:#A80036;stroke-width:1.0;"/><!--MD5=[5261a6ab5a16501f424602d3127a7c44]
reverse link CollisionObject to Obstacle--><path codeLine="28" d="M425.5346,320.3729 C439.619,312.4276 455.3748,305.1117 471,301 C601.2331,266.7298 645.5195,260.6532 774,301 C792.9312,306.945 811.2803,319.3339 825.3682,330.7471 " fill="none" id="CollisionObject-backto-Obstacle" style="stroke:#A80036;stroke-width:1.0;"/><polygon fill="none" points="428.8576,326.5449,408.1338,330.9636,421.5789,314.5858,428.8576,326.5449" style="stroke:#A80036;stroke-width:1.0;"/><!--MD5=[2447f226540ec9c560347afc2c55664a]
reverse link Obstacle to ObstacleBranch--><path codeLine="29" d="M894.5151,318.6651 C905.4351,311.4144 917.6059,304.8513 930,301 C1055.2056,262.0939 1097.8529,269.0042 1225,301 C1248.434,306.897 1272.3573,319.4375 1290.9812,330.9501 " fill="none" id="Obstacle-backto-ObstacleBranch" style="stroke:#A80036;stroke-width:1.0;"/><polygon fill="none" points="898.2926,324.5751,878.0203,330.7425,890.0219,313.2792,898.2926,324.5751" style="stroke:#A80036;stroke-width:1.0;"/><!--MD5=[74ea1e852bbb142d1f2055725197de01]
reverse link Obstacle to ObstacleDuck--><path codeLine="30" d="M894.5151,318.6651 C905.4351,311.4144 917.6059,304.8513 930,301 C990.2684,282.2723 1011.0405,284.6613 1072,301 C1094.0897,306.9206 1116.3601,319.4622 1133.6221,330.9695 " fill="none" id="Obstacle-backto-ObstacleDuck" style="stroke:#A80036;stroke-width:1.0;"/><polygon fill="none" points="898.2926,324.5751,878.0203,330.7425,890.0219,313.2792,898.2926,324.5751" style="stroke:#A80036;stroke-width:1.0;"/><!--MD5=[d39e13981833993a391e28dcff3f4c08]
reverse link ObstacleBranch to ObstacleFloatingBranch--><path codeLine="31" d="M1411.2538,355 C1416.1424,355 1421.031,355 1425.9196,355 " fill="none" id="ObstacleBranch-backto-ObstacleFloatingBranch" style="stroke:#A80036;stroke-width:1.0;"/><polygon fill="none" points="1411.1563,361.9999,1391.1563,355,1411.1562,347.9999,1411.1563,361.9999" style="stroke:#A80036;stroke-width:1.0;"/><!--MD5=[8e2ecfac9517fa4870172ee422e4ef6e]
reverse link Obstacle to ObstacleLaneWall--><path codeLine="32" d="M914.4291,355 C919.3304,355 924.2317,355 929.133,355 " fill="none" id="Obstacle-backto-ObstacleLaneWall" style="stroke:#A80036;stroke-width:1.0;"/><polygon fill="none" points="914.2793,361.9999,894.2793,355,914.2793,347.9999,914.2793,361.9999" style="stroke:#A80036;stroke-width:1.0;"/><!--MD5=[556f525838ff4f21499678df80e5dac3]
reverse link MoveableObject to Boat--><path codeLine="34" d="M266.3578,320.8941 C281.4325,312.7427 298.3399,305.1924 315,301 C367.1519,287.8763 385.3861,282.8262 436,301 C452.7836,307.0264 468.3344,319.4198 480.0683,330.8151 " fill="none" id="MoveableObject-backto-Boat" style="stroke:#A80036;stroke-width:1.0;"/><polygon fill="none" points="269.8316,326.9715,249.0188,330.9501,262.8078,314.8609,269.8316,326.9715" style="stroke:#A80036;stroke-width:1.0;"/><!--MD5=[02282af48b966665939bd48eb72da4be]
reverse link CollisionObject to Boat--><path codeLine="35" d="M456.144,355 C461.0344,355 465.9248,355 470.8152,355 " fill="none" id="CollisionObject-backto-Boat" style="stroke:#A80036;stroke-width:1.0;"/><polygon fill="none" points="456.0391,361.9999,436.0391,355,456.039,347.9999,456.0391,361.9999" style="stroke:#A80036;stroke-width:1.0;"/><!--MD5=[98cb05a5852845d19943ffcf66c8c39b]
reverse link Boat to PlayerBoat--><path codeLine="36" d="M538.2756,317.4433 C547.0028,310.709 556.7725,304.6724 567,301 C597.1173,290.1858 608.2609,292.1056 639,301 C659.5748,306.9533 679.9573,319.4964 695.658,330.9964 " fill="none" id="Boat-backto-PlayerBoat" style="stroke:#A80036;stroke-width:1.0;"/><polygon fill="none" points="542.6086,322.9524,522.9317,330.8151,533.4107,312.3978,542.6086,322.9524" style="stroke:#A80036;stroke-width:1.0;"/><!--MD5=[2f77c2c140af5a9927a9dd3039ffea70]
reverse link Boat to AIBoat--><path codeLine="37" d="M552.1993,355 C557.2271,355 562.2549,355 567.2827,355 " fill="none" id="Boat-backto-AIBoat" style="stroke:#A80036;stroke-width:1.0;"/><polygon fill="none" points="552.1797,361.9999,532.1797,355,552.1797,347.9999,552.1797,361.9999" style="stroke:#A80036;stroke-width:1.0;"/><!--MD5=[a0aa917fa3c85539bb76fa1aa9e5e473]
reverse link Scene to SceneMainGame--><path codeLine="39" d="M236.7322,101.9278 C246.2871,94.9871 256.9577,88.743 268,85 C370.7043,50.186 650.6752,59.1757 756,85 C780.0149,90.8881 804.6467,103.4282 823.8533,114.9428 " fill="none" id="Scene-backto-SceneMainGame" style="stroke:#A80036;stroke-width:1.0;"/><polygon fill="none" points="240.8378,107.6111,220.899,114.7837,232.013,96.7426,240.8378,107.6111" style="stroke:#A80036;stroke-width:1.0;"/><!--MD5=[f5866c8437053a6f5437e389243267e3]
reverse link Scene to SceneOptionsMenu--><path codeLine="40" d="M236.7322,101.9278 C246.2871,94.9871 256.9577,88.743 268,85 C393.8549,42.3385 437.424,55.5123 567,85 C592.772,90.865 619.5302,103.4039 640.4814,114.9237 " fill="none" id="Scene-backto-SceneOptionsMenu" style="stroke:#A80036;stroke-width:1.0;"/><polygon fill="none" points="240.8378,107.6111,220.899,114.7837,232.013,96.7426,240.8378,107.6111" style="stroke:#A80036;stroke-width:1.0;"/><!--MD5=[97fbcc543611354a47a07c5f8f6cae89]
reverse link Scene to SceneStartScreen--><path codeLine="41" d="M236.7322,101.9278 C246.2871,94.9871 256.9577,88.743 268,85 C317.6685,68.1637 334.9474,72.9978 386,85 C410.9885,90.8747 436.8015,103.4141 456.9779,114.9317 " fill="none" id="Scene-backto-SceneStartScreen" style="stroke:#A80036;stroke-width:1.0;"/><polygon fill="none" points="240.8378,107.6111,220.899,114.7837,232.013,96.7426,240.8378,107.6111" style="stroke:#A80036;stroke-width:1.0;"/><!--MD5=[dc132ea77ed0156e517550f67054d034]
reverse link Scene to SceneTutorial--><path codeLine="42" d="M253.2473,139 C258.3205,139 263.3936,139 268.4668,139 " fill="none" id="Scene-backto-SceneTutorial" style="stroke:#A80036;stroke-width:1.0;"/><polygon fill="none" points="253.0469,145.9999,233.0469,139,253.0468,131.9999,253.0469,145.9999" style="stroke:#A80036;stroke-width:1.0;"/><!--MD5=[a4805e0ae02cde47a35b7df8b44072fa]
reverse link PixelBoat to SceneMainGame--><path codeLine="46" d="M643.5672,53.576 C688.941,71.5261 752.2736,96.5808 798.6167,114.9143 " fill="none" id="PixelBoat-backto-SceneMainGame" style="stroke:#A80036;stroke-width:1.0;"/><polygon fill="#A80036" points="631.2747,48.7131,635.3825,54.6398,642.4332,53.1275,638.3254,47.2008,631.2747,48.7131" style="stroke:#A80036;stroke-width:1.0;"/><text fill="#000000" font-family="sans-serif" font-size="13" lengthAdjust="spacing" textLength="8" x="639.0482" y="47.4183">1</text><text fill="#000000" font-family="sans-serif" font-size="13" lengthAdjust="spacing" textLength="8" x="775.6124" y="104.6924">1</text><!--MD5=[f3c77e877333280ea32333856addcbe6]
reverse link PixelBoat to SceneOptionsMenu--><path codeLine="47" d="M616.0874,65.3595 C629.9558,81.4648 646.1479,100.2685 658.6986,114.8436 " fill="none" id="PixelBoat-backto-SceneOptionsMenu" style="stroke:#A80036;stroke-width:1.0;"/><polygon fill="#A80036" points="607.371,55.2373,608.2551,62.394,615.2013,64.3305,614.3172,57.1738,607.371,55.2373" style="stroke:#A80036;stroke-width:1.0;"/><text fill="#000000" font-family="sans-serif" font-size="13" lengthAdjust="spacing" textLength="8" x="603.4833" y="75.0563">1</text><text fill="#000000" font-family="sans-serif" font-size="13" lengthAdjust="spacing" textLength="8" x="644.3432" y="103.8156">1</text><!--MD5=[43e0c177b5f6e6fc119675eb6fdb340f]
reverse link PixelBoat to SceneStartScreen--><path codeLine="48" d="M557.2308,65.3595 C543.5115,81.4648 527.4935,100.2685 515.0777,114.8436 " fill="none" id="PixelBoat-backto-SceneStartScreen" style="stroke:#A80036;stroke-width:1.0;"/><polygon fill="#A80036" points="565.8534,55.2373,558.9176,57.211,558.0719,64.3723,565.0076,62.3986,565.8534,55.2373" style="stroke:#A80036;stroke-width:1.0;"/><text fill="#000000" font-family="sans-serif" font-size="13" lengthAdjust="spacing" textLength="8" x="551.8458" y="75.0563">1</text><text fill="#000000" font-family="sans-serif" font-size="13" lengthAdjust="spacing" textLength="8" x="511.3257" y="103.8156">1</text><!--MD5=[81a756b288c897a1f2c95945e59f9d82]
reverse link PixelBoat to SceneTutorial--><path codeLine="49" d="M529.8021,54.6424 C487.0429,72.4724 428.5981,96.8433 385.5201,114.8063 " fill="none" id="PixelBoat-backto-SceneTutorial" style="stroke:#A80036;stroke-width:1.0;"/><polygon fill="#A80036" points="541.9763,49.5659,534.899,48.1832,530.9006,54.1843,537.978,55.567,541.9763,49.5659" style="stroke:#A80036;stroke-width:1.0;"/><text fill="#000000" font-family="sans-serif" font-size="13" lengthAdjust="spacing" textLength="8" x="525.9396" y="48.4766">1</text><text fill="#000000" font-family="sans-serif" font-size="13" lengthAdjust="spacing" textLength="8" x="391.3628" y="103.7687">1</text><!--MD5=[9956ec25f5cdc2df3ee74f0be5f0dcce]
reverse link BoatRace to Obstacle--><path codeLine="51" d="M809.3521,282.7464 C818.5626,298.5358 829.1496,316.6849 837.4088,330.8436 " fill="none" id="BoatRace-backto-Obstacle" style="stroke:#A80036;stroke-width:1.0;"/><polygon fill="#A80036" points="802.6384,271.2373,802.2066,278.4355,808.6849,281.6026,809.1168,274.4044,802.6384,271.2373" style="stroke:#A80036;stroke-width:1.0;"/><text fill="#000000" font-family="sans-serif" font-size="13" lengthAdjust="spacing" textLength="8" x="797.1096" y="291.0563">1</text><text fill="#000000" font-family="sans-serif" font-size="13" lengthAdjust="spacing" textLength="23" x="807.8511" y="319.8156">0..*</text><!--MD5=[dea9aff65749270c567862b6383c97c5]
reverse link SceneMainGame to BoatRace--><path codeLine="53" d="M836.3049,174.2827 C825.8542,190.1796 813.7799,208.5461 804.3806,222.8436 " fill="none" id="SceneMainGame-backto-BoatRace" style="stroke:#A80036;stroke-width:1.0;"/><polygon fill="#A80036" points="843.5662,163.2373,836.9278,166.0536,836.9742,173.2645,843.6126,170.4483,843.5662,163.2373" style="stroke:#A80036;stroke-width:1.0;"/><text fill="#000000" font-family="sans-serif" font-size="13" lengthAdjust="spacing" textLength="8" x="830.7073" y="183.0563">1</text><text fill="#000000" font-family="sans-serif" font-size="13" lengthAdjust="spacing" textLength="8" x="799.425" y="211.8156">1</text><!--MD5=[2eb189331b87edffe8158dff06b2b823]
reverse link SceneMainGame to ResultsScreen--><path codeLine="54" d="M882.6951,174.2827 C893.1458,190.1796 905.2201,208.5461 914.6194,222.8436 " fill="none" id="SceneMainGame-backto-ResultsScreen" style="stroke:#A80036;stroke-width:1.0;"/><polygon fill="#A80036" points="875.4338,163.2373,875.3874,170.4483,882.0258,173.2645,882.0722,166.0536,875.4338,163.2373" style="stroke:#A80036;stroke-width:1.0;"/><text fill="#000000" font-family="sans-serif" font-size="13" lengthAdjust="spacing" textLength="8" x="870.3427" y="183.0563">1</text><text fill="#000000" font-family="sans-serif" font-size="13" lengthAdjust="spacing" textLength="8" x="901.525" y="211.8156">1</text><!--MD5=[4920121928632d1c55313bba7d983c59]
reverse link SceneMainGame to Boat--><path codeLine="55" d="M807.9129,170.1252 C732.3768,215.7 593.9882,299.1971 532.4341,336.3359 " fill="none" id="SceneMainGame-backto-Boat" style="stroke:#A80036;stroke-width:1.0;"/><polygon fill="#A80036" points="819.4749,163.1492,812.2711,162.824,809.2003,169.3486,816.404,169.6738,819.4749,163.1492" style="stroke:#A80036;stroke-width:1.0;"/><text fill="#000000" font-family="sans-serif" font-size="13" lengthAdjust="spacing" textLength="8" x="800.7438" y="182.9468">1</text><text fill="#000000" font-family="sans-serif" font-size="13" lengthAdjust="spacing" textLength="23" x="539.9927" y="328.7541">0..*</text><!--MD5=[36f28a410ded9c9af88e78d4a336f4dd]
reverse link SceneMainGame to RaceThread--><path codeLine="57" d="M922.6114,169.8417 C957.1345,186.7128 999.2713,207.3045 1031.3291,222.9708 " fill="none" id="SceneMainGame-backto-RaceThread" style="stroke:#A80036;stroke-width:1.0;"/><ellipse cx="916.0092" cy="166.6154" fill="#FFFFFF" rx="8" ry="8" style="stroke:#A80036;stroke-width:1.0;"/><line style="stroke:#A80036;stroke-width:1.0;" x1="923.1969" x2="908.8216" y1="170.1279" y2="163.1029"/><line style="stroke:#A80036;stroke-width:1.0;" x1="912.4967" x2="919.5218" y1="173.8031" y2="159.4278"/><!--MD5=[fb1e0a30be4f7cf3976387db5b7d50d9]
reverse link CollisionObject to CollisionBounds--><path codeLine="59" d="M375.5,392.6145 C375.5,407.9531 375.5,425.2402 375.5,438.8436 " fill="none" id="CollisionObject-backto-CollisionBounds" style="stroke:#A80036;stroke-width:1.0;"/><polygon fill="#A80036" points="375.5,379.2373,371.5,385.2373,375.5,391.2373,379.5,385.2373,375.5,379.2373" style="stroke:#A80036;stroke-width:1.0;"/><text fill="#000000" font-family="sans-serif" font-size="13" lengthAdjust="spacing" textLength="8" x="366.525" y="399.0563">1</text><text fill="#000000" font-family="sans-serif" font-size="13" lengthAdjust="spacing" textLength="8" x="366.475" y="427.8156">1</text><!--MD5=[08ae347614881eb3c80e482ebf5d517b]
@startuml
class AIBoat
abstract class Boat
class BoatRace
class CollisionBounds
interface CollisionObject
abstract class GameObject
abstract class MoveableObject
abstract class Obstacle
class ObstacleBranch
class ObstacleDuck
class ObstacleFloatingBranch
class ObstacleLaneWall
class PixelBoat
class PlayerBoat
class ResultsScreen
interface Scene
class SceneMainGame
class SceneOptionsMenu
class SceneStartScreen
class SceneTutorial
class RaceThread



GameObject <|- MoveableObject

MoveableObject <|- Obstacle
CollisionObject <|- Obstacle
Obstacle <|- ObstacleBranch
Obstacle <|- ObstacleDuck
ObstacleBranch <|- ObstacleFloatingBranch
Obstacle <|- ObstacleLaneWall

MoveableObject <|- Boat
CollisionObject <|- Boat
Boat <|- PlayerBoat
Boat <|- AIBoat

Scene <|- SceneMainGame
Scene <|- SceneOptionsMenu
Scene <|- SceneStartScreen
Scene <|- SceneTutorial



PixelBoat "1" *- - "1" SceneMainGame
PixelBoat "1" *- - "1" SceneOptionsMenu
PixelBoat "1" *- - "1" SceneStartScreen
PixelBoat "1" *- - "1" SceneTutorial

BoatRace "1" *- - "0..*" Obstacle

SceneMainGame "1" *- - "1" BoatRace
SceneMainGame "1" *- - "1" ResultsScreen
SceneMainGame "1" *- - "0..*" Boat

SceneMainGame +- - RaceThread

CollisionObject "1" *- - "1" CollisionBounds
@enduml

PlantUML version 1.2021.01(Tue Feb 02 07:55:08 UTC 2021)
(GPLV2 source distribution)
Java Runtime: OpenJDK Runtime Environment
JVM: OpenJDK 64-Bit Server VM
Default Encoding: UTF-8
Language: en
Country: null
--></g></svg>