<?xml version="1.0" encoding="UTF-8" standalone="no"?><svg xmlns="http://www.w3.org/2000/svg" xmlns:xlink="http://www.w3.org/1999/xlink" contentScriptType="application/ecmascript" contentStyleType="text/css" height="248px" preserveAspectRatio="none" style="width:2838px;height:248px;" version="1.1" viewBox="0 0 2838 248" width="2838px" zoomAndPan="magnify"><defs><filter height="300%" id="fx855t5bigejh" width="300%" x="-1" y="-1"><feGaussianBlur result="blurOut" stdDeviation="2.0"/><feColorMatrix in="blurOut" result="blurOut2" type="matrix" values="0 0 0 0 0 0 0 0 0 0 0 0 0 0 0 0 0 0 .4 0"/><feOffset dx="4.0" dy="4.0" in="blurOut2" result="blurOut3"/><feBlend in="SourceGraphic" in2="blurOut3" mode="normal"/></filter></defs><g><!--MD5=[18fb3b8b891fcc2cffdb0edb6f0580a1]
class AIBoat--><rect codeLine="1" fill="#FEFECE" filter="url(#fx855t5bigejh)" height="48" id="AIBoat" style="stroke:#A80036;stroke-width:1.5;" width="72" x="567.5" y="78.2342"/><ellipse cx="582.5" cy="94.2342" fill="#ADD1B2" rx="11" ry="11" style="stroke:#A80036;stroke-width:1.0;"/><path d="M585.4688,99.8748 Q584.8906,100.1717 584.25,100.3123 Q583.6094,100.4686 582.9063,100.4686 Q580.4063,100.4686 579.0781,98.8279 Q577.7656,97.1717 577.7656,94.0467 Q577.7656,90.9217 579.0781,89.2654 Q580.4063,87.6092 582.9063,87.6092 Q583.6094,87.6092 584.25,87.7654 Q584.9063,87.9217 585.4688,88.2186 L585.4688,90.9373 Q584.8438,90.3592 584.25,90.0936 Q583.6563,89.8123 583.0313,89.8123 Q581.6875,89.8123 581,90.8904 Q580.3125,91.9529 580.3125,94.0467 Q580.3125,96.1404 581,97.2186 Q581.6875,98.2811 583.0313,98.2811 Q583.6563,98.2811 584.25,98.0154 Q584.8438,97.7342 585.4688,97.1561 L585.4688,99.8748 Z " fill="#000000"/><text fill="#000000" font-family="sans-serif" font-size="12" lengthAdjust="spacing" textLength="40" x="596.5" y="98.3885">AIBoat</text><line style="stroke:#A80036;stroke-width:1.5;" x1="568.5" x2="638.5" y1="110.2342" y2="110.2342"/><line style="stroke:#A80036;stroke-width:1.5;" x1="568.5" x2="638.5" y1="118.2342" y2="118.2342"/><!--MD5=[d7378ac8501ce6417ec16634b4f30c76]
class Boat--><rect codeLine="2" fill="#FEFECE" filter="url(#fx855t5bigejh)" height="48" id="Boat" style="stroke:#A80036;stroke-width:1.5;" width="61" x="471" y="78.2342"/><ellipse cx="486" cy="94.2342" fill="#A9DCDF" rx="11" ry="11" style="stroke:#A80036;stroke-width:1.0;"/><path d="M486.1094,89.5779 L484.9531,94.6561 L487.2813,94.6561 L486.1094,89.5779 Z M484.625,87.3436 L487.6094,87.3436 L490.9688,99.7342 L488.5156,99.7342 L487.75,96.6717 L484.4688,96.6717 L483.7188,99.7342 L481.2813,99.7342 L484.625,87.3436 Z " fill="#000000"/><text fill="#000000" font-family="sans-serif" font-size="12" font-style="italic" lengthAdjust="spacing" textLength="29" x="500" y="98.3885">Boat</text><line style="stroke:#A80036;stroke-width:1.5;" x1="472" x2="531" y1="110.2342" y2="110.2342"/><line style="stroke:#A80036;stroke-width:1.5;" x1="472" x2="531" y1="118.2342" y2="118.2342"/><!--MD5=[7ad87d4687b1c74665962eea80f8b40b]
class BoatRace--><rect codeLine="3" fill="#FEFECE" filter="url(#fx855t5bigejh)" height="48" id="BoatRace" style="stroke:#A80036;stroke-width:1.5;" width="92" x="2442.5" y="78.2342"/><ellipse cx="2457.5" cy="94.2342" fill="#ADD1B2" rx="11" ry="11" style="stroke:#A80036;stroke-width:1.0;"/><path d="M2460.4688,99.8748 Q2459.8906,100.1717 2459.25,100.3123 Q2458.6094,100.4686 2457.9063,100.4686 Q2455.4063,100.4686 2454.0781,98.8279 Q2452.7656,97.1717 2452.7656,94.0467 Q2452.7656,90.9217 2454.0781,89.2654 Q2455.4063,87.6092 2457.9063,87.6092 Q2458.6094,87.6092 2459.25,87.7654 Q2459.9063,87.9217 2460.4688,88.2186 L2460.4688,90.9373 Q2459.8438,90.3592 2459.25,90.0936 Q2458.6563,89.8123 2458.0313,89.8123 Q2456.6875,89.8123 2456,90.8904 Q2455.3125,91.9529 2455.3125,94.0467 Q2455.3125,96.1404 2456,97.2186 Q2456.6875,98.2811 2458.0313,98.2811 Q2458.6563,98.2811 2459.25,98.0154 Q2459.8438,97.7342 2460.4688,97.1561 L2460.4688,99.8748 Z " fill="#000000"/><text fill="#000000" font-family="sans-serif" font-size="12" lengthAdjust="spacing" textLength="60" x="2471.5" y="98.3885">BoatRace</text><line style="stroke:#A80036;stroke-width:1.5;" x1="2443.5" x2="2533.5" y1="110.2342" y2="110.2342"/><line style="stroke:#A80036;stroke-width:1.5;" x1="2443.5" x2="2533.5" y1="118.2342" y2="118.2342"/><!--MD5=[dad577432b370c149ed719f544827710]
class CollisionBounds--><rect codeLine="4" fill="#FEFECE" filter="url(#fx855t5bigejh)" height="48" id="CollisionBounds" style="stroke:#A80036;stroke-width:1.5;" width="130" x="2569.5" y="78.2342"/><ellipse cx="2584.5" cy="94.2342" fill="#ADD1B2" rx="11" ry="11" style="stroke:#A80036;stroke-width:1.0;"/><path d="M2587.4688,99.8748 Q2586.8906,100.1717 2586.25,100.3123 Q2585.6094,100.4686 2584.9063,100.4686 Q2582.4063,100.4686 2581.0781,98.8279 Q2579.7656,97.1717 2579.7656,94.0467 Q2579.7656,90.9217 2581.0781,89.2654 Q2582.4063,87.6092 2584.9063,87.6092 Q2585.6094,87.6092 2586.25,87.7654 Q2586.9063,87.9217 2587.4688,88.2186 L2587.4688,90.9373 Q2586.8438,90.3592 2586.25,90.0936 Q2585.6563,89.8123 2585.0313,89.8123 Q2583.6875,89.8123 2583,90.8904 Q2582.3125,91.9529 2582.3125,94.0467 Q2582.3125,96.1404 2583,97.2186 Q2583.6875,98.2811 2585.0313,98.2811 Q2585.6563,98.2811 2586.25,98.0154 Q2586.8438,97.7342 2587.4688,97.1561 L2587.4688,99.8748 Z " fill="#000000"/><text fill="#000000" font-family="sans-serif" font-size="12" lengthAdjust="spacing" textLength="98" x="2598.5" y="98.3885">CollisionBounds</text><line style="stroke:#A80036;stroke-width:1.5;" x1="2570.5" x2="2698.5" y1="110.2342" y2="110.2342"/><line style="stroke:#A80036;stroke-width:1.5;" x1="2570.5" x2="2698.5" y1="118.2342" y2="118.2342"/><!--MD5=[aacfa9e8a43f0443332ec4be3ea5f7a8]
class CollisionObject--><rect codeLine="5" fill="#FEFECE" filter="url(#fx855t5bigejh)" height="48" id="CollisionObject" style="stroke:#A80036;stroke-width:1.5;" width="121" x="315" y="78.2342"/><ellipse cx="330" cy="94.2342" fill="#B4A7E5" rx="11" ry="11" style="stroke:#A80036;stroke-width:1.0;"/><path d="M325.9219,89.9998 L325.9219,87.8436 L333.3125,87.8436 L333.3125,89.9998 L330.8438,89.9998 L330.8438,98.0779 L333.3125,98.0779 L333.3125,100.2342 L325.9219,100.2342 L325.9219,98.0779 L328.3906,98.0779 L328.3906,89.9998 L325.9219,89.9998 Z " fill="#000000"/><text fill="#000000" font-family="sans-serif" font-size="12" font-style="italic" lengthAdjust="spacing" textLength="89" x="344" y="98.3885">CollisionObject</text><line style="stroke:#A80036;stroke-width:1.5;" x1="316" x2="435" y1="110.2342" y2="110.2342"/><line style="stroke:#A80036;stroke-width:1.5;" x1="316" x2="435" y1="118.2342" y2="118.2342"/><!--MD5=[064f7a74fee85463ec1a30143664ee17]
class GameObject--><rect codeLine="6" fill="#FEFECE" filter="url(#fx855t5bigejh)" height="48" id="GameObject" style="stroke:#A80036;stroke-width:1.5;" width="107" x="7" y="78.2342"/><ellipse cx="22" cy="94.2342" fill="#A9DCDF" rx="11" ry="11" style="stroke:#A80036;stroke-width:1.0;"/><path d="M22.1094,89.5779 L20.9531,94.6561 L23.2813,94.6561 L22.1094,89.5779 Z M20.625,87.3436 L23.6094,87.3436 L26.9688,99.7342 L24.5156,99.7342 L23.75,96.6717 L20.4688,96.6717 L19.7188,99.7342 L17.2813,99.7342 L20.625,87.3436 Z " fill="#000000"/><text fill="#000000" font-family="sans-serif" font-size="12" font-style="italic" lengthAdjust="spacing" textLength="75" x="36" y="98.3885">GameObject</text><line style="stroke:#A80036;stroke-width:1.5;" x1="8" x2="113" y1="110.2342" y2="110.2342"/><line style="stroke:#A80036;stroke-width:1.5;" x1="8" x2="113" y1="118.2342" y2="118.2342"/><!--MD5=[fe88339b2988a1ef1c95b68c104d7624]
class MoveableObject--><rect codeLine="7" fill="#FEFECE" filter="url(#fx855t5bigejh)" height="48" id="MoveableObject" style="stroke:#A80036;stroke-width:1.5;" width="130" x="149.5" y="78.2342"/><ellipse cx="164.5" cy="94.2342" fill="#A9DCDF" rx="11" ry="11" style="stroke:#A80036;stroke-width:1.0;"/><path d="M164.6094,89.5779 L163.4531,94.6561 L165.7813,94.6561 L164.6094,89.5779 Z M163.125,87.3436 L166.1094,87.3436 L169.4688,99.7342 L167.0156,99.7342 L166.25,96.6717 L162.9688,96.6717 L162.2188,99.7342 L159.7813,99.7342 L163.125,87.3436 Z " fill="#000000"/><text fill="#000000" font-family="sans-serif" font-size="12" font-style="italic" lengthAdjust="spacing" textLength="98" x="178.5" y="98.3885">MoveableObject</text><line style="stroke:#A80036;stroke-width:1.5;" x1="150.5" x2="278.5" y1="110.2342" y2="110.2342"/><line style="stroke:#A80036;stroke-width:1.5;" x1="150.5" x2="278.5" y1="118.2342" y2="118.2342"/><!--MD5=[23868d926b4091f874f65c50fc3e197e]
class Obstacle--><rect codeLine="8" fill="#FEFECE" filter="url(#fx855t5bigejh)" height="48" id="Obstacle" style="stroke:#A80036;stroke-width:1.5;" width="85" x="809" y="78.2342"/><ellipse cx="824" cy="94.2342" fill="#A9DCDF" rx="11" ry="11" style="stroke:#A80036;stroke-width:1.0;"/><path d="M824.1094,89.5779 L822.9531,94.6561 L825.2813,94.6561 L824.1094,89.5779 Z M822.625,87.3436 L825.6094,87.3436 L828.9688,99.7342 L826.5156,99.7342 L825.75,96.6717 L822.4688,96.6717 L821.7188,99.7342 L819.2813,99.7342 L822.625,87.3436 Z " fill="#000000"/><text fill="#000000" font-family="sans-serif" font-size="12" font-style="italic" lengthAdjust="spacing" textLength="53" x="838" y="98.3885">Obstacle</text><line style="stroke:#A80036;stroke-width:1.5;" x1="810" x2="893" y1="110.2342" y2="110.2342"/><line style="stroke:#A80036;stroke-width:1.5;" x1="810" x2="893" y1="118.2342" y2="118.2342"/><!--MD5=[4547f04c185f2c4543cd5e5112560fdc]
class ObstacleBranch--><rect codeLine="9" fill="#FEFECE" filter="url(#fx855t5bigejh)" height="48" id="ObstacleBranch" style="stroke:#A80036;stroke-width:1.5;" width="131" x="1260" y="78.2342"/><ellipse cx="1275" cy="94.2342" fill="#ADD1B2" rx="11" ry="11" style="stroke:#A80036;stroke-width:1.0;"/><path d="M1277.9688,99.8748 Q1277.3906,100.1717 1276.75,100.3123 Q1276.1094,100.4686 1275.4063,100.4686 Q1272.9063,100.4686 1271.5781,98.8279 Q1270.2656,97.1717 1270.2656,94.0467 Q1270.2656,90.9217 1271.5781,89.2654 Q1272.9063,87.6092 1275.4063,87.6092 Q1276.1094,87.6092 1276.75,87.7654 Q1277.4063,87.9217 1277.9688,88.2186 L1277.9688,90.9373 Q1277.3438,90.3592 1276.75,90.0936 Q1276.1563,89.8123 1275.5313,89.8123 Q1274.1875,89.8123 1273.5,90.8904 Q1272.8125,91.9529 1272.8125,94.0467 Q1272.8125,96.1404 1273.5,97.2186 Q1274.1875,98.2811 1275.5313,98.2811 Q1276.1563,98.2811 1276.75,98.0154 Q1277.3438,97.7342 1277.9688,97.1561 L1277.9688,99.8748 Z " fill="#000000"/><text fill="#000000" font-family="sans-serif" font-size="12" lengthAdjust="spacing" textLength="99" x="1289" y="98.3885">ObstacleBranch</text><line style="stroke:#A80036;stroke-width:1.5;" x1="1261" x2="1390" y1="110.2342" y2="110.2342"/><line style="stroke:#A80036;stroke-width:1.5;" x1="1261" x2="1390" y1="118.2342" y2="118.2342"/><!--MD5=[b19bd0575d5e9b89c418741af47506da]
class ObstacleDuck--><rect codeLine="10" fill="#FEFECE" filter="url(#fx855t5bigejh)" height="48" id="ObstacleDuck" style="stroke:#A80036;stroke-width:1.5;" width="118" x="1106.5" y="78.2342"/><ellipse cx="1121.5" cy="94.2342" fill="#ADD1B2" rx="11" ry="11" style="stroke:#A80036;stroke-width:1.0;"/><path d="M1124.4688,99.8748 Q1123.8906,100.1717 1123.25,100.3123 Q1122.6094,100.4686 1121.9063,100.4686 Q1119.4063,100.4686 1118.0781,98.8279 Q1116.7656,97.1717 1116.7656,94.0467 Q1116.7656,90.9217 1118.0781,89.2654 Q1119.4063,87.6092 1121.9063,87.6092 Q1122.6094,87.6092 1123.25,87.7654 Q1123.9063,87.9217 1124.4688,88.2186 L1124.4688,90.9373 Q1123.8438,90.3592 1123.25,90.0936 Q1122.6563,89.8123 1122.0313,89.8123 Q1120.6875,89.8123 1120,90.8904 Q1119.3125,91.9529 1119.3125,94.0467 Q1119.3125,96.1404 1120,97.2186 Q1120.6875,98.2811 1122.0313,98.2811 Q1122.6563,98.2811 1123.25,98.0154 Q1123.8438,97.7342 1124.4688,97.1561 L1124.4688,99.8748 Z " fill="#000000"/><text fill="#000000" font-family="sans-serif" font-size="12" lengthAdjust="spacing" textLength="86" x="1135.5" y="98.3885">ObstacleDuck</text><line style="stroke:#A80036;stroke-width:1.5;" x1="1107.5" x2="1223.5" y1="110.2342" y2="110.2342"/><line style="stroke:#A80036;stroke-width:1.5;" x1="1107.5" x2="1223.5" y1="118.2342" y2="118.2342"/><!--MD5=[984dbebc17ca09c7aea9ae108686ba45]
class ObstacleFloatingBranch--><rect codeLine="11" fill="#FEFECE" filter="url(#fx855t5bigejh)" height="48" id="ObstacleFloatingBranch" style="stroke:#A80036;stroke-width:1.5;" width="181" x="1426" y="78.2342"/><ellipse cx="1441" cy="94.2342" fill="#ADD1B2" rx="11" ry="11" style="stroke:#A80036;stroke-width:1.0;"/><path d="M1443.9688,99.8748 Q1443.3906,100.1717 1442.75,100.3123 Q1442.1094,100.4686 1441.4063,100.4686 Q1438.9063,100.4686 1437.5781,98.8279 Q1436.2656,97.1717 1436.2656,94.0467 Q1436.2656,90.9217 1437.5781,89.2654 Q1438.9063,87.6092 1441.4063,87.6092 Q1442.1094,87.6092 1442.75,87.7654 Q1443.4063,87.9217 1443.9688,88.2186 L1443.9688,90.9373 Q1443.3438,90.3592 1442.75,90.0936 Q1442.1563,89.8123 1441.5313,89.8123 Q1440.1875,89.8123 1439.5,90.8904 Q1438.8125,91.9529 1438.8125,94.0467 Q1438.8125,96.1404 1439.5,97.2186 Q1440.1875,98.2811 1441.5313,98.2811 Q1442.1563,98.2811 1442.75,98.0154 Q1443.3438,97.7342 1443.9688,97.1561 L1443.9688,99.8748 Z " fill="#000000"/><text fill="#000000" font-family="sans-serif" font-size="12" lengthAdjust="spacing" textLength="149" x="1455" y="98.3885">ObstacleFloatingBranch</text><line style="stroke:#A80036;stroke-width:1.5;" x1="1427" x2="1606" y1="110.2342" y2="110.2342"/><line style="stroke:#A80036;stroke-width:1.5;" x1="1427" x2="1606" y1="118.2342" y2="118.2342"/><!--MD5=[be48d278c37504bf038512057d0f5275]
class ObstacleLaneWall--><rect codeLine="12" fill="#FEFECE" filter="url(#fx855t5bigejh)" height="48" id="ObstacleLaneWall" style="stroke:#A80036;stroke-width:1.5;" width="142" x="929.5" y="78.2342"/><ellipse cx="944.5" cy="94.2342" fill="#ADD1B2" rx="11" ry="11" style="stroke:#A80036;stroke-width:1.0;"/><path d="M947.4688,99.8748 Q946.8906,100.1717 946.25,100.3123 Q945.6094,100.4686 944.9063,100.4686 Q942.4063,100.4686 941.0781,98.8279 Q939.7656,97.1717 939.7656,94.0467 Q939.7656,90.9217 941.0781,89.2654 Q942.4063,87.6092 944.9063,87.6092 Q945.6094,87.6092 946.25,87.7654 Q946.9063,87.9217 947.4688,88.2186 L947.4688,90.9373 Q946.8438,90.3592 946.25,90.0936 Q945.6563,89.8123 945.0313,89.8123 Q943.6875,89.8123 943,90.8904 Q942.3125,91.9529 942.3125,94.0467 Q942.3125,96.1404 943,97.2186 Q943.6875,98.2811 945.0313,98.2811 Q945.6563,98.2811 946.25,98.0154 Q946.8438,97.7342 947.4688,97.1561 L947.4688,99.8748 Z " fill="#000000"/><text fill="#000000" font-family="sans-serif" font-size="12" lengthAdjust="spacing" textLength="110" x="958.5" y="98.3885">ObstacleLaneWall</text><line style="stroke:#A80036;stroke-width:1.5;" x1="930.5" x2="1070.5" y1="110.2342" y2="110.2342"/><line style="stroke:#A80036;stroke-width:1.5;" x1="930.5" x2="1070.5" y1="118.2342" y2="118.2342"/><!--MD5=[3c83b70202e58b87ef51d700e986ab12]
class PixelBoat--><rect codeLine="13" fill="#FEFECE" filter="url(#fx855t5bigejh)" height="48" id="PixelBoat" style="stroke:#A80036;stroke-width:1.5;" width="89" x="2735" y="78.2342"/><ellipse cx="2750" cy="94.2342" fill="#ADD1B2" rx="11" ry="11" style="stroke:#A80036;stroke-width:1.0;"/><path d="M2752.9688,99.8748 Q2752.3906,100.1717 2751.75,100.3123 Q2751.1094,100.4686 2750.4063,100.4686 Q2747.9063,100.4686 2746.5781,98.8279 Q2745.2656,97.1717 2745.2656,94.0467 Q2745.2656,90.9217 2746.5781,89.2654 Q2747.9063,87.6092 2750.4063,87.6092 Q2751.1094,87.6092 2751.75,87.7654 Q2752.4063,87.9217 2752.9688,88.2186 L2752.9688,90.9373 Q2752.3438,90.3592 2751.75,90.0936 Q2751.1563,89.8123 2750.5313,89.8123 Q2749.1875,89.8123 2748.5,90.8904 Q2747.8125,91.9529 2747.8125,94.0467 Q2747.8125,96.1404 2748.5,97.2186 Q2749.1875,98.2811 2750.5313,98.2811 Q2751.1563,98.2811 2751.75,98.0154 Q2752.3438,97.7342 2752.9688,97.1561 L2752.9688,99.8748 Z " fill="#000000"/><text fill="#000000" font-family="sans-serif" font-size="12" lengthAdjust="spacing" textLength="57" x="2764" y="98.3885">PixelBoat</text><line style="stroke:#A80036;stroke-width:1.5;" x1="2736" x2="2823" y1="110.2342" y2="110.2342"/><line style="stroke:#A80036;stroke-width:1.5;" x1="2736" x2="2823" y1="118.2342" y2="118.2342"/><!--MD5=[8b809054524057386b660902a6971129]
class PlayerBoat--><rect codeLine="14" fill="#FEFECE" filter="url(#fx855t5bigejh)" height="48" id="PlayerBoat" style="stroke:#A80036;stroke-width:1.5;" width="99" x="675" y="78.2342"/><ellipse cx="690" cy="94.2342" fill="#ADD1B2" rx="11" ry="11" style="stroke:#A80036;stroke-width:1.0;"/><path d="M692.9688,99.8748 Q692.3906,100.1717 691.75,100.3123 Q691.1094,100.4686 690.4063,100.4686 Q687.9063,100.4686 686.5781,98.8279 Q685.2656,97.1717 685.2656,94.0467 Q685.2656,90.9217 686.5781,89.2654 Q687.9063,87.6092 690.4063,87.6092 Q691.1094,87.6092 691.75,87.7654 Q692.4063,87.9217 692.9688,88.2186 L692.9688,90.9373 Q692.3438,90.3592 691.75,90.0936 Q691.1563,89.8123 690.5313,89.8123 Q689.1875,89.8123 688.5,90.8904 Q687.8125,91.9529 687.8125,94.0467 Q687.8125,96.1404 688.5,97.2186 Q689.1875,98.2811 690.5313,98.2811 Q691.1563,98.2811 691.75,98.0154 Q692.3438,97.7342 692.9688,97.1561 L692.9688,99.8748 Z " fill="#000000"/><text fill="#000000" font-family="sans-serif" font-size="12" lengthAdjust="spacing" textLength="67" x="704" y="98.3885">PlayerBoat</text><line style="stroke:#A80036;stroke-width:1.5;" x1="676" x2="773" y1="110.2342" y2="110.2342"/><line style="stroke:#A80036;stroke-width:1.5;" x1="676" x2="773" y1="118.2342" y2="118.2342"/><!--MD5=[450cdf3cb19eded7e4eade1b5b010c8a]
class ResultsScreen--><rect codeLine="15" fill="#FEFECE" filter="url(#fx855t5bigejh)" height="48" id="ResultsScreen" style="stroke:#A80036;stroke-width:1.5;" width="122" x="2427.5" y="186.2342"/><ellipse cx="2442.5" cy="202.2342" fill="#ADD1B2" rx="11" ry="11" style="stroke:#A80036;stroke-width:1.0;"/><path d="M2445.4688,207.8748 Q2444.8906,208.1717 2444.25,208.3123 Q2443.6094,208.4686 2442.9063,208.4686 Q2440.4063,208.4686 2439.0781,206.828 Q2437.7656,205.1717 2437.7656,202.0467 Q2437.7656,198.9217 2439.0781,197.2655 Q2440.4063,195.6092 2442.9063,195.6092 Q2443.6094,195.6092 2444.25,195.7655 Q2444.9063,195.9217 2445.4688,196.2186 L2445.4688,198.9373 Q2444.8438,198.3592 2444.25,198.0936 Q2443.6563,197.8123 2443.0313,197.8123 Q2441.6875,197.8123 2441,198.8905 Q2440.3125,199.953 2440.3125,202.0467 Q2440.3125,204.1405 2441,205.2186 Q2441.6875,206.2811 2443.0313,206.2811 Q2443.6563,206.2811 2444.25,206.0155 Q2444.8438,205.7342 2445.4688,205.1561 L2445.4688,207.8748 Z " fill="#000000"/><text fill="#000000" font-family="sans-serif" font-size="12" lengthAdjust="spacing" textLength="90" x="2456.5" y="206.3885">ResultsScreen</text><line style="stroke:#A80036;stroke-width:1.5;" x1="2428.5" x2="2548.5" y1="218.2342" y2="218.2342"/><line style="stroke:#A80036;stroke-width:1.5;" x1="2428.5" x2="2548.5" y1="226.2342" y2="226.2342"/><!--MD5=[e4faacc5b8aef66b11ab0c816bbbc7f8]
class Scene--><rect codeLine="16" fill="#FEFECE" filter="url(#fx855t5bigejh)" height="48" id="Scene" style="stroke:#A80036;stroke-width:1.5;" width="71" x="1642" y="78.2342"/><ellipse cx="1657" cy="94.2342" fill="#B4A7E5" rx="11" ry="11" style="stroke:#A80036;stroke-width:1.0;"/><path d="M1652.9219,89.9998 L1652.9219,87.8436 L1660.3125,87.8436 L1660.3125,89.9998 L1657.8438,89.9998 L1657.8438,98.0779 L1660.3125,98.0779 L1660.3125,100.2342 L1652.9219,100.2342 L1652.9219,98.0779 L1655.3906,98.0779 L1655.3906,89.9998 L1652.9219,89.9998 Z " fill="#000000"/><text fill="#000000" font-family="sans-serif" font-size="12" font-style="italic" lengthAdjust="spacing" textLength="39" x="1671" y="98.3885">Scene</text><line style="stroke:#A80036;stroke-width:1.5;" x1="1643" x2="1712" y1="110.2342" y2="110.2342"/><line style="stroke:#A80036;stroke-width:1.5;" x1="1643" x2="1712" y1="118.2342" y2="118.2342"/><!--MD5=[191f5a5662fedcdee87af3bba77ae1e5]
class SceneMainGame--><rect codeLine="17" fill="#FEFECE" filter="url(#fx855t5bigejh)" height="48" id="SceneMainGame" style="stroke:#A80036;stroke-width:1.5;" width="136" x="2271.5" y="78.2342"/><ellipse cx="2286.5" cy="94.2342" fill="#ADD1B2" rx="11" ry="11" style="stroke:#A80036;stroke-width:1.0;"/><path d="M2289.4688,99.8748 Q2288.8906,100.1717 2288.25,100.3123 Q2287.6094,100.4686 2286.9063,100.4686 Q2284.4063,100.4686 2283.0781,98.8279 Q2281.7656,97.1717 2281.7656,94.0467 Q2281.7656,90.9217 2283.0781,89.2654 Q2284.4063,87.6092 2286.9063,87.6092 Q2287.6094,87.6092 2288.25,87.7654 Q2288.9063,87.9217 2289.4688,88.2186 L2289.4688,90.9373 Q2288.8438,90.3592 2288.25,90.0936 Q2287.6563,89.8123 2287.0313,89.8123 Q2285.6875,89.8123 2285,90.8904 Q2284.3125,91.9529 2284.3125,94.0467 Q2284.3125,96.1404 2285,97.2186 Q2285.6875,98.2811 2287.0313,98.2811 Q2287.6563,98.2811 2288.25,98.0154 Q2288.8438,97.7342 2289.4688,97.1561 L2289.4688,99.8748 Z " fill="#000000"/><text fill="#000000" font-family="sans-serif" font-size="12" lengthAdjust="spacing" textLength="104" x="2300.5" y="98.3885">SceneMainGame</text><line style="stroke:#A80036;stroke-width:1.5;" x1="2272.5" x2="2406.5" y1="110.2342" y2="110.2342"/><line style="stroke:#A80036;stroke-width:1.5;" x1="2272.5" x2="2406.5" y1="118.2342" y2="118.2342"/><!--MD5=[10fad2eef0002dd70ab0ee7e095a83d7]
class SceneOptionsMenu--><rect codeLine="18" fill="#FEFECE" filter="url(#fx855t5bigejh)" height="48" id="SceneOptionsMenu" style="stroke:#A80036;stroke-width:1.5;" width="153" x="2083" y="78.2342"/><ellipse cx="2098" cy="94.2342" fill="#ADD1B2" rx="11" ry="11" style="stroke:#A80036;stroke-width:1.0;"/><path d="M2100.9688,99.8748 Q2100.3906,100.1717 2099.75,100.3123 Q2099.1094,100.4686 2098.4063,100.4686 Q2095.9063,100.4686 2094.5781,98.8279 Q2093.2656,97.1717 2093.2656,94.0467 Q2093.2656,90.9217 2094.5781,89.2654 Q2095.9063,87.6092 2098.4063,87.6092 Q2099.1094,87.6092 2099.75,87.7654 Q2100.4063,87.9217 2100.9688,88.2186 L2100.9688,90.9373 Q2100.3438,90.3592 2099.75,90.0936 Q2099.1563,89.8123 2098.5313,89.8123 Q2097.1875,89.8123 2096.5,90.8904 Q2095.8125,91.9529 2095.8125,94.0467 Q2095.8125,96.1404 2096.5,97.2186 Q2097.1875,98.2811 2098.5313,98.2811 Q2099.1563,98.2811 2099.75,98.0154 Q2100.3438,97.7342 2100.9688,97.1561 L2100.9688,99.8748 Z " fill="#000000"/><text fill="#000000" font-family="sans-serif" font-size="12" lengthAdjust="spacing" textLength="121" x="2112" y="98.3885">SceneOptionsMenu</text><line style="stroke:#A80036;stroke-width:1.5;" x1="2084" x2="2235" y1="110.2342" y2="110.2342"/><line style="stroke:#A80036;stroke-width:1.5;" x1="2084" x2="2235" y1="118.2342" y2="118.2342"/><!--MD5=[705050e7dc8a0f9ad873dfab94d81211]
class SceneStartScreen--><rect codeLine="19" fill="#FEFECE" filter="url(#fx855t5bigejh)" height="48" id="SceneStartScreen" style="stroke:#A80036;stroke-width:1.5;" width="146" x="1901.5" y="78.2342"/><ellipse cx="1916.5" cy="94.2342" fill="#ADD1B2" rx="11" ry="11" style="stroke:#A80036;stroke-width:1.0;"/><path d="M1919.4688,99.8748 Q1918.8906,100.1717 1918.25,100.3123 Q1917.6094,100.4686 1916.9063,100.4686 Q1914.4063,100.4686 1913.0781,98.8279 Q1911.7656,97.1717 1911.7656,94.0467 Q1911.7656,90.9217 1913.0781,89.2654 Q1914.4063,87.6092 1916.9063,87.6092 Q1917.6094,87.6092 1918.25,87.7654 Q1918.9063,87.9217 1919.4688,88.2186 L1919.4688,90.9373 Q1918.8438,90.3592 1918.25,90.0936 Q1917.6563,89.8123 1917.0313,89.8123 Q1915.6875,89.8123 1915,90.8904 Q1914.3125,91.9529 1914.3125,94.0467 Q1914.3125,96.1404 1915,97.2186 Q1915.6875,98.2811 1917.0313,98.2811 Q1917.6563,98.2811 1918.25,98.0154 Q1918.8438,97.7342 1919.4688,97.1561 L1919.4688,99.8748 Z " fill="#000000"/><text fill="#000000" font-family="sans-serif" font-size="12" lengthAdjust="spacing" textLength="114" x="1930.5" y="98.3885">SceneStartScreen</text><line style="stroke:#A80036;stroke-width:1.5;" x1="1902.5" x2="2046.5" y1="110.2342" y2="110.2342"/><line style="stroke:#A80036;stroke-width:1.5;" x1="1902.5" x2="2046.5" y1="118.2342" y2="118.2342"/><!--MD5=[eb8347e17286b04f108bb989edee2135]
class SceneTutorial--><rect codeLine="20" fill="#FEFECE" filter="url(#fx855t5bigejh)" height="48" id="SceneTutorial" style="stroke:#A80036;stroke-width:1.5;" width="118" x="1748.5" y="78.2342"/><ellipse cx="1763.5" cy="94.2342" fill="#ADD1B2" rx="11" ry="11" style="stroke:#A80036;stroke-width:1.0;"/><path d="M1766.4688,99.8748 Q1765.8906,100.1717 1765.25,100.3123 Q1764.6094,100.4686 1763.9063,100.4686 Q1761.4063,100.4686 1760.0781,98.8279 Q1758.7656,97.1717 1758.7656,94.0467 Q1758.7656,90.9217 1760.0781,89.2654 Q1761.4063,87.6092 1763.9063,87.6092 Q1764.6094,87.6092 1765.25,87.7654 Q1765.9063,87.9217 1766.4688,88.2186 L1766.4688,90.9373 Q1765.8438,90.3592 1765.25,90.0936 Q1764.6563,89.8123 1764.0313,89.8123 Q1762.6875,89.8123 1762,90.8904 Q1761.3125,91.9529 1761.3125,94.0467 Q1761.3125,96.1404 1762,97.2186 Q1762.6875,98.2811 1764.0313,98.2811 Q1764.6563,98.2811 1765.25,98.0154 Q1765.8438,97.7342 1766.4688,97.1561 L1766.4688,99.8748 Z " fill="#000000"/><text fill="#000000" font-family="sans-serif" font-size="12" lengthAdjust="spacing" textLength="86" x="1777.5" y="98.3885">SceneTutorial</text><line style="stroke:#A80036;stroke-width:1.5;" x1="1749.5" x2="1865.5" y1="110.2342" y2="110.2342"/><line style="stroke:#A80036;stroke-width:1.5;" x1="1749.5" x2="1865.5" y1="118.2342" y2="118.2342"/><!--MD5=[f5f7bafad988ab79c27664226104c3e3]
class RaceThread--><rect codeLine="21" fill="#FEFECE" filter="url(#fx855t5bigejh)" height="48" id="RaceThread" style="stroke:#A80036;stroke-width:1.5;" width="107" x="2585" y="186.2342"/><ellipse cx="2600" cy="202.2342" fill="#ADD1B2" rx="11" ry="11" style="stroke:#A80036;stroke-width:1.0;"/><path d="M2602.9688,207.8748 Q2602.3906,208.1717 2601.75,208.3123 Q2601.1094,208.4686 2600.4063,208.4686 Q2597.9063,208.4686 2596.5781,206.828 Q2595.2656,205.1717 2595.2656,202.0467 Q2595.2656,198.9217 2596.5781,197.2655 Q2597.9063,195.6092 2600.4063,195.6092 Q2601.1094,195.6092 2601.75,195.7655 Q2602.4063,195.9217 2602.9688,196.2186 L2602.9688,198.9373 Q2602.3438,198.3592 2601.75,198.0936 Q2601.1563,197.8123 2600.5313,197.8123 Q2599.1875,197.8123 2598.5,198.8905 Q2597.8125,199.953 2597.8125,202.0467 Q2597.8125,204.1405 2598.5,205.2186 Q2599.1875,206.2811 2600.5313,206.2811 Q2601.1563,206.2811 2601.75,206.0155 Q2602.3438,205.7342 2602.9688,205.1561 L2602.9688,207.8748 Z " fill="#000000"/><text fill="#000000" font-family="sans-serif" font-size="12" lengthAdjust="spacing" textLength="75" x="2614" y="206.3885">RaceThread</text><line style="stroke:#A80036;stroke-width:1.5;" x1="2586" x2="2691" y1="218.2342" y2="218.2342"/><line style="stroke:#A80036;stroke-width:1.5;" x1="2586" x2="2691" y1="226.2342" y2="226.2342"/><!--MD5=[67eb2a2e46f9471956d08809acd99ce2]
reverse link GameObject to MoveableObject--><path codeLine="25" d="M134.1815,102.2342 C139.2401,102.2342 144.2988,102.2342 149.3574,102.2342 " fill="none" id="GameObject-backto-MoveableObject" style="stroke:#A80036;stroke-width:1.0;"/><polygon fill="none" points="134.0391,109.2341,114.0391,102.2342,134.039,95.2341,134.0391,109.2341" style="stroke:#A80036;stroke-width:1.0;"/><!--MD5=[4dcd3dfe2fa9670111ad6516839d5bfa]
reverse link MoveableObject to Obstacle--><path codeLine="27" d="M266.3578,68.1283 C281.4325,59.9769 298.3399,52.4266 315,48.2342 C413.9162,23.3425 676.6855,17.6745 774,48.2342 C792.9312,54.1792 811.2803,66.5681 825.3682,77.9813 " fill="none" id="MoveableObject-backto-Obstacle" style="stroke:#A80036;stroke-width:1.0;"/><polygon fill="none" points="269.8316,74.2057,249.0188,78.1843,262.8078,62.0951,269.8316,74.2057" style="stroke:#A80036;stroke-width:1.0;"/><!--MD5=[5261a6ab5a16501f424602d3127a7c44]
reverse link CollisionObject to Obstacle--><path codeLine="28" d="M425.5346,67.6071 C439.619,59.6618 455.3748,52.3459 471,48.2342 C601.2331,13.964 645.5195,7.8874 774,48.2342 C792.9312,54.1792 811.2803,66.5681 825.3682,77.9813 " fill="none" id="CollisionObject-backto-Obstacle" style="stroke:#A80036;stroke-width:1.0;"/><polygon fill="none" points="428.8576,73.7791,408.1338,78.1978,421.5789,61.82,428.8576,73.7791" style="stroke:#A80036;stroke-width:1.0;"/><!--MD5=[2447f226540ec9c560347afc2c55664a]
reverse link Obstacle to ObstacleBranch--><path codeLine="29" d="M894.5151,65.8993 C905.4351,58.6486 917.6059,52.0855 930,48.2342 C1055.2056,9.3281 1097.8529,16.2384 1225,48.2342 C1248.434,54.1312 1272.3573,66.6717 1290.9812,78.1843 " fill="none" id="Obstacle-backto-ObstacleBranch" style="stroke:#A80036;stroke-width:1.0;"/><polygon fill="none" points="898.2926,71.8093,878.0203,77.9767,890.0219,60.5134,898.2926,71.8093" style="stroke:#A80036;stroke-width:1.0;"/><!--MD5=[74ea1e852bbb142d1f2055725197de01]
reverse link Obstacle to ObstacleDuck--><path codeLine="30" d="M894.5151,65.8993 C905.4351,58.6486 917.6059,52.0855 930,48.2342 C990.2684,29.5065 1011.0405,31.8955 1072,48.2342 C1094.0897,54.1548 1116.3601,66.6964 1133.6221,78.2037 " fill="none" id="Obstacle-backto-ObstacleDuck" style="stroke:#A80036;stroke-width:1.0;"/><polygon fill="none" points="898.2926,71.8093,878.0203,77.9767,890.0219,60.5134,898.2926,71.8093" style="stroke:#A80036;stroke-width:1.0;"/><!--MD5=[d39e13981833993a391e28dcff3f4c08]
reverse link ObstacleBranch to ObstacleFloatingBranch--><path codeLine="31" d="M1411.2538,102.2342 C1416.1424,102.2342 1421.031,102.2342 1425.9196,102.2342 " fill="none" id="ObstacleBranch-backto-ObstacleFloatingBranch" style="stroke:#A80036;stroke-width:1.0;"/><polygon fill="none" points="1411.1563,109.2341,1391.1563,102.2342,1411.1562,95.2341,1411.1563,109.2341" style="stroke:#A80036;stroke-width:1.0;"/><!--MD5=[8e2ecfac9517fa4870172ee422e4ef6e]
reverse link Obstacle to ObstacleLaneWall--><path codeLine="32" d="M914.4291,102.2342 C919.3304,102.2342 924.2317,102.2342 929.133,102.2342 " fill="none" id="Obstacle-backto-ObstacleLaneWall" style="stroke:#A80036;stroke-width:1.0;"/><polygon fill="none" points="914.2793,109.2341,894.2793,102.2342,914.2793,95.2341,914.2793,109.2341" style="stroke:#A80036;stroke-width:1.0;"/><!--MD5=[556f525838ff4f21499678df80e5dac3]
reverse link MoveableObject to Boat--><path codeLine="34" d="M266.3578,68.1283 C281.4325,59.9769 298.3399,52.4266 315,48.2342 C367.1519,35.1105 385.3861,30.0604 436,48.2342 C452.7836,54.2606 468.3344,66.654 480.0683,78.0493 " fill="none" id="MoveableObject-backto-Boat" style="stroke:#A80036;stroke-width:1.0;"/><polygon fill="none" points="269.8316,74.2057,249.0188,78.1843,262.8078,62.0951,269.8316,74.2057" style="stroke:#A80036;stroke-width:1.0;"/><!--MD5=[02282af48b966665939bd48eb72da4be]
reverse link CollisionObject to Boat--><path codeLine="35" d="M456.144,102.2342 C461.0344,102.2342 465.9248,102.2342 470.8152,102.2342 " fill="none" id="CollisionObject-backto-Boat" style="stroke:#A80036;stroke-width:1.0;"/><polygon fill="none" points="456.0391,109.2341,436.0391,102.2342,456.039,95.2341,456.0391,109.2341" style="stroke:#A80036;stroke-width:1.0;"/><!--MD5=[98cb05a5852845d19943ffcf66c8c39b]
reverse link Boat to PlayerBoat--><path codeLine="36" d="M538.5718,64.9295 C547.5139,58.0914 557.5331,51.9487 568,48.2342 C598.1573,37.5319 609.2847,39.258 640,48.2342 C660.2202,54.1433 680.2036,66.5303 695.6568,77.9514 " fill="none" id="Boat-backto-PlayerBoat" style="stroke:#A80036;stroke-width:1.0;"/><polygon fill="none" points="543.0538,70.3076,523.3263,78.0426,533.9244,59.6937,543.0538,70.3076" style="stroke:#A80036;stroke-width:1.0;"/><!--MD5=[2f77c2c140af5a9927a9dd3039ffea70]
reverse link Boat to AIBoat--><path codeLine="37" d="M552.1993,102.2342 C557.2271,102.2342 562.2549,102.2342 567.2827,102.2342 " fill="none" id="Boat-backto-AIBoat" style="stroke:#A80036;stroke-width:1.0;"/><polygon fill="none" points="552.1797,109.2341,532.1797,102.2342,552.1797,95.2341,552.1797,109.2341" style="stroke:#A80036;stroke-width:1.0;"/><!--MD5=[a0aa917fa3c85539bb76fa1aa9e5e473]
reverse link Scene to SceneMainGame--><path codeLine="39" d="M1716.9928,65.4162 C1726.7723,58.3717 1737.7066,52.0197 1749,48.2342 C1851.6112,13.8395 2130.8911,22.4629 2236,48.2342 C2260.0149,54.1223 2284.6467,66.6624 2303.8533,78.177 " fill="none" id="Scene-backto-SceneMainGame" style="stroke:#A80036;stroke-width:1.0;"/><polygon fill="none" points="1721.2717,70.9576,1701.2909,78.0122,1712.5113,60.0372,1721.2717,70.9576" style="stroke:#A80036;stroke-width:1.0;"/><!--MD5=[f5866c8437053a6f5437e389243267e3]
reverse link Scene to SceneOptionsMenu--><path codeLine="40" d="M1716.9928,65.4162 C1726.7723,58.3717 1737.7066,52.0197 1749,48.2342 C1874.9989,6 1918.4757,18.5202 2048,48.2342 C2073.5758,54.1015 2100.0976,66.6406 2120.8552,78.1598 " fill="none" id="Scene-backto-SceneOptionsMenu" style="stroke:#A80036;stroke-width:1.0;"/><polygon fill="none" points="1721.2717,70.9576,1701.2909,78.0122,1712.5113,60.0372,1721.2717,70.9576" style="stroke:#A80036;stroke-width:1.0;"/><!--MD5=[97fbcc543611354a47a07c5f8f6cae89]
reverse link Scene to SceneStartScreen--><path codeLine="41" d="M1716.9928,65.4162 C1726.7723,58.3717 1737.7066,52.0197 1749,48.2342 C1798.7253,31.5665 1815.9697,36.1375 1867,48.2342 C1891.7933,54.1114 1917.37,66.651 1937.3526,78.168 " fill="none" id="Scene-backto-SceneStartScreen" style="stroke:#A80036;stroke-width:1.0;"/><polygon fill="none" points="1721.2717,70.9576,1701.2909,78.0122,1712.5113,60.0372,1721.2717,70.9576" style="stroke:#A80036;stroke-width:1.0;"/><!--MD5=[dc132ea77ed0156e517550f67054d034]
reverse link Scene to SceneTutorial--><path codeLine="42" d="M1733.2473,102.2342 C1738.3205,102.2342 1743.3936,102.2342 1748.4668,102.2342 " fill="none" id="Scene-backto-SceneTutorial" style="stroke:#A80036;stroke-width:1.0;"/><polygon fill="none" points="1733.0469,109.2341,1713.0469,102.2342,1733.0468,95.2341,1733.0469,109.2341" style="stroke:#A80036;stroke-width:1.0;"/><!--MD5=[9a9337a3640752c7d270055846628537]
link BoatRace to CollisionBounds--><!--MD5=[51c60761d2586e4349da2dc8d46398ff]
link CollisionBounds to PixelBoat--><!--MD5=[becd00154897aa5366d1b575259cb59c]
link BoatRace to ResultsScreen--><!--MD5=[a4955e576013f452661c4e896cb0ae45]
link ResultsScreen to RaceThread--><!--MD5=[c3040a67917659c5c83e43b812d62088]
@startuml
class AIBoat
abstract class Boat
class BoatRace
class CollisionBounds
interface CollisionObject
abstract class GameObject
abstract class MoveableObject
abstract class Obstacle
class ObstacleBranch
class ObstacleDuck
class ObstacleFloatingBranch
class ObstacleLaneWall
class PixelBoat
class PlayerBoat
class ResultsScreen
interface Scene
class SceneMainGame
class SceneOptionsMenu
class SceneStartScreen
class SceneTutorial
class RaceThread



GameObject <|- MoveableObject

MoveableObject <|- Obstacle
CollisionObject <|- Obstacle
Obstacle <|- ObstacleBranch
Obstacle <|- ObstacleDuck
ObstacleBranch <|- ObstacleFloatingBranch
Obstacle <|- ObstacleLaneWall

MoveableObject <|- Boat
CollisionObject <|- Boat
Boat <|- PlayerBoat
Boat <|- AIBoat

Scene <|- SceneMainGame
Scene <|- SceneOptionsMenu
Scene <|- SceneStartScreen
Scene <|- SceneTutorial

@enduml

PlantUML version 1.2021.01(Tue Feb 02 07:55:08 UTC 2021)
(GPLV2 source distribution)
Java Runtime: OpenJDK Runtime Environment
JVM: OpenJDK 64-Bit Server VM
Default Encoding: UTF-8
Language: en
Country: null
--></g></svg>