<?xml version="1.0" encoding="UTF-8" standalone="no"?><svg xmlns="http://www.w3.org/2000/svg" xmlns:xlink="http://www.w3.org/1999/xlink" contentScriptType="application/ecmascript" contentStyleType="text/css" height="393px" preserveAspectRatio="none" style="width:1433px;height:393px;" version="1.1" viewBox="0 0 1433 393" width="1433px" zoomAndPan="magnify"><defs><filter height="300%" id="fxu1mfrqd7tsn" width="300%" x="-1" y="-1"><feGaussianBlur result="blurOut" stdDeviation="2.0"/><feColorMatrix in="blurOut" result="blurOut2" type="matrix" values="0 0 0 0 0 0 0 0 0 0 0 0 0 0 0 0 0 0 .4 0"/><feOffset dx="4.0" dy="4.0" in="blurOut2" result="blurOut3"/><feBlend in="SourceGraphic" in2="blurOut3" mode="normal"/></filter></defs><g><!--MD5=[18fb3b8b891fcc2cffdb0edb6f0580a1]
class AIBoat--><rect codeLine="1" fill="#FEFECE" filter="url(#fxu1mfrqd7tsn)" height="48" id="AIBoat" style="stroke:#A80036;stroke-width:1.5;" width="72" x="42" y="7"/><ellipse cx="57" cy="23" fill="#ADD1B2" rx="11" ry="11" style="stroke:#A80036;stroke-width:1.0;"/><path d="M59.9688,28.6406 Q59.3906,28.9375 58.75,29.0781 Q58.1094,29.2344 57.4063,29.2344 Q54.9063,29.2344 53.5781,27.5938 Q52.2656,25.9375 52.2656,22.8125 Q52.2656,19.6875 53.5781,18.0313 Q54.9063,16.375 57.4063,16.375 Q58.1094,16.375 58.75,16.5313 Q59.4063,16.6875 59.9688,16.9844 L59.9688,19.7031 Q59.3438,19.125 58.75,18.8594 Q58.1563,18.5781 57.5313,18.5781 Q56.1875,18.5781 55.5,19.6563 Q54.8125,20.7188 54.8125,22.8125 Q54.8125,24.9063 55.5,25.9844 Q56.1875,27.0469 57.5313,27.0469 Q58.1563,27.0469 58.75,26.7813 Q59.3438,26.5 59.9688,25.9219 L59.9688,28.6406 Z " fill="#000000"/><text fill="#000000" font-family="sans-serif" font-size="12" lengthAdjust="spacing" textLength="40" x="71" y="27.1543">AIBoat</text><line style="stroke:#A80036;stroke-width:1.5;" x1="43" x2="113" y1="39" y2="39"/><line style="stroke:#A80036;stroke-width:1.5;" x1="43" x2="113" y1="47" y2="47"/><!--MD5=[d7378ac8501ce6417ec16634b4f30c76]
class Boat--><rect codeLine="2" fill="#FEFECE" filter="url(#fxu1mfrqd7tsn)" height="48" id="Boat" style="stroke:#A80036;stroke-width:1.5;" width="61" x="472.5" y="223"/><ellipse cx="487.5" cy="239" fill="#A9DCDF" rx="11" ry="11" style="stroke:#A80036;stroke-width:1.0;"/><path d="M487.6094,234.3438 L486.4531,239.4219 L488.7813,239.4219 L487.6094,234.3438 Z M486.125,232.1094 L489.1094,232.1094 L492.4688,244.5 L490.0156,244.5 L489.25,241.4375 L485.9688,241.4375 L485.2188,244.5 L482.7813,244.5 L486.125,232.1094 Z " fill="#000000"/><text fill="#000000" font-family="sans-serif" font-size="12" font-style="italic" lengthAdjust="spacing" textLength="29" x="501.5" y="243.1543">Boat</text><line style="stroke:#A80036;stroke-width:1.5;" x1="473.5" x2="532.5" y1="255" y2="255"/><line style="stroke:#A80036;stroke-width:1.5;" x1="473.5" x2="532.5" y1="263" y2="263"/><!--MD5=[7ad87d4687b1c74665962eea80f8b40b]
class BoatRace--><rect codeLine="3" fill="#FEFECE" filter="url(#fxu1mfrqd7tsn)" height="48" id="BoatRace" style="stroke:#A80036;stroke-width:1.5;" width="92" x="569" y="223"/><ellipse cx="584" cy="239" fill="#ADD1B2" rx="11" ry="11" style="stroke:#A80036;stroke-width:1.0;"/><path d="M586.9688,244.6406 Q586.3906,244.9375 585.75,245.0781 Q585.1094,245.2344 584.4063,245.2344 Q581.9063,245.2344 580.5781,243.5938 Q579.2656,241.9375 579.2656,238.8125 Q579.2656,235.6875 580.5781,234.0313 Q581.9063,232.375 584.4063,232.375 Q585.1094,232.375 585.75,232.5313 Q586.4063,232.6875 586.9688,232.9844 L586.9688,235.7031 Q586.3438,235.125 585.75,234.8594 Q585.1563,234.5781 584.5313,234.5781 Q583.1875,234.5781 582.5,235.6563 Q581.8125,236.7188 581.8125,238.8125 Q581.8125,240.9063 582.5,241.9844 Q583.1875,243.0469 584.5313,243.0469 Q585.1563,243.0469 585.75,242.7813 Q586.3438,242.5 586.9688,241.9219 L586.9688,244.6406 Z " fill="#000000"/><text fill="#000000" font-family="sans-serif" font-size="12" lengthAdjust="spacing" textLength="60" x="598" y="243.1543">BoatRace</text><line style="stroke:#A80036;stroke-width:1.5;" x1="570" x2="660" y1="255" y2="255"/><line style="stroke:#A80036;stroke-width:1.5;" x1="570" x2="660" y1="263" y2="263"/><!--MD5=[dad577432b370c149ed719f544827710]
class CollisionBounds--><rect codeLine="4" fill="#FEFECE" filter="url(#fxu1mfrqd7tsn)" height="48" id="CollisionBounds" style="stroke:#A80036;stroke-width:1.5;" width="130" x="1289" y="115"/><ellipse cx="1304" cy="131" fill="#ADD1B2" rx="11" ry="11" style="stroke:#A80036;stroke-width:1.0;"/><path d="M1306.9688,136.6406 Q1306.3906,136.9375 1305.75,137.0781 Q1305.1094,137.2344 1304.4063,137.2344 Q1301.9063,137.2344 1300.5781,135.5938 Q1299.2656,133.9375 1299.2656,130.8125 Q1299.2656,127.6875 1300.5781,126.0313 Q1301.9063,124.375 1304.4063,124.375 Q1305.1094,124.375 1305.75,124.5313 Q1306.4063,124.6875 1306.9688,124.9844 L1306.9688,127.7031 Q1306.3438,127.125 1305.75,126.8594 Q1305.1563,126.5781 1304.5313,126.5781 Q1303.1875,126.5781 1302.5,127.6563 Q1301.8125,128.7188 1301.8125,130.8125 Q1301.8125,132.9063 1302.5,133.9844 Q1303.1875,135.0469 1304.5313,135.0469 Q1305.1563,135.0469 1305.75,134.7813 Q1306.3438,134.5 1306.9688,133.9219 L1306.9688,136.6406 Z " fill="#000000"/><text fill="#000000" font-family="sans-serif" font-size="12" lengthAdjust="spacing" textLength="98" x="1318" y="135.1543">CollisionBounds</text><line style="stroke:#A80036;stroke-width:1.5;" x1="1290" x2="1418" y1="147" y2="147"/><line style="stroke:#A80036;stroke-width:1.5;" x1="1290" x2="1418" y1="155" y2="155"/><!--MD5=[aacfa9e8a43f0443332ec4be3ea5f7a8]
class CollisionObject--><rect codeLine="5" fill="#FEFECE" filter="url(#fxu1mfrqd7tsn)" height="48" id="CollisionObject" style="stroke:#A80036;stroke-width:1.5;" width="121" x="1293.5" y="7"/><ellipse cx="1308.5" cy="23" fill="#B4A7E5" rx="11" ry="11" style="stroke:#A80036;stroke-width:1.0;"/><path d="M1304.4219,18.7656 L1304.4219,16.6094 L1311.8125,16.6094 L1311.8125,18.7656 L1309.3438,18.7656 L1309.3438,26.8438 L1311.8125,26.8438 L1311.8125,29 L1304.4219,29 L1304.4219,26.8438 L1306.8906,26.8438 L1306.8906,18.7656 L1304.4219,18.7656 Z " fill="#000000"/><text fill="#000000" font-family="sans-serif" font-size="12" font-style="italic" lengthAdjust="spacing" textLength="89" x="1322.5" y="27.1543">CollisionObject</text><line style="stroke:#A80036;stroke-width:1.5;" x1="1294.5" x2="1413.5" y1="39" y2="39"/><line style="stroke:#A80036;stroke-width:1.5;" x1="1294.5" x2="1413.5" y1="47" y2="47"/><!--MD5=[064f7a74fee85463ec1a30143664ee17]
class GameObject--><rect codeLine="6" fill="#FEFECE" filter="url(#fxu1mfrqd7tsn)" height="48" id="GameObject" style="stroke:#A80036;stroke-width:1.5;" width="107" x="149.5" y="7"/><ellipse cx="164.5" cy="23" fill="#A9DCDF" rx="11" ry="11" style="stroke:#A80036;stroke-width:1.0;"/><path d="M164.6094,18.3438 L163.4531,23.4219 L165.7813,23.4219 L164.6094,18.3438 Z M163.125,16.1094 L166.1094,16.1094 L169.4688,28.5 L167.0156,28.5 L166.25,25.4375 L162.9688,25.4375 L162.2188,28.5 L159.7813,28.5 L163.125,16.1094 Z " fill="#000000"/><text fill="#000000" font-family="sans-serif" font-size="12" font-style="italic" lengthAdjust="spacing" textLength="75" x="178.5" y="27.1543">GameObject</text><line style="stroke:#A80036;stroke-width:1.5;" x1="150.5" x2="255.5" y1="39" y2="39"/><line style="stroke:#A80036;stroke-width:1.5;" x1="150.5" x2="255.5" y1="47" y2="47"/><!--MD5=[fe88339b2988a1ef1c95b68c104d7624]
class MoveableObject--><rect codeLine="7" fill="#FEFECE" filter="url(#fxu1mfrqd7tsn)" height="48" id="MoveableObject" style="stroke:#A80036;stroke-width:1.5;" width="130" x="292" y="7"/><ellipse cx="307" cy="23" fill="#A9DCDF" rx="11" ry="11" style="stroke:#A80036;stroke-width:1.0;"/><path d="M307.1094,18.3438 L305.9531,23.4219 L308.2813,23.4219 L307.1094,18.3438 Z M305.625,16.1094 L308.6094,16.1094 L311.9688,28.5 L309.5156,28.5 L308.75,25.4375 L305.4688,25.4375 L304.7188,28.5 L302.2813,28.5 L305.625,16.1094 Z " fill="#000000"/><text fill="#000000" font-family="sans-serif" font-size="12" font-style="italic" lengthAdjust="spacing" textLength="98" x="321" y="27.1543">MoveableObject</text><line style="stroke:#A80036;stroke-width:1.5;" x1="293" x2="421" y1="39" y2="39"/><line style="stroke:#A80036;stroke-width:1.5;" x1="293" x2="421" y1="47" y2="47"/><!--MD5=[23868d926b4091f874f65c50fc3e197e]
class Obstacle--><rect codeLine="8" fill="#FEFECE" filter="url(#fxu1mfrqd7tsn)" height="48" id="Obstacle" style="stroke:#A80036;stroke-width:1.5;" width="85" x="572.5" y="331"/><ellipse cx="587.5" cy="347" fill="#A9DCDF" rx="11" ry="11" style="stroke:#A80036;stroke-width:1.0;"/><path d="M587.6094,342.3438 L586.4531,347.4219 L588.7813,347.4219 L587.6094,342.3438 Z M586.125,340.1094 L589.1094,340.1094 L592.4688,352.5 L590.0156,352.5 L589.25,349.4375 L585.9688,349.4375 L585.2188,352.5 L582.7813,352.5 L586.125,340.1094 Z " fill="#000000"/><text fill="#000000" font-family="sans-serif" font-size="12" font-style="italic" lengthAdjust="spacing" textLength="53" x="601.5" y="351.1543">Obstacle</text><line style="stroke:#A80036;stroke-width:1.5;" x1="573.5" x2="656.5" y1="363" y2="363"/><line style="stroke:#A80036;stroke-width:1.5;" x1="573.5" x2="656.5" y1="371" y2="371"/><!--MD5=[4547f04c185f2c4543cd5e5112560fdc]
class ObstacleBranch--><rect codeLine="9" fill="#FEFECE" filter="url(#fxu1mfrqd7tsn)" height="48" id="ObstacleBranch" style="stroke:#A80036;stroke-width:1.5;" width="131" x="12.5" y="115"/><ellipse cx="27.5" cy="131" fill="#ADD1B2" rx="11" ry="11" style="stroke:#A80036;stroke-width:1.0;"/><path d="M30.4688,136.6406 Q29.8906,136.9375 29.25,137.0781 Q28.6094,137.2344 27.9063,137.2344 Q25.4063,137.2344 24.0781,135.5938 Q22.7656,133.9375 22.7656,130.8125 Q22.7656,127.6875 24.0781,126.0313 Q25.4063,124.375 27.9063,124.375 Q28.6094,124.375 29.25,124.5313 Q29.9063,124.6875 30.4688,124.9844 L30.4688,127.7031 Q29.8438,127.125 29.25,126.8594 Q28.6563,126.5781 28.0313,126.5781 Q26.6875,126.5781 26,127.6563 Q25.3125,128.7188 25.3125,130.8125 Q25.3125,132.9063 26,133.9844 Q26.6875,135.0469 28.0313,135.0469 Q28.6563,135.0469 29.25,134.7813 Q29.8438,134.5 30.4688,133.9219 L30.4688,136.6406 Z " fill="#000000"/><text fill="#000000" font-family="sans-serif" font-size="12" lengthAdjust="spacing" textLength="99" x="41.5" y="135.1543">ObstacleBranch</text><line style="stroke:#A80036;stroke-width:1.5;" x1="13.5" x2="142.5" y1="147" y2="147"/><line style="stroke:#A80036;stroke-width:1.5;" x1="13.5" x2="142.5" y1="155" y2="155"/><!--MD5=[b19bd0575d5e9b89c418741af47506da]
class ObstacleDuck--><rect codeLine="10" fill="#FEFECE" filter="url(#fxu1mfrqd7tsn)" height="48" id="ObstacleDuck" style="stroke:#A80036;stroke-width:1.5;" width="118" x="179" y="115"/><ellipse cx="194" cy="131" fill="#ADD1B2" rx="11" ry="11" style="stroke:#A80036;stroke-width:1.0;"/><path d="M196.9688,136.6406 Q196.3906,136.9375 195.75,137.0781 Q195.1094,137.2344 194.4063,137.2344 Q191.9063,137.2344 190.5781,135.5938 Q189.2656,133.9375 189.2656,130.8125 Q189.2656,127.6875 190.5781,126.0313 Q191.9063,124.375 194.4063,124.375 Q195.1094,124.375 195.75,124.5313 Q196.4063,124.6875 196.9688,124.9844 L196.9688,127.7031 Q196.3438,127.125 195.75,126.8594 Q195.1563,126.5781 194.5313,126.5781 Q193.1875,126.5781 192.5,127.6563 Q191.8125,128.7188 191.8125,130.8125 Q191.8125,132.9063 192.5,133.9844 Q193.1875,135.0469 194.5313,135.0469 Q195.1563,135.0469 195.75,134.7813 Q196.3438,134.5 196.9688,133.9219 L196.9688,136.6406 Z " fill="#000000"/><text fill="#000000" font-family="sans-serif" font-size="12" lengthAdjust="spacing" textLength="86" x="208" y="135.1543">ObstacleDuck</text><line style="stroke:#A80036;stroke-width:1.5;" x1="180" x2="296" y1="147" y2="147"/><line style="stroke:#A80036;stroke-width:1.5;" x1="180" x2="296" y1="155" y2="155"/><!--MD5=[984dbebc17ca09c7aea9ae108686ba45]
class ObstacleFloatingBranch--><rect codeLine="11" fill="#FEFECE" filter="url(#fxu1mfrqd7tsn)" height="48" id="ObstacleFloatingBranch" style="stroke:#A80036;stroke-width:1.5;" width="181" x="332.5" y="115"/><ellipse cx="347.5" cy="131" fill="#ADD1B2" rx="11" ry="11" style="stroke:#A80036;stroke-width:1.0;"/><path d="M350.4688,136.6406 Q349.8906,136.9375 349.25,137.0781 Q348.6094,137.2344 347.9063,137.2344 Q345.4063,137.2344 344.0781,135.5938 Q342.7656,133.9375 342.7656,130.8125 Q342.7656,127.6875 344.0781,126.0313 Q345.4063,124.375 347.9063,124.375 Q348.6094,124.375 349.25,124.5313 Q349.9063,124.6875 350.4688,124.9844 L350.4688,127.7031 Q349.8438,127.125 349.25,126.8594 Q348.6563,126.5781 348.0313,126.5781 Q346.6875,126.5781 346,127.6563 Q345.3125,128.7188 345.3125,130.8125 Q345.3125,132.9063 346,133.9844 Q346.6875,135.0469 348.0313,135.0469 Q348.6563,135.0469 349.25,134.7813 Q349.8438,134.5 350.4688,133.9219 L350.4688,136.6406 Z " fill="#000000"/><text fill="#000000" font-family="sans-serif" font-size="12" lengthAdjust="spacing" textLength="149" x="361.5" y="135.1543">ObstacleFloatingBranch</text><line style="stroke:#A80036;stroke-width:1.5;" x1="333.5" x2="512.5" y1="147" y2="147"/><line style="stroke:#A80036;stroke-width:1.5;" x1="333.5" x2="512.5" y1="155" y2="155"/><!--MD5=[be48d278c37504bf038512057d0f5275]
class ObstacleLaneWall--><rect codeLine="12" fill="#FEFECE" filter="url(#fxu1mfrqd7tsn)" height="48" id="ObstacleLaneWall" style="stroke:#A80036;stroke-width:1.5;" width="142" x="7" y="223"/><ellipse cx="22" cy="239" fill="#ADD1B2" rx="11" ry="11" style="stroke:#A80036;stroke-width:1.0;"/><path d="M24.9688,244.6406 Q24.3906,244.9375 23.75,245.0781 Q23.1094,245.2344 22.4063,245.2344 Q19.9063,245.2344 18.5781,243.5938 Q17.2656,241.9375 17.2656,238.8125 Q17.2656,235.6875 18.5781,234.0313 Q19.9063,232.375 22.4063,232.375 Q23.1094,232.375 23.75,232.5313 Q24.4063,232.6875 24.9688,232.9844 L24.9688,235.7031 Q24.3438,235.125 23.75,234.8594 Q23.1563,234.5781 22.5313,234.5781 Q21.1875,234.5781 20.5,235.6563 Q19.8125,236.7188 19.8125,238.8125 Q19.8125,240.9063 20.5,241.9844 Q21.1875,243.0469 22.5313,243.0469 Q23.1563,243.0469 23.75,242.7813 Q24.3438,242.5 24.9688,241.9219 L24.9688,244.6406 Z " fill="#000000"/><text fill="#000000" font-family="sans-serif" font-size="12" lengthAdjust="spacing" textLength="110" x="36" y="243.1543">ObstacleLaneWall</text><line style="stroke:#A80036;stroke-width:1.5;" x1="8" x2="148" y1="255" y2="255"/><line style="stroke:#A80036;stroke-width:1.5;" x1="8" x2="148" y1="263" y2="263"/><!--MD5=[3c83b70202e58b87ef51d700e986ab12]
class PixelBoat--><rect codeLine="13" fill="#FEFECE" filter="url(#fxu1mfrqd7tsn)" height="48" id="PixelBoat" style="stroke:#A80036;stroke-width:1.5;" width="89" x="890.5" y="7"/><ellipse cx="905.5" cy="23" fill="#ADD1B2" rx="11" ry="11" style="stroke:#A80036;stroke-width:1.0;"/><path d="M908.4688,28.6406 Q907.8906,28.9375 907.25,29.0781 Q906.6094,29.2344 905.9063,29.2344 Q903.4063,29.2344 902.0781,27.5938 Q900.7656,25.9375 900.7656,22.8125 Q900.7656,19.6875 902.0781,18.0313 Q903.4063,16.375 905.9063,16.375 Q906.6094,16.375 907.25,16.5313 Q907.9063,16.6875 908.4688,16.9844 L908.4688,19.7031 Q907.8438,19.125 907.25,18.8594 Q906.6563,18.5781 906.0313,18.5781 Q904.6875,18.5781 904,19.6563 Q903.3125,20.7188 903.3125,22.8125 Q903.3125,24.9063 904,25.9844 Q904.6875,27.0469 906.0313,27.0469 Q906.6563,27.0469 907.25,26.7813 Q907.8438,26.5 908.4688,25.9219 L908.4688,28.6406 Z " fill="#000000"/><text fill="#000000" font-family="sans-serif" font-size="12" lengthAdjust="spacing" textLength="57" x="919.5" y="27.1543">PixelBoat</text><line style="stroke:#A80036;stroke-width:1.5;" x1="891.5" x2="978.5" y1="39" y2="39"/><line style="stroke:#A80036;stroke-width:1.5;" x1="891.5" x2="978.5" y1="47" y2="47"/><!--MD5=[8b809054524057386b660902a6971129]
class PlayerBoat--><rect codeLine="14" fill="#FEFECE" filter="url(#fxu1mfrqd7tsn)" height="48" id="PlayerBoat" style="stroke:#A80036;stroke-width:1.5;" width="99" x="184.5" y="223"/><ellipse cx="199.5" cy="239" fill="#ADD1B2" rx="11" ry="11" style="stroke:#A80036;stroke-width:1.0;"/><path d="M202.4688,244.6406 Q201.8906,244.9375 201.25,245.0781 Q200.6094,245.2344 199.9063,245.2344 Q197.4063,245.2344 196.0781,243.5938 Q194.7656,241.9375 194.7656,238.8125 Q194.7656,235.6875 196.0781,234.0313 Q197.4063,232.375 199.9063,232.375 Q200.6094,232.375 201.25,232.5313 Q201.9063,232.6875 202.4688,232.9844 L202.4688,235.7031 Q201.8438,235.125 201.25,234.8594 Q200.6563,234.5781 200.0313,234.5781 Q198.6875,234.5781 198,235.6563 Q197.3125,236.7188 197.3125,238.8125 Q197.3125,240.9063 198,241.9844 Q198.6875,243.0469 200.0313,243.0469 Q200.6563,243.0469 201.25,242.7813 Q201.8438,242.5 202.4688,241.9219 L202.4688,244.6406 Z " fill="#000000"/><text fill="#000000" font-family="sans-serif" font-size="12" lengthAdjust="spacing" textLength="67" x="213.5" y="243.1543">PlayerBoat</text><line style="stroke:#A80036;stroke-width:1.5;" x1="185.5" x2="282.5" y1="255" y2="255"/><line style="stroke:#A80036;stroke-width:1.5;" x1="185.5" x2="282.5" y1="263" y2="263"/><!--MD5=[450cdf3cb19eded7e4eade1b5b010c8a]
class ResultsScreen--><rect codeLine="15" fill="#FEFECE" filter="url(#fxu1mfrqd7tsn)" height="48" id="ResultsScreen" style="stroke:#A80036;stroke-width:1.5;" width="122" x="696" y="223"/><ellipse cx="711" cy="239" fill="#ADD1B2" rx="11" ry="11" style="stroke:#A80036;stroke-width:1.0;"/><path d="M713.9688,244.6406 Q713.3906,244.9375 712.75,245.0781 Q712.1094,245.2344 711.4063,245.2344 Q708.9063,245.2344 707.5781,243.5938 Q706.2656,241.9375 706.2656,238.8125 Q706.2656,235.6875 707.5781,234.0313 Q708.9063,232.375 711.4063,232.375 Q712.1094,232.375 712.75,232.5313 Q713.4063,232.6875 713.9688,232.9844 L713.9688,235.7031 Q713.3438,235.125 712.75,234.8594 Q712.1563,234.5781 711.5313,234.5781 Q710.1875,234.5781 709.5,235.6563 Q708.8125,236.7188 708.8125,238.8125 Q708.8125,240.9063 709.5,241.9844 Q710.1875,243.0469 711.5313,243.0469 Q712.1563,243.0469 712.75,242.7813 Q713.3438,242.5 713.9688,241.9219 L713.9688,244.6406 Z " fill="#000000"/><text fill="#000000" font-family="sans-serif" font-size="12" lengthAdjust="spacing" textLength="90" x="725" y="243.1543">ResultsScreen</text><line style="stroke:#A80036;stroke-width:1.5;" x1="697" x2="817" y1="255" y2="255"/><line style="stroke:#A80036;stroke-width:1.5;" x1="697" x2="817" y1="263" y2="263"/><!--MD5=[e4faacc5b8aef66b11ab0c816bbbc7f8]
class Scene--><rect codeLine="16" fill="#FEFECE" filter="url(#fxu1mfrqd7tsn)" height="48" id="Scene" style="stroke:#A80036;stroke-width:1.5;" width="71" x="318.5" y="223"/><ellipse cx="333.5" cy="239" fill="#B4A7E5" rx="11" ry="11" style="stroke:#A80036;stroke-width:1.0;"/><path d="M329.4219,234.7656 L329.4219,232.6094 L336.8125,232.6094 L336.8125,234.7656 L334.3438,234.7656 L334.3438,242.8438 L336.8125,242.8438 L336.8125,245 L329.4219,245 L329.4219,242.8438 L331.8906,242.8438 L331.8906,234.7656 L329.4219,234.7656 Z " fill="#000000"/><text fill="#000000" font-family="sans-serif" font-size="12" font-style="italic" lengthAdjust="spacing" textLength="39" x="347.5" y="243.1543">Scene</text><line style="stroke:#A80036;stroke-width:1.5;" x1="319.5" x2="388.5" y1="255" y2="255"/><line style="stroke:#A80036;stroke-width:1.5;" x1="319.5" x2="388.5" y1="263" y2="263"/><!--MD5=[191f5a5662fedcdee87af3bba77ae1e5]
class SceneMainGame--><rect codeLine="17" fill="#FEFECE" filter="url(#fxu1mfrqd7tsn)" height="48" id="SceneMainGame" style="stroke:#A80036;stroke-width:1.5;" width="136" x="595" y="115"/><ellipse cx="610" cy="131" fill="#ADD1B2" rx="11" ry="11" style="stroke:#A80036;stroke-width:1.0;"/><path d="M612.9688,136.6406 Q612.3906,136.9375 611.75,137.0781 Q611.1094,137.2344 610.4063,137.2344 Q607.9063,137.2344 606.5781,135.5938 Q605.2656,133.9375 605.2656,130.8125 Q605.2656,127.6875 606.5781,126.0313 Q607.9063,124.375 610.4063,124.375 Q611.1094,124.375 611.75,124.5313 Q612.4063,124.6875 612.9688,124.9844 L612.9688,127.7031 Q612.3438,127.125 611.75,126.8594 Q611.1563,126.5781 610.5313,126.5781 Q609.1875,126.5781 608.5,127.6563 Q607.8125,128.7188 607.8125,130.8125 Q607.8125,132.9063 608.5,133.9844 Q609.1875,135.0469 610.5313,135.0469 Q611.1563,135.0469 611.75,134.7813 Q612.3438,134.5 612.9688,133.9219 L612.9688,136.6406 Z " fill="#000000"/><text fill="#000000" font-family="sans-serif" font-size="12" lengthAdjust="spacing" textLength="104" x="624" y="135.1543">SceneMainGame</text><line style="stroke:#A80036;stroke-width:1.5;" x1="596" x2="730" y1="147" y2="147"/><line style="stroke:#A80036;stroke-width:1.5;" x1="596" x2="730" y1="155" y2="155"/><!--MD5=[10fad2eef0002dd70ab0ee7e095a83d7]
class SceneOptionsMenu--><rect codeLine="18" fill="#FEFECE" filter="url(#fxu1mfrqd7tsn)" height="48" id="SceneOptionsMenu" style="stroke:#A80036;stroke-width:1.5;" width="153" x="766.5" y="115"/><ellipse cx="781.5" cy="131" fill="#ADD1B2" rx="11" ry="11" style="stroke:#A80036;stroke-width:1.0;"/><path d="M784.4688,136.6406 Q783.8906,136.9375 783.25,137.0781 Q782.6094,137.2344 781.9063,137.2344 Q779.4063,137.2344 778.0781,135.5938 Q776.7656,133.9375 776.7656,130.8125 Q776.7656,127.6875 778.0781,126.0313 Q779.4063,124.375 781.9063,124.375 Q782.6094,124.375 783.25,124.5313 Q783.9063,124.6875 784.4688,124.9844 L784.4688,127.7031 Q783.8438,127.125 783.25,126.8594 Q782.6563,126.5781 782.0313,126.5781 Q780.6875,126.5781 780,127.6563 Q779.3125,128.7188 779.3125,130.8125 Q779.3125,132.9063 780,133.9844 Q780.6875,135.0469 782.0313,135.0469 Q782.6563,135.0469 783.25,134.7813 Q783.8438,134.5 784.4688,133.9219 L784.4688,136.6406 Z " fill="#000000"/><text fill="#000000" font-family="sans-serif" font-size="12" lengthAdjust="spacing" textLength="121" x="795.5" y="135.1543">SceneOptionsMenu</text><line style="stroke:#A80036;stroke-width:1.5;" x1="767.5" x2="918.5" y1="147" y2="147"/><line style="stroke:#A80036;stroke-width:1.5;" x1="767.5" x2="918.5" y1="155" y2="155"/><!--MD5=[705050e7dc8a0f9ad873dfab94d81211]
class SceneStartScreen--><rect codeLine="19" fill="#FEFECE" filter="url(#fxu1mfrqd7tsn)" height="48" id="SceneStartScreen" style="stroke:#A80036;stroke-width:1.5;" width="146" x="955" y="115"/><ellipse cx="970" cy="131" fill="#ADD1B2" rx="11" ry="11" style="stroke:#A80036;stroke-width:1.0;"/><path d="M972.9688,136.6406 Q972.3906,136.9375 971.75,137.0781 Q971.1094,137.2344 970.4063,137.2344 Q967.9063,137.2344 966.5781,135.5938 Q965.2656,133.9375 965.2656,130.8125 Q965.2656,127.6875 966.5781,126.0313 Q967.9063,124.375 970.4063,124.375 Q971.1094,124.375 971.75,124.5313 Q972.4063,124.6875 972.9688,124.9844 L972.9688,127.7031 Q972.3438,127.125 971.75,126.8594 Q971.1563,126.5781 970.5313,126.5781 Q969.1875,126.5781 968.5,127.6563 Q967.8125,128.7188 967.8125,130.8125 Q967.8125,132.9063 968.5,133.9844 Q969.1875,135.0469 970.5313,135.0469 Q971.1563,135.0469 971.75,134.7813 Q972.3438,134.5 972.9688,133.9219 L972.9688,136.6406 Z " fill="#000000"/><text fill="#000000" font-family="sans-serif" font-size="12" lengthAdjust="spacing" textLength="114" x="984" y="135.1543">SceneStartScreen</text><line style="stroke:#A80036;stroke-width:1.5;" x1="956" x2="1100" y1="147" y2="147"/><line style="stroke:#A80036;stroke-width:1.5;" x1="956" x2="1100" y1="155" y2="155"/><!--MD5=[eb8347e17286b04f108bb989edee2135]
class SceneTutorial--><rect codeLine="20" fill="#FEFECE" filter="url(#fxu1mfrqd7tsn)" height="48" id="SceneTutorial" style="stroke:#A80036;stroke-width:1.5;" width="118" x="1136" y="115"/><ellipse cx="1151" cy="131" fill="#ADD1B2" rx="11" ry="11" style="stroke:#A80036;stroke-width:1.0;"/><path d="M1153.9688,136.6406 Q1153.3906,136.9375 1152.75,137.0781 Q1152.1094,137.2344 1151.4063,137.2344 Q1148.9063,137.2344 1147.5781,135.5938 Q1146.2656,133.9375 1146.2656,130.8125 Q1146.2656,127.6875 1147.5781,126.0313 Q1148.9063,124.375 1151.4063,124.375 Q1152.1094,124.375 1152.75,124.5313 Q1153.4063,124.6875 1153.9688,124.9844 L1153.9688,127.7031 Q1153.3438,127.125 1152.75,126.8594 Q1152.1563,126.5781 1151.5313,126.5781 Q1150.1875,126.5781 1149.5,127.6563 Q1148.8125,128.7188 1148.8125,130.8125 Q1148.8125,132.9063 1149.5,133.9844 Q1150.1875,135.0469 1151.5313,135.0469 Q1152.1563,135.0469 1152.75,134.7813 Q1153.3438,134.5 1153.9688,133.9219 L1153.9688,136.6406 Z " fill="#000000"/><text fill="#000000" font-family="sans-serif" font-size="12" lengthAdjust="spacing" textLength="86" x="1165" y="135.1543">SceneTutorial</text><line style="stroke:#A80036;stroke-width:1.5;" x1="1137" x2="1253" y1="147" y2="147"/><line style="stroke:#A80036;stroke-width:1.5;" x1="1137" x2="1253" y1="155" y2="155"/><!--MD5=[f5f7bafad988ab79c27664226104c3e3]
class RaceThread--><rect codeLine="21" fill="#FEFECE" filter="url(#fxu1mfrqd7tsn)" height="48" id="RaceThread" style="stroke:#A80036;stroke-width:1.5;" width="107" x="853.5" y="223"/><ellipse cx="868.5" cy="239" fill="#ADD1B2" rx="11" ry="11" style="stroke:#A80036;stroke-width:1.0;"/><path d="M871.4688,244.6406 Q870.8906,244.9375 870.25,245.0781 Q869.6094,245.2344 868.9063,245.2344 Q866.4063,245.2344 865.0781,243.5938 Q863.7656,241.9375 863.7656,238.8125 Q863.7656,235.6875 865.0781,234.0313 Q866.4063,232.375 868.9063,232.375 Q869.6094,232.375 870.25,232.5313 Q870.9063,232.6875 871.4688,232.9844 L871.4688,235.7031 Q870.8438,235.125 870.25,234.8594 Q869.6563,234.5781 869.0313,234.5781 Q867.6875,234.5781 867,235.6563 Q866.3125,236.7188 866.3125,238.8125 Q866.3125,240.9063 867,241.9844 Q867.6875,243.0469 869.0313,243.0469 Q869.6563,243.0469 870.25,242.7813 Q870.8438,242.5 871.4688,241.9219 L871.4688,244.6406 Z " fill="#000000"/><text fill="#000000" font-family="sans-serif" font-size="12" lengthAdjust="spacing" textLength="75" x="882.5" y="243.1543">RaceThread</text><line style="stroke:#A80036;stroke-width:1.5;" x1="854.5" x2="959.5" y1="255" y2="255"/><line style="stroke:#A80036;stroke-width:1.5;" x1="854.5" x2="959.5" y1="263" y2="263"/><!--MD5=[a4805e0ae02cde47a35b7df8b44072fa]
reverse link PixelBoat to SceneMainGame--><path codeLine="24" d="M878.1419,53.576 C832.9343,71.5261 769.8337,96.5808 723.6603,114.9143 " fill="none" id="PixelBoat-backto-SceneMainGame" style="stroke:#A80036;stroke-width:1.0;"/><polygon fill="#A80036" points="890.3893,48.7131,883.3367,47.2096,879.2363,53.1415,886.2889,54.645,890.3893,48.7131" style="stroke:#A80036;stroke-width:1.0;"/><text fill="#000000" font-family="sans-serif" font-size="13" lengthAdjust="spacing" textLength="8" x="874.642" y="47.4183">1</text><text fill="#000000" font-family="sans-serif" font-size="13" lengthAdjust="spacing" textLength="8" x="730.1795" y="103.9044">1</text><!--MD5=[f3c77e877333280ea32333856addcbe6]
reverse link PixelBoat to SceneOptionsMenu--><path codeLine="25" d="M905.7308,65.3595 C892.0115,81.4648 875.9935,100.2685 863.5777,114.8436 " fill="none" id="PixelBoat-backto-SceneOptionsMenu" style="stroke:#A80036;stroke-width:1.0;"/><polygon fill="#A80036" points="914.3534,55.2373,907.4176,57.211,906.5719,64.3723,913.5076,62.3986,914.3534,55.2373" style="stroke:#A80036;stroke-width:1.0;"/><text fill="#000000" font-family="sans-serif" font-size="13" lengthAdjust="spacing" textLength="8" x="900.3458" y="75.0563">1</text><text fill="#000000" font-family="sans-serif" font-size="13" lengthAdjust="spacing" textLength="8" x="859.8257" y="103.8156">1</text><!--MD5=[43e0c177b5f6e6fc119675eb6fdb340f]
reverse link PixelBoat to SceneStartScreen--><path codeLine="26" d="M964.5874,65.3595 C978.4558,81.4648 994.6479,100.2685 1007.1986,114.8436 " fill="none" id="PixelBoat-backto-SceneStartScreen" style="stroke:#A80036;stroke-width:1.0;"/><polygon fill="#A80036" points="955.871,55.2373,956.7551,62.394,963.7013,64.3305,962.8172,57.1738,955.871,55.2373" style="stroke:#A80036;stroke-width:1.0;"/><text fill="#000000" font-family="sans-serif" font-size="13" lengthAdjust="spacing" textLength="8" x="951.9833" y="75.0563">1</text><text fill="#000000" font-family="sans-serif" font-size="13" lengthAdjust="spacing" textLength="8" x="992.8432" y="103.8156">1</text><!--MD5=[81a756b288c897a1f2c95945e59f9d82]
reverse link PixelBoat to SceneTutorial--><path codeLine="27" d="M991.9168,54.6424 C1034.8411,72.4724 1093.5115,96.8433 1136.7559,114.8063 " fill="none" id="PixelBoat-backto-SceneTutorial" style="stroke:#A80036;stroke-width:1.0;"/><polygon fill="#A80036" points="979.6956,49.5659,983.7021,55.5616,990.7775,54.1693,986.771,48.1736,979.6956,49.5659" style="stroke:#A80036;stroke-width:1.0;"/><text fill="#000000" font-family="sans-serif" font-size="13" lengthAdjust="spacing" textLength="8" x="987.4565" y="48.407">1</text><text fill="#000000" font-family="sans-serif" font-size="13" lengthAdjust="spacing" textLength="8" x="1120.0028" y="107.4256">1</text><!--MD5=[9956ec25f5cdc2df3ee74f0be5f0dcce]
reverse link BoatRace to Obstacle--><path codeLine="29" d="M615,284.6145 C615,299.9531 615,317.2402 615,330.8436 " fill="none" id="BoatRace-backto-Obstacle" style="stroke:#A80036;stroke-width:1.0;"/><polygon fill="#A80036" points="615,271.2373,611,277.2373,615,283.2373,619,277.2373,615,271.2373" style="stroke:#A80036;stroke-width:1.0;"/><text fill="#000000" font-family="sans-serif" font-size="13" lengthAdjust="spacing" textLength="8" x="606.025" y="291.0563">1</text><text fill="#000000" font-family="sans-serif" font-size="13" lengthAdjust="spacing" textLength="23" x="589.0531" y="319.8156">0..*</text><!--MD5=[dea9aff65749270c567862b6383c97c5]
reverse link SceneMainGame to BoatRace--><path codeLine="31" d="M646.906,175.2115 C639.9372,190.8913 631.9672,208.8238 625.7362,222.8436 " fill="none" id="SceneMainGame-backto-BoatRace" style="stroke:#A80036;stroke-width:1.0;"/><polygon fill="#A80036" points="652.2279,163.2373,646.1358,167.0956,647.3542,174.203,653.4463,170.3447,652.2279,163.2373" style="stroke:#A80036;stroke-width:1.0;"/><text fill="#000000" font-family="sans-serif" font-size="13" lengthAdjust="spacing" textLength="8" x="640.6272" y="183.0563">1</text><text fill="#000000" font-family="sans-serif" font-size="13" lengthAdjust="spacing" textLength="8" x="619.4624" y="211.8156">1</text><!--MD5=[2eb189331b87edffe8158dff06b2b823]
reverse link SceneMainGame to ResultsScreen--><path codeLine="32" d="M692.9055,173.3595 C706.923,189.4648 723.2893,208.2685 735.975,222.8436 " fill="none" id="SceneMainGame-backto-ResultsScreen" style="stroke:#A80036;stroke-width:1.0;"/><polygon fill="#A80036" points="684.0954,163.2373,685.0173,170.3892,691.9737,172.289,691.0518,165.137,684.0954,163.2373" style="stroke:#A80036;stroke-width:1.0;"/><text fill="#000000" font-family="sans-serif" font-size="13" lengthAdjust="spacing" textLength="8" x="680.2624" y="183.0563">1</text><text fill="#000000" font-family="sans-serif" font-size="13" lengthAdjust="spacing" textLength="8" x="721.5623" y="211.8156">1</text><!--MD5=[4920121928632d1c55313bba7d983c59]
reverse link SceneMainGame to Boat--><path codeLine="33" d="M616.1041,170.6547 C589.5147,188.6026 557.0014,210.5491 533.6699,226.2978 " fill="none" id="SceneMainGame-backto-Boat" style="stroke:#A80036;stroke-width:1.0;"/><polygon fill="#A80036" points="627.0929,163.2373,619.8819,163.2787,617.1467,169.9509,624.3577,169.9095,627.0929,163.2373" style="stroke:#A80036;stroke-width:1.0;"/><text fill="#000000" font-family="sans-serif" font-size="13" lengthAdjust="spacing" textLength="8" x="609.3655" y="183.0563">1</text><text fill="#000000" font-family="sans-serif" font-size="13" lengthAdjust="spacing" textLength="23" x="538.0513" y="216.3548">0..*</text><!--MD5=[36f28a410ded9c9af88e78d4a336f4dd]
reverse link SceneMainGame to RaceThread--><path codeLine="35" d="M731.2087,169.1907 C769.7437,186.2472 817.2312,207.2663 853.1322,223.1569 " fill="none" id="SceneMainGame-backto-RaceThread" style="stroke:#A80036;stroke-width:1.0;"/><ellipse cx="724.7701" cy="166.3408" fill="#FFFFFF" rx="8" ry="8" style="stroke:#A80036;stroke-width:1.0;"/><line style="stroke:#A80036;stroke-width:1.0;" x1="732.0856" x2="717.4547" y1="169.5788" y2="163.1029"/><line style="stroke:#A80036;stroke-width:1.0;" x1="721.5322" x2="728.0081" y1="173.6563" y2="159.0254"/><!--MD5=[fb1e0a30be4f7cf3976387db5b7d50d9]
reverse link CollisionObject to CollisionBounds--><path codeLine="37" d="M1354,68.6145 C1354,83.9531 1354,101.2402 1354,114.8436 " fill="none" id="CollisionObject-backto-CollisionBounds" style="stroke:#A80036;stroke-width:1.0;"/><polygon fill="#A80036" points="1354,55.2373,1350,61.2373,1354,67.2373,1358,61.2373,1354,55.2373" style="stroke:#A80036;stroke-width:1.0;"/><text fill="#000000" font-family="sans-serif" font-size="13" lengthAdjust="spacing" textLength="8" x="1345.025" y="75.0563">1</text><text fill="#000000" font-family="sans-serif" font-size="13" lengthAdjust="spacing" textLength="8" x="1344.975" y="103.8156">1</text><!--MD5=[9145ba0a4478abe31ae20ef67a437f4a]
link AIBoat to GameObject--><!--MD5=[aae44b22c7c3952c6a2ff7bddf30bb1f]
link GameObject to MoveableObject--><!--MD5=[85c233db8d61b93cf764aedec85f83b7]
link AIBoat to ObstacleBranch--><!--MD5=[90c716f3a67d230c7155806009ffa237]
link ObstacleBranch to ObstacleDuck--><!--MD5=[1a96051c0112e1662865e4f1e15b5a42]
link ObstacleDuck to ObstacleFloatingBranch--><!--MD5=[eefba7b3e6775721f4fa1ec69b19f27d]
link ObstacleBranch to ObstacleLaneWall--><!--MD5=[08998a82ff69ff06cb3242721ec31fe0]
link ObstacleLaneWall to PlayerBoat--><!--MD5=[ebfc41a33567706159b491b80891533f]
link PlayerBoat to Scene--><!--MD5=[b0a04bb40792277fd9b1d60e43b67728]
@startuml
class AIBoat
abstract class Boat
class BoatRace
class CollisionBounds
interface CollisionObject
abstract class GameObject
abstract class MoveableObject
abstract class Obstacle
class ObstacleBranch
class ObstacleDuck
class ObstacleFloatingBranch
class ObstacleLaneWall
class PixelBoat
class PlayerBoat
class ResultsScreen
interface Scene
class SceneMainGame
class SceneOptionsMenu
class SceneStartScreen
class SceneTutorial
class RaceThread


PixelBoat "1" *- - "1" SceneMainGame
PixelBoat "1" *- - "1" SceneOptionsMenu
PixelBoat "1" *- - "1" SceneStartScreen
PixelBoat "1" *- - "1" SceneTutorial

BoatRace "1" *- - "0..*" Obstacle

SceneMainGame "1" *- - "1" BoatRace
SceneMainGame "1" *- - "1" ResultsScreen
SceneMainGame "1" *- - "0..*" Boat

SceneMainGame +- - RaceThread

CollisionObject "1" *- - "1" CollisionBounds

@enduml

PlantUML version 1.2021.01(Tue Feb 02 07:55:08 UTC 2021)
(GPLV2 source distribution)
Java Runtime: OpenJDK Runtime Environment
JVM: OpenJDK 64-Bit Server VM
Default Encoding: UTF-8
Language: en
Country: null
--></g></svg>